<?xml version="1.0" encoding="UTF-8" standalone="no"?>
<svg
   xmlns:dc="http://purl.org/dc/elements/1.1/"
   xmlns:cc="http://creativecommons.org/ns#"
   xmlns:rdf="http://www.w3.org/1999/02/22-rdf-syntax-ns#"
   xmlns:svg="http://www.w3.org/2000/svg"
   xmlns="http://www.w3.org/2000/svg"
   xmlns:sodipodi="http://sodipodi.sourceforge.net/DTD/sodipodi-0.dtd"
   xmlns:inkscape="http://www.inkscape.org/namespaces/inkscape"
   width="100"
   height="100"
   viewBox="0 0 100 100"
   version="1.1"
   id="svg7"
   sodipodi:docname="info.svg"
   inkscape:version="0.92.1 r15371">
  <metadata
     id="metadata11">
    <rdf:RDF>
      <cc:Work
         rdf:about="">
        <dc:format>image/svg+xml</dc:format>
        <dc:type
           rdf:resource="http://purl.org/dc/dcmitype/StillImage" />
        <dc:title></dc:title>
      </cc:Work>
    </rdf:RDF>
  </metadata>
  <sodipodi:namedview
     pagecolor="#ffffff"
     bordercolor="#666666"
     borderopacity="1"
     objecttolerance="10"
     gridtolerance="10"
     guidetolerance="10"
     inkscape:pageopacity="0"
     inkscape:pageshadow="2"
     inkscape:window-width="1920"
     inkscape:window-height="1057"
     id="namedview9"
     showgrid="false"
     inkscape:zoom="5.6369565"
     inkscape:cx="-2.0086825"
     inkscape:cy="70.615854"
     inkscape:window-x="-8"
     inkscape:window-y="-8"
     inkscape:window-maximized="1"
     inkscape:current-layer="svg7" />
  <defs
     id="defs4">
    <style
       id="style2">
      .cls-1 {
        fill: #101010;
        fill-rule: evenodd;
      }
    </style>
  </defs>
  <path
     id="info"
     class="cls-1"
     d="M 50,99.875047 A 49.875047,49.875047 0 1 1 99.875047,50 49.875047,49.875047 0 0 1 50,99.875047 Z M 50,8.4374602 A 41.562539,41.562539 0 1 0 91.562539,50 41.562539,41.562539 0 0 0 50,8.4374602 Z M 50,74.937522 A 4.1562539,4.1562539 0 0 1 45.87284,70.781269 V 45.885308 a 4.1271601,4.1271601 0 1 1 8.250164,0 V 70.781269 A 4.1313164,4.1313164 0 0 1 50,74.937522 Z M 50,33.374983 A 4.1230039,4.1230039 0 1 1 54.118847,29.25198 4.1313164,4.1313164 0 0 1 50,33.374983 Z M 45.87284,29.21873 c 0,0 0,0 0,0 a 0.17871892,0.17871892 0 0 1 0,0.02078 z m 8.250164,0 v 0.04156 a 0.17871892,0.17871892 0 0 1 0,-0.02079 c 0,0 0,-0.02078 0,-0.02078 z"
     inkscape:connector-curvature="0"
     style="fill:#ffcd44;fill-rule:evenodd;stroke-width:1;fill-opacity:1" />
</svg>
