<?xml version="1.0" encoding="UTF-8" standalone="no"?>
<svg
   xmlns:dc="http://purl.org/dc/elements/1.1/"
   xmlns:cc="http://creativecommons.org/ns#"
   xmlns:rdf="http://www.w3.org/1999/02/22-rdf-syntax-ns#"
   xmlns:svg="http://www.w3.org/2000/svg"
   xmlns="http://www.w3.org/2000/svg"
   xmlns:sodipodi="http://sodipodi.sourceforge.net/DTD/sodipodi-0.dtd"
   xmlns:inkscape="http://www.inkscape.org/namespaces/inkscape"
   width="100"
   height="100"
   viewBox="0 0 100 100"
   version="1.1"
   id="svg7"
   sodipodi:docname="menu.svg"
   inkscape:version="0.92.1 r15371">
  <metadata
     id="metadata11">
    <rdf:RDF>
      <cc:Work
         rdf:about="">
        <dc:format>image/svg+xml</dc:format>
        <dc:type
           rdf:resource="http://purl.org/dc/dcmitype/StillImage" />
        <dc:title />
      </cc:Work>
    </rdf:RDF>
  </metadata>
  <sodipodi:namedview
     pagecolor="#ffffff"
     bordercolor="#666666"
     borderopacity="1"
     objecttolerance="10"
     gridtolerance="10"
     guidetolerance="10"
     inkscape:pageopacity="0"
     inkscape:pageshadow="2"
     inkscape:window-width="1920"
     inkscape:window-height="1057"
     id="namedview9"
     showgrid="false"
     inkscape:zoom="1.7671995"
     inkscape:cx="-5.5524005"
     inkscape:cy="-38.881049"
     inkscape:window-x="1072"
     inkscape:window-y="266"
     inkscape:window-maximized="1"
     inkscape:current-layer="svg7" />
  <defs
     id="defs4">
    <style
       id="style2">
      .cls-1 {
        fill: #101010;
        fill-rule: evenodd;
      }
    </style>
  </defs>
  <path
     id="_3-dots-ver"
     data-name="3-dots-ver"
     class="cls-1"
     d="M 37.5,49.999999 A 12.5,12.5 0 1 1 50.000001,62.500001 12.5,12.5 0 0 1 37.5,49.999999 Z m 16.666667,0 a 4.166667,4.166667 0 1 0 -4.166666,4.166668 4.166667,4.166667 0 0 0 4.166666,-4.166668 z m 20.833335,0 A 12.5,12.5 0 1 1 87.500004,62.500001 12.5,12.5 0 0 1 75.000002,49.999999 Z m 16.666667,0 a 4.166667,4.166667 0 1 0 -4.166665,4.166668 4.166667,4.166667 0 0 0 4.166665,-4.166668 z m -66.66667,0 a 12.5,12.5 0 1 1 -12.500001,-12.5 12.5,12.5 0 0 1 12.500001,12.5 z m -16.6666675,0 a 4.166667,4.166667 0 1 0 4.1666665,-4.166666 4.166667,4.166667 0 0 0 -4.1666665,4.166666 z"
     inkscape:connector-curvature="0"
     style="fill:#e9dbcc;fill-opacity:1;fill-rule:evenodd;stroke-width:1" />
</svg>
