<?xml version="1.0" encoding="UTF-8" standalone="no"?>
<svg
   xmlns:dc="http://purl.org/dc/elements/1.1/"
   xmlns:cc="http://creativecommons.org/ns#"
   xmlns:rdf="http://www.w3.org/1999/02/22-rdf-syntax-ns#"
   xmlns:svg="http://www.w3.org/2000/svg"
   xmlns="http://www.w3.org/2000/svg"
   xmlns:sodipodi="http://sodipodi.sourceforge.net/DTD/sodipodi-0.dtd"
   xmlns:inkscape="http://www.inkscape.org/namespaces/inkscape"
   width="100"
   height="100"
   viewBox="0 0 100 100"
   version="1.1"
   id="svg4"
   sodipodi:docname="checkmark.svg"
   style="fill:none"
   inkscape:version="0.92.3 (2405546, 2018-03-11)">
  <metadata
     id="metadata10">
    <rdf:RDF>
      <cc:Work
         rdf:about="">
        <dc:format>image/svg+xml</dc:format>
        <dc:type
           rdf:resource="http://purl.org/dc/dcmitype/StillImage" />
        <dc:title></dc:title>
      </cc:Work>
    </rdf:RDF>
  </metadata>
  <defs
     id="defs8" />
  <sodipodi:namedview
     pagecolor="#ffffff"
     bordercolor="#666666"
     borderopacity="1"
     objecttolerance="10"
     gridtolerance="10"
     guidetolerance="10"
     inkscape:pageopacity="0"
     inkscape:pageshadow="2"
     inkscape:window-width="1366"
     inkscape:window-height="745"
     id="namedview6"
     showgrid="false"
     inkscape:zoom="2.8771931"
     inkscape:cx="23.054773"
     inkscape:cy="29.814386"
     inkscape:window-x="-8"
     inkscape:window-y="-8"
     inkscape:window-maximized="1"
     inkscape:current-layer="svg4" />
  <path
     d="M 50.040688,98.333145 C 42.883376,98.344148 35.80673,96.867483 29.290616,94.002491 22.774402,91.137833 16.970352,86.951845 12.271799,81.728527 7.5732128,76.504876 4.089723,70.365561 2.0570256,63.726247 0.02434649,57.086933 -0.50998351,50.10262 0.49017689,43.245974 1.4903406,36.38966 4.0018566,29.82108 7.8543119,23.98523 11.706768,18.149381 16.810186,13.182395 22.819435,9.4207063 28.828684,5.6590509 35.603731,3.1905148 42.68471,2.1820978 49.766023,1.1736807 56.988001,1.648966 63.862981,3.5758603 l -4.49632,7.2016087 C 50.949352,8.9058743 42.139045,9.6130723 34.155735,12.801063 26.172525,15.989087 19.411212,21.500004 14.809358,28.57055 10.207472,35.640996 7.9926782,43.921305 8.4713101,52.263947 c 0.478632,8.342309 3.6273229,16.334619 9.0097739,22.868933 5.382418,6.534648 12.732263,11.287634 21.031305,13.601293 8.298976,2.313994 17.136283,2.073328 25.287592,-0.687998 8.15131,-2.761325 15.213622,-7.906643 20.207941,-14.72329 4.994319,-6.81698 7.673311,-14.967622 7.666644,-23.322931 C 91.6749,45.394301 90.843569,40.823647 89.21824,36.49466 l 5.287318,-8.490375 c 3.901655,7.365712 5.781312,15.577354 5.458984,23.847997 -0.322332,8.270642 -2.836325,16.321952 -7.299979,23.382598 -4.463987,7.060312 -10.728301,12.892629 -18.191946,16.937283 -7.463645,4.044655 -15.87662,6.166315 -24.431929,6.160982 z m 3.830656,-34.763898 c -0.188666,0.537999 -0.502332,1.027331 -0.916331,1.429996 -0.387999,0.378999 -0.858331,0.669331 -1.376662,0.849664 -0.518666,0.180333 -1.072331,0.246666 -1.620996,0.193666 -0.86533,0.05833 -1.725328,-0.171666 -2.437326,-0.651331 -0.711998,-0.479999 -1.232663,-1.180997 -1.475995,-1.986994 L 30.13988,48.026293 c -0.633765,-0.690998 -0.97103,-1.589995 -0.942764,-2.513326 0.02827,-0.923331 0.420299,-1.801328 1.09523,-2.454993 0.674898,-0.653331 1.582096,-1.032997 2.536526,-1.060997 0.954531,-0.028 1.883861,0.297666 2.598526,0.909998 L 48.958358,56.00127 79.725601,11.800533 c 0.266666,-0.471966 0.628332,-0.887498 1.063664,-1.222064 0.435332,-0.334565 0.93533,-0.5813977 1.470996,-0.7259307 0.535331,-0.144533 1.095663,-0.183799 1.646995,-0.115566 0.551331,0.06823 1.082997,0.242666 1.563662,0.5129317 0.966997,0.577065 1.663995,1.495195 1.943661,2.560259 0.279666,1.065097 0.119999,2.193627 -0.444666,3.147057 z"
     id="path2"
     inkscape:connector-curvature="0"
     style="clip-rule:evenodd;fill:#73eda6;fill-opacity:0.7;fill-rule:evenodd;stroke-width:3.33332348" />
</svg>
