<?xml version="1.0" encoding="UTF-8" standalone="no"?>
<svg
   xmlns:dc="http://purl.org/dc/elements/1.1/"
   xmlns:cc="http://creativecommons.org/ns#"
   xmlns:rdf="http://www.w3.org/1999/02/22-rdf-syntax-ns#"
   xmlns:svg="http://www.w3.org/2000/svg"
   xmlns="http://www.w3.org/2000/svg"
   xmlns:sodipodi="http://sodipodi.sourceforge.net/DTD/sodipodi-0.dtd"
   xmlns:inkscape="http://www.inkscape.org/namespaces/inkscape"
   width="100"
   height="100"
   viewBox="0 0 100 100"
   version="1.1"
   id="svg7"
   sodipodi:docname="wallet.svg"
   inkscape:version="0.92.1 r15371">
  <metadata
     id="metadata11">
    <rdf:RDF>
      <cc:Work
         rdf:about="">
        <dc:format>image/svg+xml</dc:format>
        <dc:type
           rdf:resource="http://purl.org/dc/dcmitype/StillImage" />
        <dc:title></dc:title>
      </cc:Work>
    </rdf:RDF>
  </metadata>
  <sodipodi:namedview
     pagecolor="#ffffff"
     bordercolor="#666666"
     borderopacity="1"
     objecttolerance="10"
     gridtolerance="10"
     guidetolerance="10"
     inkscape:pageopacity="0"
     inkscape:pageshadow="2"
     inkscape:window-width="1920"
     inkscape:window-height="1057"
     id="namedview9"
     showgrid="false"
     inkscape:zoom="3.0747036"
     inkscape:cx="34.790499"
     inkscape:cy="29.302669"
     inkscape:window-x="-8"
     inkscape:window-y="-8"
     inkscape:window-maximized="1"
     inkscape:current-layer="svg7" />
  <defs
     id="defs4">
    <style
       id="style2">
      .cls-1 {
        fill-rule: evenodd;
      }
    </style>
  </defs>
  <path
     id="wallet"
     class="cls-1"
     d="M 91.56254,95.718794 H 8.43746 A 8.312508,8.312508 0 0 1 0.124952,87.406286 V 12.593714 A 8.312508,8.312508 0 0 1 8.43746,4.281206 h 66.500064 a 8.312508,8.312508 0 0 1 8.312508,8.312508 v 8.312508 h 8.312508 a 8.312508,8.312508 0 0 1 8.312508,8.312508 V 87.406286 A 8.312508,8.312508 0 0 1 91.56254,95.718794 Z M 74.937524,12.593714 H 8.43746 v 8.312508 H 74.937524 Z M 91.56254,29.21873 H 8.43746 V 87.406286 H 91.56254 Z M 70.78127,45.843746 A 12.468762,12.468762 0 1 1 58.312508,58.312508 12.468762,12.468762 0 0 1 70.78127,45.843746 Z m 0,16.625016 a 4.156254,4.156254 0 1 0 -4.156254,-4.156254 4.156254,4.156254 0 0 0 4.156254,4.156254 z"
     inkscape:connector-curvature="0"
     style="fill-rule:evenodd;stroke-width:1;fill:#ffcd44;fill-opacity:0.3137255" />
</svg>
