<?xml version="1.0" encoding="iso-8859-1"?>
<!-- Generator: Adobe Illustrator 19.0.0, SVG Export Plug-In . SVG Version: 6.00 Build 0)  -->
<svg version="1.1" id="Capa_1" xmlns="http://www.w3.org/2000/svg" xmlns:xlink="http://www.w3.org/1999/xlink" x="0px" y="0px"
	 viewBox="0 0 512 512" style="enable-background:new 0 0 512 512;" xml:space="preserve">
<g>
	<g>
		<path d="M482,106h-22V96c0-16.542-13.458-30-30-30H30C13.458,66,0,79.458,0,96v280c0,16.542,13.458,30,30,30h10v10
			c0,16.542,13.458,30,30,30h412c16.542,0,30-13.458,30-30V136C512,119.458,498.542,106,482,106z M20,96c0-5.514,4.486-10,10-10h400
			c5.514,0,10,4.486,10,10v30H20V96z M20,146h420v40H20V146z M30,386c-5.514,0-10-4.486-10-10V206h420v170c0,5.514-4.486,10-10,10
			H30z M492,416c0,5.514-4.486,10-10,10H70c-5.514,0-10-4.486-10-10v-10h370c16.542,0,30-13.458,30-30V126h22
			c5.514,0,10,4.486,10,10V416z"/>
	</g>
</g>
<g>
	<g>
		<path d="M110,246H70c-5.522,0-10,4.478-10,10c0,5.522,4.478,10,10,10h40c5.522,0,10-4.478,10-10C120,250.478,115.522,246,110,246z
			"/>
	</g>
</g>
<g>
	<g>
		<path d="M190,246h-40c-5.522,0-10,4.478-10,10c0,5.522,4.478,10,10,10h40c5.522,0,10-4.478,10-10C200,250.478,195.522,246,190,246
			z"/>
	</g>
</g>
<g>
	<g>
		<path d="M150,306H70c-5.522,0-10,4.478-10,10c0,5.522,4.478,10,10,10h80c5.522,0,10-4.478,10-10C160,310.478,155.522,306,150,306z
			"/>
	</g>
</g>
<g>
	<g>
		<path d="M350,246c-10.903,0-21.415,3.577-30.005,10.019C311.414,249.577,300.905,246,290,246c-27.57,0-50,22.43-50,50
			s22.43,50,50,50c10.908,0,21.418-3.578,29.996-10.018C328.586,342.423,339.098,346,350,346c27.57,0,50-22.43,50-50
			S377.57,246,350,246z M312.486,315.84C306.799,322.297,298.603,326,290,326c-16.542,0-30-13.458-30-30s13.458-30,30-30
			c8.603,0,16.799,3.703,22.486,10.16c0.004,0.004,0.007,0.008,0.011,0.012C317.335,281.647,320,288.689,320,296
			C320,303.311,317.335,310.353,312.486,315.84z M350,326c-5.989,0-11.783-1.8-16.677-5.072c4.34-7.532,6.677-16.11,6.677-24.928
			s-2.336-17.396-6.677-24.928C338.217,267.8,344.011,266,350,266c16.542,0,30,13.458,30,30S366.542,326,350,326z"/>
	</g>
</g>
<g>
</g>
<g>
</g>
<g>
</g>
<g>
</g>
<g>
</g>
<g>
</g>
<g>
</g>
<g>
</g>
<g>
</g>
<g>
</g>
<g>
</g>
<g>
</g>
<g>
</g>
<g>
</g>
<g>
</g>
</svg>
