<?xml version="1.0" encoding="UTF-8" standalone="no"?>
<!-- Generator: Adobe Illustrator 19.0.0, SVG Export Plug-In . SVG Version: 6.00 Build 0)  -->

<svg
   xmlns:dc="http://purl.org/dc/elements/1.1/"
   xmlns:cc="http://creativecommons.org/ns#"
   xmlns:rdf="http://www.w3.org/1999/02/22-rdf-syntax-ns#"
   xmlns:svg="http://www.w3.org/2000/svg"
   xmlns="http://www.w3.org/2000/svg"
   xmlns:sodipodi="http://sodipodi.sourceforge.net/DTD/sodipodi-0.dtd"
   xmlns:inkscape="http://www.inkscape.org/namespaces/inkscape"
   version="1.1"
   id="Capa_1"
   x="0px"
   y="0px"
   viewBox="0 0 100 100"
   xml:space="preserve"
   sodipodi:docname="credit-card-bare.svg"
   width="100"
   height="100"
   inkscape:version="0.92.3 (2405546, 2018-03-11)"><metadata
   id="metadata67"><rdf:RDF><cc:Work
       rdf:about=""><dc:format>image/svg+xml</dc:format><dc:type
         rdf:resource="http://purl.org/dc/dcmitype/StillImage" /><dc:title></dc:title></cc:Work></rdf:RDF></metadata><defs
   id="defs65" /><sodipodi:namedview
   pagecolor="#ffffff"
   bordercolor="#666666"
   borderopacity="1"
   objecttolerance="10"
   gridtolerance="10"
   guidetolerance="10"
   inkscape:pageopacity="0"
   inkscape:pageshadow="2"
   inkscape:window-width="1366"
   inkscape:window-height="745"
   id="namedview63"
   showgrid="false"
   inkscape:pagecheckerboard="true"
   inkscape:zoom="3.6875"
   inkscape:cx="17.024659"
   inkscape:cy="58.753263"
   inkscape:window-x="-8"
   inkscape:window-y="190"
   inkscape:window-maximized="1"
   inkscape:current-layer="g4" />
<g
   id="g6"
   transform="matrix(0.1851918,0,0,0.1851918,2.5908992,2.5908992)">
	<g
   id="g4">
		<path
   d="M 482,106 H 460 V 96 C 460,79.458 446.542,66 430,66 H 30 C 13.458,66 0,79.458 0,96 v 280 c 0,16.542 13.458,30 30,30 h 10 v 10 c 0,16.542 13.458,30 30,30 h 412 c 16.542,0 30,-13.458 30,-30 V 136 c 0,-16.542 -13.458,-30 -30,-30 z M 20,96 c 0,-5.514 4.486,-10 10,-10 h 400 c 5.514,0 10,4.486 10,10 v 30 H 20 Z m 0,50 h 420 v 40 H 20 Z m 10,240 c -5.514,0 -10,-4.486 -10,-10 V 206 h 420 v 170 c 0,5.514 -4.486,10 -10,10 z m 462,30 c 0,5.514 -4.486,10 -10,10 H 70 c -5.514,0 -10,-4.486 -10,-10 v -10 h 370 c 16.542,0 30,-13.458 30,-30 V 126 h 22 c 5.514,0 10,4.486 10,10 z"
   id="path2"
   inkscape:connector-curvature="0"
   sodipodi:nodetypes="scsssssscssssssssssccscccccssccssssssscsscsss"
   style="fill:#ffffff;fill-opacity:1" />
	</g>
</g>




<g
   id="g32"
   transform="translate(0,-412)">
</g>
<g
   id="g34"
   transform="translate(0,-412)">
</g>
<g
   id="g36"
   transform="translate(0,-412)">
</g>
<g
   id="g38"
   transform="translate(0,-412)">
</g>
<g
   id="g40"
   transform="translate(0,-412)">
</g>
<g
   id="g42"
   transform="translate(0,-412)">
</g>
<g
   id="g44"
   transform="translate(0,-412)">
</g>
<g
   id="g46"
   transform="translate(0,-412)">
</g>
<g
   id="g48"
   transform="translate(0,-412)">
</g>
<g
   id="g50"
   transform="translate(0,-412)">
</g>
<g
   id="g52"
   transform="translate(0,-412)">
</g>
<g
   id="g54"
   transform="translate(0,-412)">
</g>
<g
   id="g56"
   transform="translate(0,-412)">
</g>
<g
   id="g58"
   transform="translate(0,-412)">
</g>
<g
   id="g60"
   transform="translate(0,-412)">
</g>
</svg>