<?xml version="1.0" encoding="UTF-8" standalone="no"?>
<!-- Generator: Adobe Illustrator 19.0.0, SVG Export Plug-In . SVG Version: 6.00 Build 0)  -->

<svg
   xmlns:dc="http://purl.org/dc/elements/1.1/"
   xmlns:cc="http://creativecommons.org/ns#"
   xmlns:rdf="http://www.w3.org/1999/02/22-rdf-syntax-ns#"
   xmlns:svg="http://www.w3.org/2000/svg"
   xmlns="http://www.w3.org/2000/svg"
   xmlns:sodipodi="http://sodipodi.sourceforge.net/DTD/sodipodi-0.dtd"
   xmlns:inkscape="http://www.inkscape.org/namespaces/inkscape"
   version="1.1"
   id="Capa_1"
   x="0px"
   y="0px"
   viewBox="0 0 512 512"
   style="enable-background:new 0 0 512 512;"
   xml:space="preserve"
   width="512px"
   height="512px"
   sodipodi:docname="credit-card.svg"
   inkscape:version="0.92.1 r15371"><metadata
     id="metadata67"><rdf:RDF><cc:Work
         rdf:about=""><dc:format>image/svg+xml</dc:format><dc:type
           rdf:resource="http://purl.org/dc/dcmitype/StillImage" /></cc:Work></rdf:RDF></metadata><defs
     id="defs65" /><sodipodi:namedview
     pagecolor="#ffffff"
     bordercolor="#666666"
     borderopacity="1"
     objecttolerance="10"
     gridtolerance="10"
     guidetolerance="10"
     inkscape:pageopacity="0"
     inkscape:pageshadow="2"
     inkscape:window-width="1920"
     inkscape:window-height="1057"
     id="namedview63"
     showgrid="false"
     inkscape:zoom="0.52846468"
     inkscape:cx="-473.53586"
     inkscape:cy="681.66842"
     inkscape:window-x="1912"
     inkscape:window-y="-8"
     inkscape:window-maximized="1"
     inkscape:current-layer="g4" /><g
     id="g6"><g
       id="g4"><path
         d="M 482,106 H 460 V 96 C 460,79.458 446.542,66 430,66 H 30 C 13.458,66 0,79.458 0,96 v 280 c 0,16.542 13.458,30 30,30 h 10 v 10 c 0,16.542 13.458,30 30,30 h 412 c 16.542,0 30,-13.458 30,-30 V 136 c 0,-16.542 -13.458,-30 -30,-30 z M 20,96 c 0,-5.514 4.486,-10 10,-10 h 400 c 5.514,0 10,4.486 10,10 v 30 H 20 Z m 0,50 h 420 v 40 H 20 Z m 10,240 c -5.514,0 -10,-4.486 -10,-10 V 206 h 420 v 170 c 0,5.514 -4.486,10 -10,10 z m 462,30 c 0,5.514 -4.486,10 -10,10 H 70 c -5.514,0 -10,-4.486 -10,-10 v -10 h 370 c 16.542,0 30,-13.458 30,-30 V 126 h 22 c 5.514,0 10,4.486 10,10 z"
         id="path2"
         inkscape:connector-curvature="0"
         style="fill:#354957" /><path
         style="opacity:1;vector-effect:none;fill:#81e776;fill-opacity:1;stroke:none;stroke-width:1.00157475;stroke-linecap:round;stroke-linejoin:round;stroke-miterlimit:4;stroke-dasharray:none;stroke-dashoffset:0;stroke-opacity:1"
         d="m 19.808755,110.36251 c 0,-17.72883 0.858667,-21.000131 6.085451,-23.184021 2.875282,-1.20137 29.964043,-1.38496 204.163114,-1.383685 189.3257,0.0014 201.03719,0.09637 204.14629,1.65574 5.16693,2.591471 5.66046,4.524576 5.67604,22.232746 l 0.0139,15.8478 H 229.85118 19.808755 Z"
         id="path4550"
         inkscape:connector-curvature="0" /><path
         style="opacity:1;vector-effect:none;fill:#81e776;fill-opacity:1;stroke:none;stroke-width:1.00157475;stroke-linecap:round;stroke-linejoin:round;stroke-miterlimit:4;stroke-dasharray:none;stroke-dashoffset:0;stroke-opacity:1"
         d="m 24.650018,384.17592 c -4.950878,-3.46774 -4.841263,-1.36113 -4.841263,-93.04046 V 205.95274 H 229.85118 439.8936 v 86.66615 86.66615 l -3.21687,3.21687 -3.21686,3.21686 H 230.15631 c -186.424688,0 -203.486431,-0.12808 -205.506292,-1.54285 z M 302.22714,344.52297 c 3.0788,-0.80191 8.42075,-2.98277 11.87101,-4.84634 l 6.27321,-3.3883 3.7037,2.45099 c 9.47926,6.27308 25.72071,8.84931 37.28916,5.91483 9.33007,-2.36669 15.65289,-5.86868 22.84427,-12.65268 20.64503,-19.47547 21.0454,-51.15533 0.90043,-71.24779 -7.3089,-7.28985 -15.25049,-11.54472 -25.63697,-13.73551 -11.51927,-2.42974 -25.50491,0.007 -35.14586,6.12465 l -4.3964,2.78953 -3.5828,-2.43457 c -4.84005,-3.2889 -14.67276,-6.61815 -21.80068,-7.38149 -23.01543,-2.46474 -46.91327,14.23624 -52.81983,36.91309 -2.06356,7.92254 -1.89357,19.74398 0.39021,27.1353 7.90548,25.58559 34.79131,40.95312 60.11055,34.35829 z m -145.60697,-21.6277 c 4.36374,-4.36373 4.54029,-9.79732 0.45123,-13.88637 l -2.76562,-2.76564 h -43.85764 c -48.722751,0 -46.874954,-0.2366 -49.628966,6.35468 -1.841092,4.40635 -0.284385,9.20593 3.792097,11.69162 2.819651,1.71932 5.250786,1.81569 45.884719,1.81904 l 42.90731,0.004 3.21687,-3.21687 z m -43.80423,-57.39924 c 3.90434,-1.0842 7.27353,-5.34601 7.2798,-9.20848 0.006,-3.37537 -2.58419,-7.58042 -5.64231,-9.16184 -4.14574,-2.14384 -44.238223,-2.09691 -48.777464,0.0571 -3.84059,1.82248 -6.350341,6.62809 -5.550403,10.62779 0.629195,3.14597 4.501746,7.30753 7.463112,8.02009 3.838031,0.9235 41.705525,0.6433 45.227265,-0.33465 z m 80.56576,-0.3307 c 8.19644,-3.42469 8.76761,-14.30119 0.94592,-18.01282 -2.50065,-1.18664 -7.17111,-1.46202 -24.79575,-1.46202 -21.04451,0 -21.81402,0.0667 -24.92965,2.16063 -6.71728,4.51452 -5.53629,14.85065 1.9902,17.41831 5.04674,1.7217 42.6196,1.6381 46.78928,-0.1041 z"
         id="path4552"
         inkscape:connector-curvature="0" /><path
         style="opacity:1;vector-effect:none;fill:#812dff;fill-opacity:1;stroke:none;stroke-width:1.00157475;stroke-linecap:round;stroke-linejoin:round;stroke-miterlimit:4;stroke-dasharray:none;stroke-dashoffset:0;stroke-opacity:1"
         d="m 63.258279,422.69089 c -2.534445,-2.53444 -2.765632,-3.324 -2.765632,-9.44541 v -6.67979 l 188.044733,-0.25248 188.04474,-0.25249 5.41222,-2.53669 c 7.08858,-3.32238 13.33852,-9.82157 15.81816,-16.449 1.93383,-5.16865 1.94998,-6.2688 1.94998,-132.90479 V 126.47723 l 13.00938,0.021 c 13.90074,0.0225 15.63705,0.53631 18.1024,5.35705 0.76454,1.49497 1.05687,41.35304 1.05687,144.09635 0,153.10603 0.22679,145.90557 -4.67827,148.53069 -1.23275,0.65974 -69.50602,0.97418 -211.52462,0.97418 H 66.02391 Z"
         id="path4554"
         inkscape:connector-curvature="0" /><path
         style="opacity:1;vector-effect:none;fill:#ff2d26;fill-opacity:0.82325583;stroke:none;stroke-width:1.00157475;stroke-linecap:round;stroke-linejoin:round;stroke-miterlimit:4;stroke-dasharray:none;stroke-dashoffset:0;stroke-opacity:1"
         d="m 282.768,324.87045 c -23.31631,-6.56728 -30.26887,-34.57975 -12.59222,-50.73521 6.49612,-5.93708 12.29807,-7.95528 21.48238,-7.47258 8.08059,0.42469 13.95716,2.97706 19.41076,8.43066 6.07604,6.07604 8.14162,11.32093 8.16891,20.74244 0.02,6.91411 -0.34698,8.79618 -2.61651,13.41774 -1.45189,2.95656 -4.19991,6.74537 -6.10672,8.41956 -7.53879,6.61915 -19.12717,9.62514 -27.7466,7.19739 z"
         id="path4556"
         inkscape:connector-curvature="0" /><path
         style="opacity:1;vector-effect:none;fill:#ffd026;fill-opacity:0.7069768;stroke:none;stroke-width:1.00157475;stroke-linecap:round;stroke-linejoin:round;stroke-miterlimit:4;stroke-dasharray:none;stroke-dashoffset:0;stroke-opacity:1"
         d="m 343.12034,325.13473 c -6.03015,-1.51323 -9.43914,-3.66319 -8.67796,-5.47297 6.21572,-14.77841 7.09985,-26.9572 2.83484,-39.04971 -1.35994,-3.85578 -2.70255,-7.68927 -2.98359,-8.51885 -0.37733,-1.11382 0.79521,-2.07026 4.48282,-3.65662 7.1952,-3.09529 18.13692,-2.49559 25.26651,1.38482 12.85023,6.99397 18.63827,22.09202 13.91773,36.30424 -2.05801,6.1961 -8.67732,13.5372 -14.98556,16.61963 -5.55707,2.71539 -14.34262,3.7727 -19.85479,2.38946 z"
         id="path4558"
         inkscape:connector-curvature="0" /><path
         style="opacity:1;vector-effect:none;fill:#000200;fill-opacity:0.70232558;stroke:none;stroke-width:1.00157475;stroke-linecap:round;stroke-linejoin:round;stroke-miterlimit:4;stroke-dasharray:none;stroke-dashoffset:0;stroke-opacity:1"
         d="M 19.808755,166.21498 V 146.3461 H 229.85118 439.8936 v 19.86888 19.86888 H 229.85118 19.808755 Z"
         id="path4560"
         inkscape:connector-curvature="0" /></g></g><g
     id="g12"><g
       id="g10"><path
         d="M110,246H70c-5.522,0-10,4.478-10,10c0,5.522,4.478,10,10,10h40c5.522,0,10-4.478,10-10C120,250.478,115.522,246,110,246z    "
         fill="#354957"
         id="path8" /></g></g><g
     id="g18"><g
       id="g16"><path
         d="M190,246h-40c-5.522,0-10,4.478-10,10c0,5.522,4.478,10,10,10h40c5.522,0,10-4.478,10-10C200,250.478,195.522,246,190,246    z"
         fill="#354957"
         id="path14" /></g></g><g
     id="g24"><g
       id="g22"><path
         d="M150,306H70c-5.522,0-10,4.478-10,10c0,5.522,4.478,10,10,10h80c5.522,0,10-4.478,10-10C160,310.478,155.522,306,150,306z    "
         fill="#354957"
         id="path20" /></g></g><g
     id="g30"><g
       id="g28"><path
         d="M350,246c-10.903,0-21.415,3.577-30.005,10.019C311.414,249.577,300.905,246,290,246c-27.57,0-50,22.43-50,50    s22.43,50,50,50c10.908,0,21.418-3.578,29.996-10.018C328.586,342.423,339.098,346,350,346c27.57,0,50-22.43,50-50    S377.57,246,350,246z M312.486,315.84C306.799,322.297,298.603,326,290,326c-16.542,0-30-13.458-30-30s13.458-30,30-30    c8.603,0,16.799,3.703,22.486,10.16c0.004,0.004,0.007,0.008,0.011,0.012C317.335,281.647,320,288.689,320,296    C320,303.311,317.335,310.353,312.486,315.84z M350,326c-5.989,0-11.783-1.8-16.677-5.072c4.34-7.532,6.677-16.11,6.677-24.928    s-2.336-17.396-6.677-24.928C338.217,267.8,344.011,266,350,266c16.542,0,30,13.458,30,30S366.542,326,350,326z"
         fill="#354957"
         id="path26" /></g></g><g
     id="g32" /><g
     id="g34" /><g
     id="g36" /><g
     id="g38" /><g
     id="g40" /><g
     id="g42" /><g
     id="g44" /><g
     id="g46" /><g
     id="g48" /><g
     id="g50" /><g
     id="g52" /><g
     id="g54" /><g
     id="g56" /><g
     id="g58" /><g
     id="g60" /></svg>