<?xml version="1.0" encoding="UTF-8" standalone="no"?>
<!-- Generator: Adobe Illustrator 19.0.0, SVG Export Plug-In . SVG Version: 6.00 Build 0)  -->

<svg
   xmlns:dc="http://purl.org/dc/elements/1.1/"
   xmlns:cc="http://creativecommons.org/ns#"
   xmlns:rdf="http://www.w3.org/1999/02/22-rdf-syntax-ns#"
   xmlns:svg="http://www.w3.org/2000/svg"
   xmlns="http://www.w3.org/2000/svg"
   xmlns:sodipodi="http://sodipodi.sourceforge.net/DTD/sodipodi-0.dtd"
   xmlns:inkscape="http://www.inkscape.org/namespaces/inkscape"
   version="1.1"
   id="Capa_1"
   x="0px"
   y="0px"
   viewBox="0 0 512.001 512.001"
   style="enable-background:new 0 0 512.001 512.001;"
   xml:space="preserve"
   sodipodi:docname="cube3.svg"
   inkscape:version="0.92.3 (2405546, 2018-03-11)"><metadata
   id="metadata79"><rdf:RDF><cc:Work
       rdf:about=""><dc:format>image/svg+xml</dc:format><dc:type
         rdf:resource="http://purl.org/dc/dcmitype/StillImage" /></cc:Work></rdf:RDF></metadata><defs
   id="defs77" /><sodipodi:namedview
   pagecolor="#ffffff"
   bordercolor="#666666"
   borderopacity="1"
   objecttolerance="10"
   gridtolerance="10"
   guidetolerance="10"
   inkscape:pageopacity="0"
   inkscape:pageshadow="2"
   inkscape:window-width="1366"
   inkscape:window-height="745"
   id="namedview75"
   showgrid="false"
   inkscape:zoom="0.32593141"
   inkscape:cx="-110.85228"
   inkscape:cy="212.90143"
   inkscape:window-x="-8"
   inkscape:window-y="-8"
   inkscape:window-maximized="1"
   inkscape:current-layer="Capa_1" />
<g
   id="g6">
	<g
   id="g4">
		<path
   d="M379.129,71.338c-0.021-0.154-0.063-0.302-0.091-0.454c-0.051-0.28-0.097-0.562-0.171-0.835    c-0.048-0.175-0.117-0.342-0.174-0.514c-0.08-0.242-0.153-0.486-0.25-0.72c-0.074-0.176-0.168-0.342-0.251-0.513    c-0.107-0.219-0.206-0.441-0.328-0.651c-0.097-0.167-0.212-0.322-0.319-0.483c-0.133-0.201-0.26-0.405-0.407-0.597    c-0.119-0.154-0.254-0.294-0.381-0.442c-0.158-0.182-0.311-0.368-0.482-0.538c-0.139-0.138-0.292-0.262-0.439-0.392    c-0.182-0.161-0.359-0.325-0.554-0.473c-0.157-0.12-0.327-0.224-0.492-0.336c-0.165-0.111-0.321-0.235-0.494-0.337    c-0.042-0.024-0.086-0.04-0.128-0.064c-0.037-0.021-0.07-0.048-0.108-0.069L260.845,1.251c-3.014-1.668-6.673-1.668-9.686,0    L137.943,63.919c-0.038,0.021-0.07,0.048-0.108,0.07c-0.042,0.024-0.086,0.04-0.128,0.064c-0.174,0.103-0.33,0.226-0.496,0.338    c-0.164,0.11-0.333,0.214-0.489,0.333c-0.196,0.15-0.376,0.316-0.56,0.479c-0.145,0.129-0.296,0.25-0.432,0.387    c-0.174,0.174-0.33,0.362-0.49,0.547c-0.125,0.144-0.257,0.282-0.373,0.433c-0.15,0.195-0.279,0.403-0.414,0.608    c-0.104,0.158-0.217,0.309-0.312,0.472c-0.124,0.214-0.226,0.439-0.334,0.662c-0.082,0.168-0.174,0.33-0.246,0.503    c-0.099,0.237-0.173,0.484-0.254,0.729c-0.056,0.169-0.124,0.332-0.171,0.504c-0.075,0.275-0.121,0.558-0.172,0.839    c-0.027,0.151-0.069,0.298-0.09,0.451c-0.059,0.438-0.09,0.882-0.09,1.33v134.79c0,3.638,1.975,6.987,5.157,8.749l113.216,62.668    c0.178,0.099,0.365,0.172,0.547,0.259c0.173,0.083,0.342,0.173,0.518,0.245c0.243,0.099,0.492,0.175,0.74,0.254    c0.164,0.052,0.324,0.115,0.49,0.159c0.281,0.074,0.566,0.122,0.85,0.171c0.139,0.024,0.275,0.061,0.415,0.079    c0.426,0.055,0.854,0.085,1.282,0.085s0.857-0.03,1.282-0.085c0.138-0.018,0.274-0.055,0.411-0.078    c0.29-0.05,0.576-0.098,0.858-0.172c0.165-0.043,0.324-0.106,0.487-0.158c0.249-0.08,0.499-0.155,0.743-0.255    c0.176-0.072,0.345-0.163,0.517-0.245c0.183-0.087,0.37-0.16,0.548-0.259l113.217-62.668c3.183-1.762,5.157-5.111,5.157-8.749    V72.668C379.219,72.219,379.188,71.776,379.129,71.338z M246.002,253.161l-16.058-8.888v-53.438c0-5.523-4.477-10-10-10    s-10,4.477-10,10v42.367l-57.159-31.639V89.633h0.001l93.216,51.597V253.161z M256.002,123.906l-92.567-51.238l92.567-51.238    l92.567,51.238L256.002,123.906z M359.219,201.564l-93.217,51.597V141.23l16.058-8.888v44.039c0,5.522,4.478,10,10,10    c5.523,0,10-4.478,10-10v-55.109l57.159-31.639V201.564z"
   id="path2" />
	</g>
</g>
<g
   id="g12">
	<g
   id="g10">
		<path
   d="M229.752,151.06c-0.13-0.64-0.32-1.27-0.57-1.87c-0.25-0.6-0.56-1.18-0.92-1.729c-0.37-0.54-0.78-1.061-1.24-1.521    c-0.47-0.46-0.98-0.88-1.53-1.239c-0.54-0.36-1.12-0.671-1.72-0.921c-0.61-0.25-1.24-0.439-1.87-0.569    c-1.29-0.26-2.62-0.26-3.91,0c-0.64,0.13-1.27,0.319-1.87,0.569c-0.61,0.25-1.19,0.561-1.73,0.921    c-0.55,0.359-1.06,0.779-1.52,1.239c-0.46,0.46-0.88,0.98-1.24,1.521c-0.36,0.55-0.67,1.13-0.92,1.729    c-0.25,0.6-0.44,1.23-0.57,1.87c-0.13,0.641-0.2,1.3-0.2,1.95c0,0.65,0.07,1.31,0.2,1.96c0.13,0.639,0.32,1.26,0.57,1.87    c0.25,0.6,0.56,1.18,0.92,1.72c0.36,0.55,0.78,1.061,1.24,1.52c0.46,0.46,0.97,0.88,1.52,1.25c0.54,0.359,1.12,0.67,1.73,0.92    c0.6,0.25,1.23,0.439,1.87,0.569c0.64,0.131,1.3,0.19,1.95,0.19c0.65,0,1.31-0.06,1.96-0.19c0.63-0.13,1.26-0.319,1.87-0.569    c0.6-0.25,1.18-0.561,1.72-0.92c0.55-0.37,1.06-0.79,1.52-1.25c0.46-0.46,0.88-0.971,1.25-1.52c0.36-0.54,0.67-1.12,0.92-1.72    c0.25-0.61,0.44-1.23,0.57-1.87c0.13-0.65,0.19-1.309,0.19-1.96C229.942,152.36,229.882,151.7,229.752,151.06z"
   id="path8" />
	</g>
</g>
<g
   id="g18">
	<g
   id="g16">
		<path
   d="M301.862,212.251c-0.131-0.642-0.32-1.271-0.57-1.871c-0.25-0.61-0.561-1.19-0.92-1.73c-0.36-0.55-0.78-1.06-1.24-1.52    c-0.46-0.46-0.97-0.88-1.521-1.24c-0.54-0.36-1.119-0.67-1.73-0.92c-0.6-0.25-1.23-0.44-1.87-0.57c-3.25-0.659-6.7,0.41-9.02,2.73    c-0.471,0.46-0.881,0.97-1.25,1.52c-0.36,0.54-0.671,1.12-0.921,1.73c-0.25,0.6-0.439,1.23-0.569,1.87    c-0.13,0.64-0.19,1.3-0.19,1.95c0,2.63,1.07,5.21,2.931,7.069c1.859,1.86,4.43,2.931,7.069,2.931c0.65,0,1.311-0.061,1.95-0.19    c0.64-0.13,1.271-0.32,1.87-0.57c0.61-0.25,1.189-0.56,1.73-0.92c0.551-0.37,1.06-0.79,1.521-1.25    c1.86-1.859,2.93-4.439,2.93-7.069C302.062,213.551,301.993,212.89,301.862,212.251z"
   id="path14" />
	</g>
</g>
<g
   id="g24">
	<g
   id="g22">
		<path
   d="M511.912,303.212c-0.021-0.154-0.063-0.302-0.091-0.454c-0.051-0.28-0.097-0.562-0.171-0.835    c-0.048-0.175-0.117-0.342-0.174-0.514c-0.08-0.242-0.153-0.486-0.25-0.72c-0.074-0.176-0.168-0.342-0.251-0.513    c-0.107-0.219-0.206-0.441-0.328-0.651c-0.097-0.167-0.212-0.322-0.319-0.483c-0.133-0.201-0.26-0.406-0.407-0.597    c-0.119-0.154-0.253-0.294-0.381-0.442c-0.158-0.182-0.311-0.367-0.482-0.538c-0.139-0.138-0.292-0.262-0.439-0.392    c-0.182-0.161-0.359-0.325-0.554-0.473c-0.157-0.12-0.327-0.224-0.492-0.336c-0.165-0.111-0.321-0.235-0.494-0.337    c-0.042-0.024-0.086-0.041-0.128-0.064c-0.037-0.021-0.07-0.048-0.108-0.069l-113.217-62.668c-3.014-1.668-6.672-1.668-9.686,0    l-113.216,62.668c-0.038,0.021-0.07,0.048-0.108,0.07c-0.042,0.023-0.086,0.04-0.127,0.064c-0.173,0.102-0.328,0.225-0.494,0.337    c-0.165,0.111-0.335,0.216-0.492,0.336c-0.194,0.148-0.372,0.312-0.554,0.473c-0.147,0.13-0.3,0.254-0.439,0.392    c-0.171,0.171-0.324,0.356-0.482,0.538c-0.128,0.147-0.262,0.288-0.381,0.442c-0.147,0.191-0.274,0.396-0.407,0.597    c-0.106,0.161-0.222,0.316-0.319,0.483c-0.122,0.21-0.222,0.432-0.328,0.651c-0.083,0.172-0.178,0.337-0.251,0.513    c-0.098,0.234-0.171,0.478-0.25,0.72c-0.057,0.172-0.126,0.338-0.174,0.514c-0.074,0.273-0.12,0.555-0.171,0.835    c-0.028,0.152-0.07,0.3-0.091,0.454c-0.059,0.438-0.09,0.882-0.09,1.33v134.79c0,3.637,1.975,6.987,5.157,8.749l113.216,62.668    c0.178,0.099,0.366,0.172,0.549,0.26c0.172,0.082,0.341,0.172,0.517,0.244c0.244,0.1,0.494,0.176,0.743,0.255    c0.162,0.052,0.322,0.115,0.486,0.158c0.282,0.074,0.569,0.122,0.855,0.171c0.137,0.024,0.272,0.06,0.41,0.078    c0.426,0.055,0.854,0.085,1.283,0.085c0.429,0,0.857-0.03,1.283-0.085c0.138-0.018,0.273-0.055,0.411-0.078    c0.286-0.049,0.572-0.097,0.854-0.171c0.165-0.043,0.324-0.106,0.487-0.158c0.249-0.08,0.499-0.155,0.743-0.255    c0.176-0.072,0.345-0.163,0.517-0.245c0.183-0.087,0.37-0.16,0.548-0.259l113.217-62.668c3.183-1.762,5.157-5.111,5.157-8.749    v-134.79C512.002,304.094,511.971,303.65,511.912,303.212z M378.785,485.036l-16.058-8.888V423.79c0-5.522-4.478-10-10-10    c-5.522,0-10,4.478-10,10v41.287l-57.158-31.639V321.507l93.216,51.598V485.036z M388.785,355.78l-92.566-51.238l92.566-51.238    l92.567,51.238L388.785,355.78z M492.002,433.438l-93.217,51.598V373.104l93.217-51.597V433.438z"
   id="path20" />
	</g>
</g>
<g
   id="g30">
	<g
   id="g28">
		<path
   d="M362.532,382.93c-0.131-0.63-0.32-1.26-0.57-1.87c-0.25-0.6-0.561-1.18-0.92-1.72c-0.36-0.55-0.78-1.061-1.24-1.521    c-0.47-0.46-0.98-0.88-1.52-1.25c-0.551-0.359-1.131-0.67-1.73-0.92s-1.23-0.439-1.87-0.569c-1.29-0.261-2.62-0.261-3.91,0    c-0.64,0.13-1.27,0.319-1.87,0.569c-0.6,0.25-1.18,0.561-1.72,0.92c-0.55,0.37-1.06,0.79-1.52,1.25    c-0.471,0.46-0.88,0.971-1.25,1.521c-0.36,0.54-0.67,1.12-0.92,1.72c-0.25,0.61-0.44,1.24-0.57,1.87    c-0.13,0.65-0.2,1.311-0.2,1.96c0,0.65,0.07,1.311,0.2,1.95c0.13,0.639,0.32,1.269,0.57,1.87c0.25,0.609,0.56,1.189,0.92,1.73    c0.37,0.551,0.779,1.06,1.25,1.52c0.46,0.46,0.97,0.88,1.52,1.24c0.54,0.359,1.12,0.67,1.72,0.92c0.601,0.25,1.23,0.44,1.87,0.569    c0.65,0.13,1.3,0.2,1.96,0.2c0.65,0,1.301-0.07,1.95-0.2c0.64-0.13,1.271-0.319,1.87-0.569s1.18-0.56,1.73-0.92    c0.539-0.36,1.05-0.78,1.52-1.24c0.46-0.46,0.88-0.97,1.24-1.52c0.359-0.54,0.67-1.12,0.92-1.73c0.25-0.601,0.439-1.23,0.57-1.87    c0.13-0.64,0.189-1.3,0.189-1.95C362.721,384.241,362.661,383.581,362.532,382.93z"
   id="path26" />
	</g>
</g>
<g
   id="g36">
	<g
   id="g34">
		<path
   d="M246.343,303.213c-0.018-0.154-0.06-0.301-0.088-0.452c-0.051-0.282-0.097-0.565-0.172-0.839    c-0.047-0.172-0.115-0.336-0.171-0.504c-0.081-0.245-0.155-0.492-0.254-0.73c-0.072-0.173-0.164-0.335-0.246-0.503    c-0.108-0.223-0.21-0.448-0.334-0.662c-0.095-0.163-0.208-0.315-0.312-0.472c-0.135-0.205-0.264-0.413-0.414-0.608    c-0.116-0.151-0.248-0.289-0.373-0.433c-0.16-0.185-0.316-0.373-0.49-0.547c-0.137-0.136-0.288-0.258-0.432-0.386    c-0.184-0.163-0.363-0.329-0.56-0.479c-0.156-0.119-0.325-0.223-0.489-0.333c-0.166-0.112-0.322-0.236-0.496-0.338    c-0.041-0.024-0.086-0.041-0.127-0.064c-0.037-0.021-0.07-0.048-0.108-0.069L128.06,233.126c-3.013-1.668-6.673-1.668-9.686,0    L5.159,295.793c-0.038,0.021-0.07,0.048-0.108,0.069c-0.042,0.024-0.086,0.04-0.127,0.064c-0.174,0.103-0.33,0.226-0.496,0.338    c-0.164,0.11-0.333,0.214-0.489,0.333c-0.196,0.15-0.376,0.316-0.56,0.479c-0.145,0.128-0.296,0.25-0.432,0.386    c-0.174,0.174-0.33,0.362-0.49,0.547c-0.125,0.144-0.257,0.282-0.373,0.433c-0.15,0.195-0.279,0.403-0.414,0.608    c-0.104,0.158-0.217,0.309-0.312,0.472c-0.124,0.214-0.226,0.44-0.334,0.662c-0.082,0.168-0.174,0.33-0.246,0.503    c-0.099,0.237-0.173,0.484-0.254,0.73c-0.056,0.169-0.124,0.332-0.171,0.504c-0.075,0.275-0.121,0.558-0.172,0.839    c-0.027,0.151-0.069,0.298-0.09,0.451c-0.058,0.439-0.089,0.883-0.089,1.331v134.79c0,3.638,1.975,6.987,5.157,8.749    l113.216,62.668c0.178,0.099,0.365,0.172,0.547,0.259c0.173,0.082,0.342,0.173,0.518,0.245c0.243,0.099,0.492,0.175,0.74,0.254    c0.164,0.052,0.324,0.115,0.49,0.159c0.281,0.074,0.566,0.122,0.85,0.171c0.139,0.024,0.275,0.061,0.415,0.079    c0.426,0.055,0.854,0.085,1.282,0.085c0.428,0,0.857-0.03,1.282-0.085c0.138-0.018,0.274-0.055,0.411-0.078    c0.286-0.049,0.572-0.097,0.854-0.171c0.165-0.043,0.324-0.106,0.487-0.158c0.249-0.08,0.499-0.155,0.743-0.255    c0.176-0.072,0.345-0.163,0.517-0.245c0.183-0.087,0.37-0.16,0.548-0.259l113.217-62.668c3.182-1.762,5.157-5.111,5.157-8.749    v-134.79C246.433,304.095,246.402,303.651,246.343,303.213z M113.218,485.036l-93.216-51.598V321.507l93.216,51.598V485.036z     M123.218,355.78l-92.567-51.238l92.567-51.238l92.568,51.238L123.218,355.78z M226.435,433.438l-93.217,51.598V373.104    l16.058-8.889v44.039c0,5.522,4.477,10,10,10c5.523,0,10-4.478,10-10v-55.109l57.159-31.639V433.438z"
   id="path32" />
	</g>
</g>
<g
   id="g42">
	<g
   id="g40">
		<path
   d="M169.082,444.121c-0.13-0.642-0.32-1.271-0.57-1.871c-0.25-0.601-0.56-1.181-0.92-1.721c-0.37-0.55-0.78-1.06-1.24-1.52    c-0.47-0.47-0.98-0.88-1.52-1.25c-0.55-0.36-1.13-0.67-1.73-0.92c-0.6-0.25-1.23-0.44-1.87-0.57c-1.29-0.26-2.62-0.26-3.91,0    c-0.64,0.13-1.27,0.32-1.87,0.57s-1.19,0.56-1.73,0.92c-0.55,0.37-1.06,0.78-1.52,1.25c-0.46,0.46-0.88,0.97-1.24,1.52    c-0.36,0.54-0.67,1.12-0.92,1.721c-0.25,0.6-0.44,1.229-0.57,1.87c-0.13,0.649-0.19,1.3-0.19,1.96c0,0.649,0.06,1.3,0.19,1.949    c0.13,0.641,0.32,1.271,0.57,1.87c0.25,0.601,0.56,1.19,0.92,1.73c0.37,0.55,0.78,1.06,1.24,1.52c1.86,1.86,4.44,2.931,7.07,2.931    c0.66,0,1.31-0.07,1.96-0.2c0.64-0.13,1.27-0.32,1.87-0.57c0.6-0.25,1.18-0.56,1.73-0.92c0.54-0.36,1.05-0.78,1.52-1.24    c0.46-0.46,0.87-0.97,1.24-1.52c0.36-0.54,0.67-1.13,0.92-1.73c0.25-0.6,0.44-1.23,0.57-1.87c0.13-0.649,0.19-1.3,0.19-1.949    C169.272,445.421,169.212,444.77,169.082,444.121z"
   id="path38" />
	</g>
</g>
<g
   id="g44">
</g>
<g
   id="g46">
</g>
<g
   id="g48">
</g>
<g
   id="g50">
</g>
<g
   id="g52">
</g>
<g
   id="g54">
</g>
<g
   id="g56">
</g>
<g
   id="g58">
</g>
<g
   id="g60">
</g>
<g
   id="g62">
</g>
<g
   id="g64">
</g>
<g
   id="g66">
</g>
<g
   id="g68">
</g>
<g
   id="g70">
</g>
<g
   id="g72">
</g>
<path
   style="fill:#bef8ff;fill-opacity:0.16574587;stroke:none;stroke-width:10.84747791;stroke-linecap:round;stroke-linejoin:round;stroke-miterlimit:4;stroke-dasharray:none;stroke-opacity:1"
   d="m 209.9098,97.909064 -45.36603,-25.24736 38.31517,-21.200285 c 21.07334,-11.660156 41.73213,-23.017934 45.90841,-25.239507 l 7.59323,-4.039222 44.47466,24.650822 c 24.46107,13.557952 44.82787,24.98869 45.25957,25.401641 0.63377,0.606252 -89.47726,51.408217 -90.51704,51.030857 -0.16606,-0.0603 -20.71665,-11.4709 -45.66797,-25.356946 z"
   id="path895"
   inkscape:connector-curvature="0" /><path
   style="fill:#88f2ff;fill-opacity:0.16574587;stroke:none;stroke-width:10.84747791;stroke-linecap:round;stroke-linejoin:round;stroke-miterlimit:4;stroke-dasharray:none;stroke-opacity:1"
   d="m 266.6841,196.32488 0.0184,-55.05095 7.57482,-4.08803 7.57483,-4.08803 v 23.72628 c 0,23.68136 0.005,23.73171 2.66007,26.59655 4.13507,4.46181 10.58388,4.26433 14.96708,-0.45835 l 2.98305,-3.2141 v -29.05146 -29.05145 l 27.32097,-15.13491 c 15.02653,-8.324194 27.71808,-15.297614 28.20345,-15.496484 0.48536,-0.198871 0.88247,24.501164 0.88247,54.888964 v 55.25054 l -45.40601,25.11119 c -24.97331,13.81116 -45.71911,25.11119 -46.10179,25.11119 -0.38267,0 -0.68748,-24.77293 -0.67735,-55.05095 z m 32.96997,24.59478 c 3.64687,-4.33405 3.71988,-9.58349 0.19035,-13.68682 -2.17384,-2.52723 -3.4779,-3.04354 -7.68716,-3.04354 -4.20926,0 -5.51332,0.51631 -7.68716,3.04354 -6.07288,7.06016 -1.54353,17.0243 7.73865,17.0243 3.84627,0 5.11592,-0.56914 7.44532,-3.33748 z"
   id="path897"
   inkscape:connector-curvature="0" /><path
   style="fill:#ff7308;fill-opacity:0.16574587;stroke:none;stroke-width:10.84747791;stroke-linecap:round;stroke-linejoin:round;stroke-miterlimit:4;stroke-dasharray:none;stroke-opacity:1"
   d="m 237.12312,247.77052 -6.22049,-3.44555 -0.0168,-26.88235 c -0.0179,-28.54963 -0.67211,-32.93865 -5.27741,-35.40334 -3.80387,-2.03576 -9.55127,-1.39002 -12.84844,1.44359 l -3.04355,2.61564 -0.54237,22.85141 -0.54237,22.85141 -27.93226,-15.40617 -27.93226,-15.40618 v -55.16831 c 0,-34.16847 0.39019,-55.030671 1.02504,-54.806724 0.56378,0.19887 21.30958,11.582214 46.10179,25.296314 l 45.07674,24.93474 v 55.06541 c 0,30.28599 -0.3661,55.02947 -0.81356,54.98554 -0.44746,-0.0439 -3.61278,-1.63037 -7.03405,-3.52543 z m -10.80506,-86.95924 c 3.84961,-3.23923 4.86573,-7.46381 2.91702,-12.12771 -1.70304,-4.07595 -4.48998,-5.78252 -9.44325,-5.78252 -7.30081,0 -11.87362,6.4673 -9.55032,13.50696 2.2954,6.95514 10.40433,9.17613 16.07655,4.40327 z"
   id="path899"
   inkscape:connector-curvature="0" /><path
   style="fill:#ff7308;fill-opacity:0.16574587;stroke:none;stroke-width:30.68130112;stroke-linecap:round;stroke-linejoin:round;stroke-miterlimit:4;stroke-dasharray:none;stroke-opacity:1"
   d="M 212.41288,98.248062 C 189.21015,85.346734 170.22609,73.804735 170.22609,72.599168 c 0,-1.205563 19.32922,-12.793842 42.95383,-25.751734 l 42.95382,-23.559801 42.95382,23.559801 c 23.6246,12.957892 42.95382,24.579985 42.95382,25.826876 0,1.936165 -83.86781,49.6241 -86.50333,49.18651 -0.51611,-0.0857 -19.92243,-10.71143 -43.12517,-23.612758 z"
   id="path901"
   inkscape:connector-curvature="0" /><path
   style="fill:#ffa408;fill-opacity:0.16574587;stroke:none;stroke-width:30.68130112;stroke-linecap:round;stroke-linejoin:round;stroke-miterlimit:4;stroke-dasharray:none;stroke-opacity:1"
   d="m 268.40626,196.10768 c 0,-50.51302 0.40968,-54.46207 6.013,-57.9614 5.76655,-3.60127 6.04949,-2.71981 6.90329,21.50592 l 0.89029,25.26109 h 9.2044 9.20439 l 0.87225,-31.25722 0.87226,-31.25722 25.67911,-13.9977 c 14.12351,-7.69873 26.50209,-13.997698 27.50795,-13.997698 1.00586,0 1.82883,24.008788 1.82883,53.352868 v 53.35288 l -44.48788,24.60235 -44.48789,24.60235 z m 30.06767,26.54361 c 9.26368,-9.26367 -0.14551,-23.95693 -11.46277,-17.90011 -9.78418,5.23633 -6.44714,21.58187 4.40608,21.58187 1.85621,0 5.03173,-1.65679 7.05669,-3.68176 z"
   id="path903"
   inkscape:connector-curvature="0" /><path
   style="fill:#ffa408;fill-opacity:0.16574587;stroke:none;stroke-width:10.84747791;stroke-linecap:round;stroke-linejoin:round;stroke-miterlimit:4;stroke-dasharray:none;stroke-opacity:1"
   d="m 343.35467,330.00533 c -36.02418,-19.92039 -45.00024,-25.31027 -43.86141,-26.33755 3.08016,-2.77844 89.02102,-49.50787 90.20591,-49.04851 2.36615,0.91733 87.99972,48.55201 88.89862,49.45091 0.62805,0.62804 -70.96721,41.23241 -89.33659,50.66615 -0.33729,0.17321 -20.99523,-10.95574 -45.90653,-24.731 z"
   id="path905"
   inkscape:connector-curvature="0" /><path
   style="fill:#ffa408;fill-opacity:0.16574587;stroke:none;stroke-width:10.84747791;stroke-linecap:round;stroke-linejoin:round;stroke-miterlimit:4;stroke-dasharray:none;stroke-opacity:1"
   d="m 399.35611,428.81303 0.28107,-55.54581 45.5594,-25.24413 45.55941,-25.24412 0.28124,54.91137 c 0.15469,30.20126 -0.0894,55.25788 -0.54237,55.68139 -0.45299,0.42352 -19.12873,10.87695 -41.50166,23.22988 -22.37292,12.35291 -42.75707,23.65175 -45.2981,25.10855 l -4.62006,2.64869 z"
   id="path907"
   inkscape:connector-curvature="0" /><path
   style="fill:#ffa408;fill-opacity:0.16574587;stroke:none;stroke-width:10.84747791;stroke-linecap:round;stroke-linejoin:round;stroke-miterlimit:4;stroke-dasharray:none;stroke-opacity:1"
   d="m 370.63686,479.9798 -7.30535,-3.85959 -0.0167,-28.01569 -0.0167,-28.01571 -3.1708,-3.1708 c -4.21939,-4.21939 -10.83805,-4.44703 -14.77684,-0.50824 -2.65413,2.65413 -2.66257,2.73318 -2.66257,24.94921 0,12.25765 -0.3661,22.27452 -0.81356,22.25974 -0.44745,-0.0147 -13.01697,-6.79156 -27.93225,-15.05949 l -27.1187,-15.0326 -0.28106,-55.49257 c -0.27125,-53.55576 -0.21153,-55.45536 1.71103,-54.42643 11.96566,6.40382 88.80927,49.24713 89.42772,49.85944 0.45299,0.44848 0.69705,25.46573 0.54237,55.59387 l -0.28124,54.77844 z m -13.42742,-85.71145 c 1.50179,-0.57098 3.52931,-2.58282 4.50561,-4.47077 3.74028,-7.23291 -1.086,-15.10129 -9.26277,-15.10129 -9.25694,0 -13.52697,11.8276 -6.42689,17.80191 3.53027,2.97053 6.70513,3.47303 11.18405,1.77015 z"
   id="path913"
   inkscape:connector-curvature="0" /><path
   style="fill:#ffa408;fill-opacity:0.16574587;stroke:none;stroke-width:10.84747791;stroke-linecap:round;stroke-linejoin:round;stroke-miterlimit:4;stroke-dasharray:none;stroke-opacity:1"
   d="m 133.33158,429.01481 v -55.29709 l 6.88392,-3.84971 c 3.78616,-2.11734 7.17621,-3.8497 7.53345,-3.8497 0.35725,0 0.79848,10.45672 0.98051,23.23715 0.32214,22.6176 0.39833,23.30879 2.85732,25.92387 3.20134,3.40454 7.33495,4.20617 11.88532,2.3049 6.1997,-2.5904 6.74091,-5.53339 6.74091,-36.6556 V 353.2641 l 23.05089,-12.75283 c 12.67799,-7.01406 25.12993,-13.95609 27.67098,-15.42673 l 4.62009,-2.67391 -0.2811,55.59258 -0.2811,55.59258 -37.96617,21.04013 c -20.8814,11.57207 -41.50516,22.9832 -45.8306,25.35806 l -7.86442,4.31792 z m 31.62084,25.86551 c 2.87662,-1.53953 5.21051,-7.27883 4.49085,-11.04353 -0.75139,-3.93066 -6.14554,-8.39462 -10.14385,-8.39462 -1.94706,0 -4.50003,1.20277 -6.6718,3.14323 -7.17974,6.41511 -3.17625,17.46698 6.32734,17.46698 2.09409,0 4.79295,-0.52743 5.99746,-1.17206 z"
   id="path915"
   inkscape:connector-curvature="0" /><path
   style="fill:#ffa408;fill-opacity:0.16574587;stroke:none;stroke-width:10.84747791;stroke-linecap:round;stroke-linejoin:round;stroke-miterlimit:4;stroke-dasharray:none;stroke-opacity:1"
   d="M 78.2246,330.29096 C 53.583566,316.64223 33.389015,305.07895 33.34782,304.59478 c -0.05947,-0.69893 78.44125,-44.9513 87.69046,-49.4328 2.03362,-0.98535 8.50851,2.26952 47.99093,24.12459 l 45.64016,25.2636 -45.73019,25.31033 c -25.1516,13.92068 -45.77125,25.29593 -45.82144,25.27834 -0.0502,-0.0176 -20.25211,-11.19914 -44.89314,-24.84788 z"
   id="path917"
   inkscape:connector-curvature="0" /><path
   style="fill:#ffa408;fill-opacity:0.16574587;stroke:none;stroke-width:10.84747791;stroke-linecap:round;stroke-linejoin:round;stroke-miterlimit:4;stroke-dasharray:none;stroke-opacity:1"
   d="M 66.348404,458.48046 20.517808,433.09534 v -55.2975 c 0,-30.41361 0.366103,-55.09368 0.813561,-54.8446 0.447459,0.24909 20.58309,11.33717 44.745848,24.64017 24.162758,13.30301 44.546983,24.74322 45.298283,25.4227 1.07104,0.96865 1.30527,13.07007 1.08475,56.04245 L 112.179,483.8656 Z"
   id="path919"
   inkscape:connector-curvature="0" /></svg>