<?xml version="1.0" encoding="UTF-8" standalone="no"?>
<!-- Generator: Adobe Illustrator 19.0.0, SVG Export Plug-In . SVG Version: 6.00 Build 0)  -->

<svg
   xmlns:dc="http://purl.org/dc/elements/1.1/"
   xmlns:cc="http://creativecommons.org/ns#"
   xmlns:rdf="http://www.w3.org/1999/02/22-rdf-syntax-ns#"
   xmlns:svg="http://www.w3.org/2000/svg"
   xmlns="http://www.w3.org/2000/svg"
   xmlns:sodipodi="http://sodipodi.sourceforge.net/DTD/sodipodi-0.dtd"
   xmlns:inkscape="http://www.inkscape.org/namespaces/inkscape"
   version="1.1"
   id="Capa_1"
   x="0px"
   y="0px"
   viewBox="0 0 512 512"
   style="enable-background:new 0 0 512 512;"
   xml:space="preserve"
   sodipodi:docname="cube.svg"
   inkscape:version="0.92.1 r15371"><metadata
     id="metadata55"><rdf:RDF><cc:Work
         rdf:about=""><dc:format>image/svg+xml</dc:format><dc:type
           rdf:resource="http://purl.org/dc/dcmitype/StillImage" /></cc:Work></rdf:RDF></metadata><defs
     id="defs53" /><sodipodi:namedview
     pagecolor="#ffffff"
     bordercolor="#666666"
     borderopacity="1"
     objecttolerance="10"
     gridtolerance="10"
     guidetolerance="10"
     inkscape:pageopacity="0"
     inkscape:pageshadow="2"
     inkscape:window-width="1920"
     inkscape:window-height="1057"
     id="namedview51"
     showgrid="false"
     inkscape:measure-start="22.7073,445.631"
     inkscape:measure-end="0,0"
     inkscape:zoom="0.74736191"
     inkscape:cx="-420.83406"
     inkscape:cy="433.72974"
     inkscape:window-x="-8"
     inkscape:window-y="-4"
     inkscape:window-maximized="1"
     inkscape:current-layer="Capa_1" /><path
     style="fill:#00E3FF;"
     d="M248.283,2.138L30,137l28.677,77.206L201,287l55-15l55,15l146-75l25-75L263.717,2.138  C258.967-0.713,253.033-0.713,248.283,2.138z"
     id="path2" /><polygon
     style="fill:#00BBFF;"
     points="256,272 226,309.5 226,479.5 256,512 467.273,385.837 482,359.693 482,137 "
     id="polygon4" /><polygon
     style="fill:#00D0FF;"
     points="30,137 30,358.483 43.7,385.22 256,512 256,272 "
     id="polygon6" /><path
     style="fill:#00D0FF;"
     d="M482,359.693l-67.5-38.969c-7.192-4.146-16.333-1.685-20.493,5.493  c-4.146,7.178-1.685,16.348,5.493,20.493l67.773,39.126L482,377V359.693z"
     id="path16" /><path
     style="fill:#00E3FF;"
     d="M116.898,326.218c-4.16-7.178-13.301-9.639-20.493-5.493L30,358.483V377l13.7,8.22l67.705-38.509  C118.583,342.565,121.044,333.395,116.898,326.218z"
     id="path18" /><g
     id="g20" /><g
     id="g22" /><g
     id="g24" /><g
     id="g26" /><g
     id="g28" /><g
     id="g30" /><g
     id="g32" /><g
     id="g34" /><g
     id="g36" /><g
     id="g38" /><g
     id="g40" /><g
     id="g42" /><g
     id="g44" /><g
     id="g46" /><g
     id="g48" /></svg>