<?xml version="1.0" encoding="UTF-8" standalone="no"?>
<svg
   xmlns:dc="http://purl.org/dc/elements/1.1/"
   xmlns:cc="http://creativecommons.org/ns#"
   xmlns:rdf="http://www.w3.org/1999/02/22-rdf-syntax-ns#"
   xmlns:svg="http://www.w3.org/2000/svg"
   xmlns="http://www.w3.org/2000/svg"
   xmlns:sodipodi="http://sodipodi.sourceforge.net/DTD/sodipodi-0.dtd"
   xmlns:inkscape="http://www.inkscape.org/namespaces/inkscape"
   id="Layer_1"
   data-name="Layer 1"
   viewBox="0 0 314 100"
   version="1.1"
   sodipodi:docname="facebookSignup.svg"
   width="314"
   height="100"
   inkscape:version="0.92.3 (2405546, 2018-03-11)">
  <metadata
     id="metadata17">
    <rdf:RDF>
      <cc:Work
         rdf:about="">
        <dc:format>image/svg+xml</dc:format>
        <dc:type
           rdf:resource="http://purl.org/dc/dcmitype/StillImage" />
        <dc:title>flogo_RGB_HEX-1024</dc:title>
      </cc:Work>
    </rdf:RDF>
  </metadata>
  <sodipodi:namedview
     pagecolor="#ffffff"
     bordercolor="#666666"
     borderopacity="1"
     objecttolerance="10"
     gridtolerance="10"
     guidetolerance="10"
     inkscape:pageopacity="0"
     inkscape:pageshadow="2"
     inkscape:window-width="1366"
     inkscape:window-height="745"
     id="namedview15"
     showgrid="false"
     inkscape:zoom="1.0569293"
     inkscape:cx="26.234969"
     inkscape:cy="-77.232277"
     inkscape:window-x="-8"
     inkscape:window-y="-8"
     inkscape:window-maximized="1"
     inkscape:current-layer="Layer_1"
     inkscape:pagecheckerboard="true" />
  <defs
     id="defs4">
    <style
       id="style2">.cls-1{fill:#4267b2;}.cls-2{fill:#fff;}</style>
    <style
       id="style4508">.cls-1{fill:#fff;}</style>
  </defs>
  <title
     id="title6">flogo_RGB_HEX-1024</title>
  <path
     id="f-2"
     data-name="f"
     class="cls-2"
     d="m 707,100 v -396 h 133.5 l 20,-155 H 707 v -98.72 c 0,-44.77 12.43,-75.28 76.63,-75.28 H 865 v -138.26 c -14.16,-1.88 -62.73,-6.09 -119.24,-6.09 -118,0 -198.76,72 -198.76,204.28 V -451 H 414 v 155 h 133 v 396 z"
     inkscape:connector-curvature="0"
     style="fill:#ffffff" />
  <path
     id="f"
     class="cls-2"
     d="m 707,100 v -396 h 133.5 l 20,-155 H 707 v -98.72 c 0,-44.77 12.43,-75.28 76.63,-75.28 H 865 v -138.26 c -14.16,-1.88 -62.73,-6.09 -119.24,-6.09 -118,0 -198.76,72 -198.76,204.28 V -451 H 414 v 155 h 133 v 396 z"
     inkscape:connector-curvature="0"
     style="fill:#ffffff" />
  <path
     id="path4514"
     d="M 61.94635,29.495008 H 25.463484 a 2.2635589,2.2635589 0 0 0 -2.263555,2.263555 v 36.482866 a 2.2635589,2.2635589 0 0 0 2.263555,2.263562 H 45.106629 V 54.645662 H 39.780137 V 48.43809 h 5.326492 v -4.565559 c 0,-5.296857 3.235143,-8.181173 7.960102,-8.181173 2.262761,0 4.208327,0.169004 4.775423,0.24029 v 5.537955 h -3.268788 c -2.563123,0 -3.058927,1.220682 -3.058927,3.013269 v 3.955218 h 6.146694 l -0.80098,6.207572 h -5.345714 v 15.85933 H 61.94635 A 2.2635589,2.2635589 0 0 0 64.209912,68.24143 V 31.758563 A 2.2635589,2.2635589 0 0 0 61.94635,29.495008 Z"
     class="cls-1"
     inkscape:connector-curvature="0"
     style="fill:#ffffff;stroke-width:1" />
  <text
     xml:space="preserve"
     style="font-style:normal;font-weight:normal;font-size:8px;line-height:1.25;font-family:sans-serif;letter-spacing:0px;word-spacing:0px;fill:#000000;fill-opacity:1;stroke:none"
     x="75.813797"
     y="59.447918"
     id="text4525"><tspan
       sodipodi:role="line"
       id="tspan4523"
       x="75.813797"
       y="59.447918"
       style="font-style:normal;font-variant:normal;font-weight:normal;font-stretch:normal;font-size:21.33333397px;font-family:'Proza Libre';-inkscape-font-specification:'Proza Libre, Normal';font-variant-ligatures:normal;font-variant-caps:normal;font-variant-numeric:normal;font-feature-settings:normal;text-align:start;writing-mode:lr-tb;text-anchor:start;fill:#ffffff;fill-opacity:1">Sign in with Facebook</tspan></text>
</svg>
