<?xml version="1.0" encoding="UTF-8" standalone="no"?>
<!-- Generator: Adobe Illustrator 19.0.0, SVG Export Plug-In . SVG Version: 6.00 Build 0)  -->

<svg
   xmlns:dc="http://purl.org/dc/elements/1.1/"
   xmlns:cc="http://creativecommons.org/ns#"
   xmlns:rdf="http://www.w3.org/1999/02/22-rdf-syntax-ns#"
   xmlns:svg="http://www.w3.org/2000/svg"
   xmlns="http://www.w3.org/2000/svg"
   xmlns:sodipodi="http://sodipodi.sourceforge.net/DTD/sodipodi-0.dtd"
   xmlns:inkscape="http://www.inkscape.org/namespaces/inkscape"
   version="1.1"
   id="Capa_1"
   x="0px"
   y="0px"
   viewBox="0 0 100 100"
   xml:space="preserve"
   sodipodi:docname="menu.svg"
   width="100"
   height="100"
   inkscape:version="0.92.1 r15371"><metadata
     id="metadata67"><rdf:RDF><cc:Work
         rdf:about=""><dc:format>image/svg+xml</dc:format><dc:type
           rdf:resource="http://purl.org/dc/dcmitype/StillImage" /><dc:title></dc:title></cc:Work></rdf:RDF></metadata><defs
     id="defs65" /><sodipodi:namedview
     pagecolor="#ffffff"
     bordercolor="#666666"
     borderopacity="1"
     objecttolerance="10"
     gridtolerance="10"
     guidetolerance="10"
     inkscape:pageopacity="0"
     inkscape:pageshadow="2"
     inkscape:window-width="1920"
     inkscape:window-height="1057"
     id="namedview63"
     showgrid="false"
     inkscape:zoom="4.2277174"
     inkscape:cx="70.178882"
     inkscape:cy="58.5689"
     inkscape:window-x="1912"
     inkscape:window-y="-8"
     inkscape:window-maximized="1"
     inkscape:current-layer="Capa_1" /><path
     style="fill:#f9a462;stroke-width:0.99999994"
     d="M 83.570283,2.5385625 H 21.928298 c -3.036765,0 -5.498583,2.4618178 -5.498583,5.4985726 V 84.063614 h 67.140568 z"
     id="path2"
     inkscape:connector-curvature="0" /><path
     style="fill:#f7cd95;stroke-width:0.99999994"
     d="m 16.429715,84.063614 v 7.899238 c 0,3.036765 2.461818,5.498583 5.498583,5.498583 H 83.570283 V 84.063614 Z"
     id="path4"
     inkscape:connector-curvature="0" /><rect
     x="24.23962"
     y="11.936695"
     style="fill:#b75548;stroke-width:0.99999994"
     width="51.51881"
     height="24.018187"
     id="rect6" /><path
     d="M 75.7594,37.884985 H 24.240597 c -1.065377,0 -1.929327,-0.863961 -1.929327,-1.929328 V 11.936696 c 0,-1.065377 0.86395,-1.929327 1.929327,-1.929327 h 51.518616 c 1.065564,0 1.929327,0.86395 1.929327,1.929327 v 24.018961 c 1.88e-4,1.065565 -0.863763,1.929328 -1.92914,1.929328 z M 26.169924,34.026331 H 73.829887 V 13.866024 H 26.169924 Z"
     id="path8"
     inkscape:connector-curvature="0"
     style="stroke-width:0.99999994" /><path
     d="m 39.032353,17.598691 c -0.995333,0 -1.47342,0.127338 -2.202326,1.407255 l -1.52301,2.661883 -1.522812,-2.661499 c -0.729093,-1.280301 -1.207181,-1.407639 -2.202909,-1.407639 -0.699385,0 -1.516063,0.397051 -1.516063,1.516063 v 10.062207 c 0,0.698802 0.785816,1.017149 1.516063,1.017149 0.730247,0 1.516262,-0.318347 1.516262,-1.017149 v -5.545844 l 1.167239,2.138074 c 0.204702,0.392425 0.553714,0.599831 1.008842,0.599831 0.460918,0 0.824986,-0.203933 1.053221,-0.589797 l 1.18943,-2.032156 v 5.429892 c 0,0.698802 0.785816,1.017149 1.515876,1.017149 0.730247,0 1.516251,-0.318347 1.516251,-1.017149 V 19.114557 c 1.98e-4,-1.117649 -0.783113,-1.515866 -1.516064,-1.515866 z"
     id="path10"
     inkscape:connector-curvature="0"
     style="stroke-width:0.99999994" /><path
     d="m 49.176946,20.298008 c 0.589224,0 1.000553,-0.561815 1.000553,-1.366348 0,-0.641882 -0.313126,-1.332969 -1.000553,-1.332969 h -5.920904 c -0.649992,0 -1.349762,0.318148 -1.349762,1.016951 v 10.561131 c 0,0.698804 0.699572,1.01714 1.349762,1.01714 h 5.920904 c 0.687427,0 1.000553,-0.691088 1.000553,-1.33297 0,-0.804534 -0.411329,-1.366545 -1.000553,-1.366545 h -4.238539 v -2.389663 h 2.275833 c 0.656939,0 1.000553,-0.60369 1.000553,-1.200037 0,-0.714816 -0.420781,-1.233425 -1.000553,-1.233425 h -2.275833 v -2.373067 z"
     id="path12"
     inkscape:connector-curvature="0"
     style="stroke-width:0.99999994" /><path
     d="m 58.290507,17.598691 c -0.920861,0 -1.516064,0.392809 -1.516064,1.000543 v 4.76583 l -2.281426,-4.3516 c -0.67314,-1.292842 -1.112451,-1.414971 -2.106828,-1.414971 -0.754559,0 -1.515866,0.314676 -1.515866,1.016952 v 10.561131 c 0,0.698803 0.785806,1.017149 1.515866,1.017149 0.730247,0 1.516261,-0.318346 1.516261,-1.017149 V 24.37507 l 2.749292,5.006407 c 0.39126,0.720212 1.081381,0.812436 1.638765,0.812436 0.730247,0 1.516261,-0.318336 1.516261,-1.01714 V 18.599234 c -1.98e-4,-0.607922 -0.595203,-1.000543 -1.516261,-1.000543 z"
     id="path14"
     inkscape:connector-curvature="0"
     style="stroke-width:0.99999994" /><path
     d="m 68.418515,17.598691 c -0.921069,0 -1.516262,0.392809 -1.516262,1.000543 v 7.550808 c 0,0.971615 -0.450688,1.444107 -1.377735,1.444107 -0.927234,0 -1.377921,-0.472492 -1.377921,-1.444107 v -7.550808 c 0,-0.691077 -0.761505,-1.000543 -1.515877,-1.000543 -0.921057,0 -1.51625,0.392809 -1.51625,1.000543 v 7.550808 c 0,2.672116 1.566225,4.14381 4.410048,4.14381 2.843834,0 4.41006,-1.471694 4.41006,-4.14381 v -7.550808 c 0,-0.691275 -0.761318,-1.000543 -1.516063,-1.000543 z"
     id="path16"
     inkscape:connector-curvature="0"
     style="stroke-width:0.99999994" /><path
     style="fill:#c8feff;stroke-width:0.99999994"
     d="m 34.585639,43.888078 v 15.560986 c 0,6.619519 5.366233,11.985752 11.985752,11.985752 h 6.857413 c 6.619519,0 11.985741,-5.366233 11.985741,-11.985752 V 43.888078 Z"
     id="path18"
     inkscape:connector-curvature="0" /><path
     style="fill:#ef5352;stroke-width:0.99999994"
     d="m 54.07551,50.722145 c -2.28336,0 -3.732479,2.546129 -4.075314,2.546129 -0.300211,0 -1.690091,-2.546129 -4.076281,-2.546129 -2.320795,0 -4.216358,1.913886 -4.340214,4.23256 -0.07019,1.309042 0.352099,2.305342 0.947106,3.208079 1.188265,1.803152 6.383944,6.144323 7.477105,6.144323 1.115924,0 6.265101,-4.325157 7.461476,-6.144323 0.596358,-0.906979 1.016952,-1.899224 0.946919,-3.208079 -0.124063,-2.318476 -2.019429,-4.23256 -4.340797,-4.23256 z"
     id="path20"
     inkscape:connector-curvature="0" /><path
     d="m 50.007912,66.236434 c -0.487352,0 -1.501788,0 -4.932714,-2.838812 -0.725037,-0.59982 -3.166984,-2.673467 -4.155382,-4.173319 -0.594236,-0.901581 -1.371942,-2.336226 -1.262551,-4.37301 0.181161,-3.396965 2.933925,-6.058474 6.26665,-6.058474 1.812594,0 3.185119,0.918738 4.102132,1.76186 0.921639,-0.84389 2.275447,-1.76186 4.049463,-1.76186 3.332715,0 6.085677,2.661509 6.267222,6.058859 0.109007,2.032926 -0.667742,3.468538 -1.261397,4.371075 -0.791795,1.203707 -2.657838,2.947818 -4.140522,4.178727 -3.414518,2.834954 -4.439955,2.834954 -4.932901,2.834954 z M 50.3631,62.426402 Z m -4.439185,-9.774929 c -1.260046,0 -2.342788,1.079457 -2.413788,2.406249 -0.03816,0.713079 0.144704,1.304998 0.631474,2.043355 0.857003,1.300756 4.436678,4.334037 5.869971,5.153419 1.421334,-0.81205 4.984612,-3.842255 5.845868,-5.151683 0.493518,-0.750701 0.670822,-1.323901 0.632233,-2.044707 -0.07102,-1.327176 -1.15393,-2.406633 -2.414359,-2.406633 -0.797193,0 -1.620828,0.89868 -2.113192,1.435611 -0.477119,0.520335 -1.017524,1.11033 -1.962124,1.11033 -0.95193,0 -1.481915,-0.603502 -1.907719,-1.088337 -0.478668,-0.545031 -1.280103,-1.457604 -2.168364,-1.457604 z"
     id="path22"
     inkscape:connector-curvature="0"
     style="stroke-width:0.99999994" /><path
     d="M 83.570283,0.60923566 H 21.928298 c -4.095768,0 -7.427911,3.33213144 -7.427911,7.42789944 V 91.962852 c 0,4.09557 3.332143,7.427909 7.427911,7.427909 h 61.641985 c 1.065377,0 1.929327,-0.863949 1.929327,-1.929326 V 2.5385625 c 0,-1.0655746 -0.86395,-1.92932684 -1.929327,-1.92932684 z M 18.359041,8.0371351 c 0,-1.9681023 1.601143,-3.5692457 3.569257,-3.5692457 H 81.640956 V 82.134474 H 18.359041 Z m 3.569257,87.4949729 c -1.968114,0 -3.569257,-1.601154 -3.569257,-3.569256 v -5.969725 h 63.281915 v 2.786332 H 33.759311 c -1.065377,0 -1.929327,0.863959 -1.929327,1.929326 0,1.065377 0.86395,1.929327 1.929327,1.929327 h 47.881645 v 2.893996 z"
     id="path24"
     inkscape:connector-curvature="0"
     style="stroke-width:0.99999994" /><path
     d="m 71.805248,44.731782 h -4.461376 v -0.843704 c 0,-1.065565 -0.86395,-1.929328 -1.929327,-1.929328 H 34.585639 c -1.065564,0 -1.929326,0.863763 -1.929326,1.929328 v 15.560799 c 0,3.950097 1.65459,7.52109 4.306844,10.056414 h -8.798895 c -1.065367,0 -1.929327,0.863762 -1.929327,1.929327 0,1.065377 0.86396,1.929327 1.929327,1.929327 h 37.88735 c 1.065377,0 1.929328,-0.86395 1.929328,-1.929327 0,-1.065565 -0.863951,-1.929327 -1.929328,-1.929327 H 63.03685 c 1.517416,-1.45046 2.708384,-3.239918 3.449633,-5.245643 3.362048,-0.574937 7.248091,-2.955148 7.248091,-10.879467 v -6.719083 c 0,-1.065367 -0.863949,-1.929316 -1.929326,-1.929316 z M 46.571391,69.505488 c -5.545074,0 -10.056425,-4.511339 -10.056425,-10.056424 V 45.817601 h 26.970253 v 13.631463 c 0,5.545085 -4.511341,10.056424 -10.056415,10.056424 z m 23.30453,-16.12512 c 0,4.140336 -1.162613,5.850683 -2.541688,6.590966 0.0063,-0.173248 0.0093,-0.347473 0.0093,-0.52227 V 48.590623 h 2.532048 z"
     id="path26"
     inkscape:connector-curvature="0"
     style="stroke-width:0.99999994" /><circle
     cx="73.576363"
     cy="71.434814"
     r="1.9293267"
     id="circle28"
     style="stroke-width:0.99999994" /><circle
     cx="26.234552"
     cy="90.708794"
     r="1.9289409"
     id="circle30"
     style="stroke-width:0.99999994" /><g
     id="g32"
     transform="matrix(0.19293268,0,0,0.19293268,0.60923494,0.60923574)"
     style="stroke-width:5.18315554" /><g
     id="g34"
     transform="matrix(0.19293268,0,0,0.19293268,0.60923494,0.60923574)"
     style="stroke-width:5.18315554" /><g
     id="g36"
     transform="matrix(0.19293268,0,0,0.19293268,0.60923494,0.60923574)"
     style="stroke-width:5.18315554" /><g
     id="g38"
     transform="matrix(0.19293268,0,0,0.19293268,0.60923494,0.60923574)"
     style="stroke-width:5.18315554" /><g
     id="g40"
     transform="matrix(0.19293268,0,0,0.19293268,0.60923494,0.60923574)"
     style="stroke-width:5.18315554" /><g
     id="g42"
     transform="matrix(0.19293268,0,0,0.19293268,0.60923494,0.60923574)"
     style="stroke-width:5.18315554" /><g
     id="g44"
     transform="matrix(0.19293268,0,0,0.19293268,0.60923494,0.60923574)"
     style="stroke-width:5.18315554" /><g
     id="g46"
     transform="matrix(0.19293268,0,0,0.19293268,0.60923494,0.60923574)"
     style="stroke-width:5.18315554" /><g
     id="g48"
     transform="matrix(0.19293268,0,0,0.19293268,0.60923494,0.60923574)"
     style="stroke-width:5.18315554" /><g
     id="g50"
     transform="matrix(0.19293268,0,0,0.19293268,0.60923494,0.60923574)"
     style="stroke-width:5.18315554" /><g
     id="g52"
     transform="matrix(0.19293268,0,0,0.19293268,0.60923494,0.60923574)"
     style="stroke-width:5.18315554" /><g
     id="g54"
     transform="matrix(0.19293268,0,0,0.19293268,0.60923494,0.60923574)"
     style="stroke-width:5.18315554" /><g
     id="g56"
     transform="matrix(0.19293268,0,0,0.19293268,0.60923494,0.60923574)"
     style="stroke-width:5.18315554" /><g
     id="g58"
     transform="matrix(0.19293268,0,0,0.19293268,0.60923494,0.60923574)"
     style="stroke-width:5.18315554" /><g
     id="g60"
     transform="matrix(0.19293268,0,0,0.19293268,0.60923494,0.60923574)"
     style="stroke-width:5.18315554" /></svg>