<?xml version="1.0" encoding="UTF-8" standalone="no"?>
<svg
   xmlns:dc="http://purl.org/dc/elements/1.1/"
   xmlns:cc="http://creativecommons.org/ns#"
   xmlns:rdf="http://www.w3.org/1999/02/22-rdf-syntax-ns#"
   xmlns:svg="http://www.w3.org/2000/svg"
   xmlns="http://www.w3.org/2000/svg"
   xmlns:sodipodi="http://sodipodi.sourceforge.net/DTD/sodipodi-0.dtd"
   xmlns:inkscape="http://www.inkscape.org/namespaces/inkscape"
   id="svg4542"
   version="1.1"
   viewBox="0 0 100 100"
   height="100mm"
   width="100mm"
   sodipodi:docname="setting.svg"
   inkscape:version="0.92.1 r15371">
  <sodipodi:namedview
     pagecolor="#ffffff"
     bordercolor="#666666"
     borderopacity="1"
     objecttolerance="10"
     gridtolerance="10"
     guidetolerance="10"
     inkscape:pageopacity="0"
     inkscape:pageshadow="2"
     inkscape:window-width="732"
     inkscape:window-height="480"
     id="namedview30"
     showgrid="false"
     inkscape:zoom="0.80735124"
     inkscape:cx="34.768402"
     inkscape:cy="188.97638"
     inkscape:window-x="0"
     inkscape:window-y="0"
     inkscape:window-maximized="0"
     inkscape:current-layer="svg4542" />
  <defs
     id="defs4536" />
  <metadata
     id="metadata4539">
    <rdf:RDF>
      <cc:Work
         rdf:about="">
        <dc:format>image/svg+xml</dc:format>
        <dc:type
           rdf:resource="http://purl.org/dc/dcmitype/StillImage" />
        <dc:title></dc:title>
      </cc:Work>
    </rdf:RDF>
  </metadata>
  <g
     transform="translate(0,-197)"
     id="layer1">
    <g
       transform="matrix(0.26458333,0,0,0.26458333,-49.648883,123.77183)"
       id="g6240">
      <g
         style="stroke-width:1.16358054"
         transform="matrix(0.85941624,0,0,0.85941624,-121.20632,462.32354)"
         id="g6264">
        <path
           id="path6154"
           d="m 781.40014,-74.491953 c 0.933,-12.791 -0.214,-25.182 -3.13,-36.871997 -2.075,-8.277 -12.385,-11.156 -18.419,-5.124 l -48.957,48.955997 c -10.872,10.873 -28.498,10.867 -39.364,0 l -22.464,-22.464 c -10.879,-10.866997 -10.872,-28.491997 0,-39.363997 l 48.36,-48.36 c 6.074,-6.074 3.124,-16.488 -5.24,-18.442 -11.446,-2.672 -23.536,-3.669 -36.014,-2.666 -53.622,4.278 -102.966,54.55 -106.305,108.239997 -1.269,20.36 2.846,39.613 10.868,56.664 l -171.147,147.073003 c -7.703,6.613 -12.31,16.123 -12.738,26.267 -0.423,10.137 3.362,19.995 10.473,27.234 l 29.002,29.535 c 7.181,7.32 17.097,11.29 27.344,10.966 10.242,-0.33 19.885,-4.932 26.58,-12.692 l 148.246,-171.758003 c 16.541,7.384 35.069,11.157 54.637,9.94 54.049,-3.373 104.333,-53.123 108.268,-107.133 z"
           style="fill:#c1bfa4;stroke-width:1.16358054"
           inkscape:connector-curvature="0" />
        <g
           style="stroke-width:1.16358054"
           id="g6160"
           transform="translate(292.77514,-297.33195)">
          <path
             id="path6156"
             d="m 192.863,473.957 c -4.738,2.404 -9.986,3.786 -15.407,3.961 -10.247,0.325 -20.163,-3.646 -27.344,-10.966 L 121.11,437.417 c -7.112,-7.239 -10.896,-17.097 -10.473,-27.234 0.222,-5.247 1.571,-10.321 3.879,-14.915 L 96.812,410.48 c -7.703,6.613 -12.31,16.123 -12.738,26.267 -0.423,10.137 3.362,19.995 10.473,27.234 l 29.002,29.535 c 7.181,7.32 17.097,11.29 27.344,10.966 10.242,-0.33 19.885,-4.932 26.58,-12.692 z"
             style="fill:#a09d80;stroke-width:1.16358054"
             inkscape:connector-curvature="0" />
          <path
             id="path6158"
             d="m 418.121,229.8 -20.905,20.905 c -15.237,15.237 -39.944,15.242 -55.181,0.006 l -6.665,-6.665 c -15.237,-15.237 -15.237,-39.949 0,-55.187 l 28.846,-28.846 0.017,0.017 -7.94,7.94 c -10.872,10.873 -10.879,28.498 0,39.364 l 22.464,22.464 c 10.867,10.87 28.491,10.875 39.364,0.002 z"
             style="fill:#a09d80;stroke-width:1.16358054"
             inkscape:connector-curvature="0" />
        </g>
        <path
           style="stroke-width:1.16358054"
           id="path6170"
           d="m 785.54614,-113.18895 c -1.643,-6.551 -6.51,-11.537 -13.02,-13.337 -6.497,-1.797 -13.215,-0.026 -17.977,4.735 l -48.957,48.955997 c -7.928,7.93 -20.83,7.929 -28.758,0 l -22.467,-22.467 c -3.843,-3.838 -5.958,-8.942997 -5.958,-14.372997 10e-4,-5.432 2.117,-10.54 5.961,-14.382 l 48.359,-48.359 c 4.739,-4.739 6.539,-11.69 4.698,-18.143 -1.865,-6.537 -6.925,-11.361 -13.535,-12.905 -12.516,-2.921 -25.407,-3.875 -38.316,-2.838 -27.329,2.18 -55.309,15.961 -76.764,37.811 -21.45,21.845 -34.728,50.071 -36.43,77.438997 -1.187,19.031 1.92,37.53 9.238,55.076 l -66.11,56.81 c -3.142,2.7 -3.5,7.435 -0.801,10.577 1.483,1.726 3.581,2.612 5.691,2.612 1.73,0 3.47,-0.596 4.885,-1.812 l 70.338,-60.442 c 2.558,-2.197 3.334,-5.831 1.898,-8.881 -7.895,-16.779 -11.315,-34.612 -10.169,-53.007 3.106,-49.949997 49.562,-97.253997 99.421,-101.229997 11.363,-0.915 22.707,-0.076 33.708,2.493 1.71,0.399 2.314,1.685 2.523,2.416 0.169,0.594 0.423,2.117 -0.882,3.421 l -48.359,48.359 c -6.675,6.676 -10.353,15.549 -10.354,24.987 -10e-4,9.441 3.678,18.313997 10.354,24.983997 l 22.465,22.464 c 13.776,13.776 36.193,13.776 49.971,0 l 48.957,-48.955997 c 1.238,-1.238 2.643,-1.085 3.371,-0.885 0.594,0.164 2.021,0.739 2.468,2.52 2.795,11.207997 3.779,22.819997 2.926,34.512997 -2.522,34.62 -25.87,68.9870004 -59.48,87.553 -3.626,2.003 -4.941,6.565 -2.939,10.191 2.003,3.625 6.566,4.941 10.191,2.938 37.935,-20.9539996 64.308,-60.046 67.189,-99.592 0.967,-13.283 -0.154,-26.481997 -3.336,-39.245997 z"
           inkscape:connector-curvature="0" />
        <path
           style="stroke-width:1.16358054"
           id="path6172"
           d="m 686.20114,23.260047 c -4.525,0.98 -9.08,1.618 -13.536,1.896 -17.63,1.098 -34.828,-2.033 -51.113,-9.303 -3.023,-1.348 -6.572,-0.557 -8.735,1.948 l -148.25,171.757003 c -5.309,6.154 -13.014,9.833 -21.139,10.096 -8.13,0.256 -16.062,-2.921 -21.755,-8.725 l -29.002,-29.536 c -5.63,-5.731 -8.666,-13.627 -8.33,-21.662 0.34,-8.042 4.033,-15.657 10.134,-20.895 l 78.287,-67.275003 c 3.142,-2.7 3.5,-7.435 0.801,-10.577 -2.7,-3.141 -7.435,-3.498 -10.576,-0.8 l -78.286,67.274003 c -9.238,7.932 -14.831,19.463 -15.346,31.644 -0.509,12.167 4.089,24.124 12.613,32.803 l 29,29.533 c 8.294,8.455 19.722,13.231 31.548,13.23 0.463,0 0.928,-0.007 1.392,-0.022 12.308,-0.397 23.978,-5.97 32.016,-15.288 l 144.688,-167.631003 c 16.975,6.708 34.768,9.534 52.986,8.4 5.21,-0.325 10.519,-1.067 15.779,-2.207 4.048,-0.877 6.619,-4.869 5.742,-8.917 -0.876,-4.049 -4.864,-6.618 -8.918,-5.743 z"
           inkscape:connector-curvature="0" />
        <path
           style="stroke-width:1.16358054"
           id="path6174"
           d="m 578.39614,-108.22295 c 2.776,0 5.444,-1.548 6.745,-4.21 9.618,-19.692 25.311,-37.055 44.189,-48.892 3.509,-2.201 4.57,-6.829 2.37,-10.338 -2.2,-3.51 -6.829,-4.569 -10.339,-2.371 -21.219,13.304 -38.869,32.844 -49.699,55.018 -1.817,3.722 -0.274,8.213 3.448,10.031 1.061,0.517 2.182,0.762 3.286,0.762 z"
           inkscape:connector-curvature="0" />
        <g
           style="stroke-width:1.16358054"
           id="g6176"
           transform="translate(292.77514,-297.33195)" />
        <g
           style="stroke-width:1.16358054"
           id="g6178"
           transform="translate(292.77514,-297.33195)" />
        <g
           style="stroke-width:1.16358054"
           id="g6180"
           transform="translate(292.77514,-297.33195)" />
        <g
           style="stroke-width:1.16358054"
           id="g6182"
           transform="translate(292.77514,-297.33195)" />
        <g
           style="stroke-width:1.16358054"
           id="g6184"
           transform="translate(292.77514,-297.33195)" />
        <g
           style="stroke-width:1.16358054"
           id="g6186"
           transform="translate(292.77514,-297.33195)" />
        <g
           style="stroke-width:1.16358054"
           id="g6188"
           transform="translate(292.77514,-297.33195)" />
        <g
           style="stroke-width:1.16358054"
           id="g6190"
           transform="translate(292.77514,-297.33195)" />
        <g
           style="stroke-width:1.16358054"
           id="g6192"
           transform="translate(292.77514,-297.33195)" />
        <g
           style="stroke-width:1.16358054"
           id="g6194"
           transform="translate(292.77514,-297.33195)" />
        <g
           style="stroke-width:1.16358054"
           id="g6196"
           transform="translate(292.77514,-297.33195)" />
        <g
           style="stroke-width:1.16358054"
           id="g6198"
           transform="translate(292.77514,-297.33195)" />
        <g
           style="stroke-width:1.16358054"
           id="g6200"
           transform="translate(292.77514,-297.33195)" />
        <g
           style="stroke-width:1.16358054"
           id="g6202"
           transform="translate(292.77514,-297.33195)" />
        <g
           style="stroke-width:1.16358054"
           id="g6204"
           transform="translate(292.77514,-297.33195)" />
      </g>
    </g>
  </g>
</svg>
