<?xml version="1.0" encoding="UTF-8" standalone="no"?>
<svg
   xmlns:dc="http://purl.org/dc/elements/1.1/"
   xmlns:cc="http://creativecommons.org/ns#"
   xmlns:rdf="http://www.w3.org/1999/02/22-rdf-syntax-ns#"
   xmlns:svg="http://www.w3.org/2000/svg"
   xmlns="http://www.w3.org/2000/svg"
   xmlns:sodipodi="http://sodipodi.sourceforge.net/DTD/sodipodi-0.dtd"
   xmlns:inkscape="http://www.inkscape.org/namespaces/inkscape"
   height="100"
   width="100"
   xml:space="preserve"
   viewBox="0 0 100 100"
   y="0px"
   x="0px"
   id="Capa_1"
   version="1.1"
   sodipodi:docname="cube2.svg"
   inkscape:version="0.92.3 (2405546, 2018-03-11)"><sodipodi:namedview
   pagecolor="#ffffff"
   bordercolor="#666666"
   borderopacity="1"
   objecttolerance="10"
   gridtolerance="10"
   guidetolerance="10"
   inkscape:pageopacity="0"
   inkscape:pageshadow="2"
   inkscape:window-width="1366"
   inkscape:window-height="745"
   id="namedview32"
   showgrid="false"
   inkscape:zoom="2.36"
   inkscape:cx="50"
   inkscape:cy="50"
   inkscape:window-x="-8"
   inkscape:window-y="-8"
   inkscape:window-maximized="1"
   inkscape:current-layer="Capa_1" /><metadata
   id="metadata79"><rdf:RDF><cc:Work
       rdf:about=""><dc:format>image/svg+xml</dc:format><dc:type
         rdf:resource="http://purl.org/dc/dcmitype/StillImage" /><dc:title /></cc:Work></rdf:RDF></metadata><defs
   id="defs77" />



<g
   transform="matrix(0.19074002,0,0,0.19074002,1.3575533,-17.998086)"
   id="g24">
	<g
   id="g22">
		<path
   id="path20"
   d="m 511.912,303.212 c -0.021,-0.154 -0.063,-0.302 -0.091,-0.454 -0.051,-0.28 -0.097,-0.562 -0.171,-0.835 -0.048,-0.175 -0.117,-0.342 -0.174,-0.514 -0.08,-0.242 -0.153,-0.486 -0.25,-0.72 -0.074,-0.176 -0.168,-0.342 -0.251,-0.513 -0.107,-0.219 -0.206,-0.441 -0.328,-0.651 -0.097,-0.167 -0.212,-0.322 -0.319,-0.483 -0.133,-0.201 -0.26,-0.406 -0.407,-0.597 -0.119,-0.154 -0.253,-0.294 -0.381,-0.442 -0.158,-0.182 -0.311,-0.367 -0.482,-0.538 -0.139,-0.138 -0.292,-0.262 -0.439,-0.392 -0.182,-0.161 -0.359,-0.325 -0.554,-0.473 -0.157,-0.12 -0.327,-0.224 -0.492,-0.336 -0.165,-0.111 -0.321,-0.235 -0.494,-0.337 -0.042,-0.024 -0.086,-0.041 -0.128,-0.064 -0.037,-0.021 -0.07,-0.048 -0.108,-0.069 L 393.626,233.126 c -3.014,-1.668 -6.672,-1.668 -9.686,0 l -113.216,62.668 c -0.038,0.021 -0.07,0.048 -0.108,0.07 -0.042,0.023 -0.086,0.04 -0.127,0.064 -0.173,0.102 -0.328,0.225 -0.494,0.337 -0.165,0.111 -0.335,0.216 -0.492,0.336 -0.194,0.148 -0.372,0.312 -0.554,0.473 -0.147,0.13 -0.3,0.254 -0.439,0.392 -0.171,0.171 -0.324,0.356 -0.482,0.538 -0.128,0.147 -0.262,0.288 -0.381,0.442 -0.147,0.191 -0.274,0.396 -0.407,0.597 -0.106,0.161 -0.222,0.316 -0.319,0.483 -0.122,0.21 -0.222,0.432 -0.328,0.651 -0.083,0.172 -0.178,0.337 -0.251,0.513 -0.098,0.234 -0.171,0.478 -0.25,0.72 -0.057,0.172 -0.126,0.338 -0.174,0.514 -0.074,0.273 -0.12,0.555 -0.171,0.835 -0.028,0.152 -0.07,0.3 -0.091,0.454 -0.059,0.438 -0.09,0.882 -0.09,1.33 v 134.79 c 0,3.637 1.975,6.987 5.157,8.749 l 113.216,62.668 c 0.178,0.099 0.366,0.172 0.549,0.26 0.172,0.082 0.341,0.172 0.517,0.244 0.244,0.1 0.494,0.176 0.743,0.255 0.162,0.052 0.322,0.115 0.486,0.158 0.282,0.074 0.569,0.122 0.855,0.171 0.137,0.024 0.272,0.06 0.41,0.078 0.426,0.055 0.854,0.085 1.283,0.085 0.429,0 0.857,-0.03 1.283,-0.085 0.138,-0.018 0.273,-0.055 0.411,-0.078 0.286,-0.049 0.572,-0.097 0.854,-0.171 0.165,-0.043 0.324,-0.106 0.487,-0.158 0.249,-0.08 0.499,-0.155 0.743,-0.255 0.176,-0.072 0.345,-0.163 0.517,-0.245 0.183,-0.087 0.37,-0.16 0.548,-0.259 l 113.217,-62.668 c 3.183,-1.762 5.157,-5.111 5.157,-8.749 v -134.79 c 0.003,-0.449 -0.028,-0.893 -0.087,-1.331 z M 378.785,485.036 362.727,476.148 V 423.79 c 0,-5.522 -4.478,-10 -10,-10 -5.522,0 -10,4.478 -10,10 v 41.287 L 285.569,433.438 V 321.507 l 93.216,51.598 z m 10,-129.256 -92.566,-51.238 92.566,-51.238 92.567,51.238 z m 103.217,77.658 -93.217,51.598 V 373.104 l 93.217,-51.597 z" />
	</g>
</g>
<g
   transform="matrix(0.19074002,0,0,0.19074002,1.3575533,-17.998086)"
   id="g30">
	<g
   id="g28">
		<path
   id="path26"
   d="m 362.532,382.93 c -0.131,-0.63 -0.32,-1.26 -0.57,-1.87 -0.25,-0.6 -0.561,-1.18 -0.92,-1.72 -0.36,-0.55 -0.78,-1.061 -1.24,-1.521 -0.47,-0.46 -0.98,-0.88 -1.52,-1.25 -0.551,-0.359 -1.131,-0.67 -1.73,-0.92 -0.599,-0.25 -1.23,-0.439 -1.87,-0.569 -1.29,-0.261 -2.62,-0.261 -3.91,0 -0.64,0.13 -1.27,0.319 -1.87,0.569 -0.6,0.25 -1.18,0.561 -1.72,0.92 -0.55,0.37 -1.06,0.79 -1.52,1.25 -0.471,0.46 -0.88,0.971 -1.25,1.521 -0.36,0.54 -0.67,1.12 -0.92,1.72 -0.25,0.61 -0.44,1.24 -0.57,1.87 -0.13,0.65 -0.2,1.311 -0.2,1.96 0,0.65 0.07,1.311 0.2,1.95 0.13,0.639 0.32,1.269 0.57,1.87 0.25,0.609 0.56,1.189 0.92,1.73 0.37,0.551 0.779,1.06 1.25,1.52 0.46,0.46 0.97,0.88 1.52,1.24 0.54,0.359 1.12,0.67 1.72,0.92 0.601,0.25 1.23,0.44 1.87,0.569 0.65,0.13 1.3,0.2 1.96,0.2 0.65,0 1.301,-0.07 1.95,-0.2 0.64,-0.13 1.271,-0.319 1.87,-0.569 0.599,-0.25 1.18,-0.56 1.73,-0.92 0.539,-0.36 1.05,-0.78 1.52,-1.24 0.46,-0.46 0.88,-0.97 1.24,-1.52 0.359,-0.54 0.67,-1.12 0.92,-1.73 0.25,-0.601 0.439,-1.23 0.57,-1.87 0.13,-0.64 0.189,-1.3 0.189,-1.95 0,-0.649 -0.06,-1.309 -0.189,-1.96 z" />
	</g>
</g>
<g
   transform="matrix(0.19074002,0,0,0.19074002,1.3575533,-17.998086)"
   id="g36">
	<g
   id="g34">
		<path
   id="path32"
   d="m 246.343,303.213 c -0.018,-0.154 -0.06,-0.301 -0.088,-0.452 -0.051,-0.282 -0.097,-0.565 -0.172,-0.839 -0.047,-0.172 -0.115,-0.336 -0.171,-0.504 -0.081,-0.245 -0.155,-0.492 -0.254,-0.73 -0.072,-0.173 -0.164,-0.335 -0.246,-0.503 -0.108,-0.223 -0.21,-0.448 -0.334,-0.662 -0.095,-0.163 -0.208,-0.315 -0.312,-0.472 -0.135,-0.205 -0.264,-0.413 -0.414,-0.608 -0.116,-0.151 -0.248,-0.289 -0.373,-0.433 -0.16,-0.185 -0.316,-0.373 -0.49,-0.547 -0.137,-0.136 -0.288,-0.258 -0.432,-0.386 -0.184,-0.163 -0.363,-0.329 -0.56,-0.479 -0.156,-0.119 -0.325,-0.223 -0.489,-0.333 -0.166,-0.112 -0.322,-0.236 -0.496,-0.338 -0.041,-0.024 -0.086,-0.041 -0.127,-0.064 -0.037,-0.021 -0.07,-0.048 -0.108,-0.069 L 128.06,233.126 c -3.013,-1.668 -6.673,-1.668 -9.686,0 L 5.159,295.793 c -0.038,0.021 -0.07,0.048 -0.108,0.069 -0.042,0.024 -0.086,0.04 -0.127,0.064 -0.174,0.103 -0.33,0.226 -0.496,0.338 -0.164,0.11 -0.333,0.214 -0.489,0.333 -0.196,0.15 -0.376,0.316 -0.56,0.479 -0.145,0.128 -0.296,0.25 -0.432,0.386 -0.174,0.174 -0.33,0.362 -0.49,0.547 -0.125,0.144 -0.257,0.282 -0.373,0.433 -0.15,0.195 -0.279,0.403 -0.414,0.608 -0.104,0.158 -0.217,0.309 -0.312,0.472 -0.124,0.214 -0.226,0.44 -0.334,0.662 -0.082,0.168 -0.174,0.33 -0.246,0.503 -0.099,0.237 -0.173,0.484 -0.254,0.73 -0.056,0.169 -0.124,0.332 -0.171,0.504 -0.075,0.275 -0.121,0.558 -0.172,0.839 -0.027,0.151 -0.069,0.298 -0.09,0.451 -0.058,0.439 -0.089,0.883 -0.089,1.331 v 134.79 c 0,3.638 1.975,6.987 5.157,8.749 l 113.216,62.668 c 0.178,0.099 0.365,0.172 0.547,0.259 0.173,0.082 0.342,0.173 0.518,0.245 0.243,0.099 0.492,0.175 0.74,0.254 0.164,0.052 0.324,0.115 0.49,0.159 0.281,0.074 0.566,0.122 0.85,0.171 0.139,0.024 0.275,0.061 0.415,0.079 0.426,0.055 0.854,0.085 1.282,0.085 0.428,0 0.857,-0.03 1.282,-0.085 0.138,-0.018 0.274,-0.055 0.411,-0.078 0.286,-0.049 0.572,-0.097 0.854,-0.171 0.165,-0.043 0.324,-0.106 0.487,-0.158 0.249,-0.08 0.499,-0.155 0.743,-0.255 0.176,-0.072 0.345,-0.163 0.517,-0.245 0.183,-0.087 0.37,-0.16 0.548,-0.259 l 113.217,-62.668 c 3.182,-1.762 5.157,-5.111 5.157,-8.749 v -134.79 c 0,-0.448 -0.031,-0.892 -0.09,-1.33 z M 113.218,485.036 20.002,433.438 V 321.507 l 93.216,51.598 z m 10,-129.256 -92.567,-51.238 92.567,-51.238 92.568,51.238 z m 103.217,77.658 -93.217,51.598 V 373.104 l 16.058,-8.889 v 44.039 c 0,5.522 4.477,10 10,10 5.523,0 10,-4.478 10,-10 v -55.109 l 57.159,-31.639 z" />
	</g>
</g>
<g
   transform="matrix(0.19074002,0,0,0.19074002,1.3575533,-17.998086)"
   id="g42">
	<g
   id="g40">
		<path
   id="path38"
   d="m 169.082,444.121 c -0.13,-0.642 -0.32,-1.271 -0.57,-1.871 -0.25,-0.601 -0.56,-1.181 -0.92,-1.721 -0.37,-0.55 -0.78,-1.06 -1.24,-1.52 -0.47,-0.47 -0.98,-0.88 -1.52,-1.25 -0.55,-0.36 -1.13,-0.67 -1.73,-0.92 -0.6,-0.25 -1.23,-0.44 -1.87,-0.57 -1.29,-0.26 -2.62,-0.26 -3.91,0 -0.64,0.13 -1.27,0.32 -1.87,0.57 -0.6,0.25 -1.19,0.56 -1.73,0.92 -0.55,0.37 -1.06,0.78 -1.52,1.25 -0.46,0.46 -0.88,0.97 -1.24,1.52 -0.36,0.54 -0.67,1.12 -0.92,1.721 -0.25,0.6 -0.44,1.229 -0.57,1.87 -0.13,0.649 -0.19,1.3 -0.19,1.96 0,0.649 0.06,1.3 0.19,1.949 0.13,0.641 0.32,1.271 0.57,1.87 0.25,0.601 0.56,1.19 0.92,1.73 0.37,0.55 0.78,1.06 1.24,1.52 1.86,1.86 4.44,2.931 7.07,2.931 0.66,0 1.31,-0.07 1.96,-0.2 0.64,-0.13 1.27,-0.32 1.87,-0.57 0.6,-0.25 1.18,-0.56 1.73,-0.92 0.54,-0.36 1.05,-0.78 1.52,-1.24 0.46,-0.46 0.87,-0.97 1.24,-1.52 0.36,-0.54 0.67,-1.13 0.92,-1.73 0.25,-0.6 0.44,-1.23 0.57,-1.87 0.13,-0.649 0.19,-1.3 0.19,-1.949 0,-0.66 -0.06,-1.311 -0.19,-1.96 z" />
	</g>
</g>
<g
   transform="translate(0,-412.00098)"
   id="g44">
</g>
<g
   transform="translate(0,-412.00098)"
   id="g46">
</g>
<g
   transform="translate(0,-412.00098)"
   id="g48">
</g>
<g
   transform="translate(0,-412.00098)"
   id="g50">
</g>
<g
   transform="translate(0,-412.00098)"
   id="g52">
</g>
<g
   transform="translate(0,-412.00098)"
   id="g54">
</g>
<g
   transform="translate(0,-412.00098)"
   id="g56">
</g>
<g
   transform="translate(0,-412.00098)"
   id="g58">
</g>
<g
   transform="translate(0,-412.00098)"
   id="g60">
</g>
<g
   transform="translate(0,-412.00098)"
   id="g62">
</g>
<g
   transform="translate(0,-412.00098)"
   id="g64">
</g>
<g
   transform="translate(0,-412.00098)"
   id="g66">
</g>
<g
   transform="translate(0,-412.00098)"
   id="g68">
</g>
<g
   transform="translate(0,-412.00098)"
   id="g70">
</g>
<g
   transform="translate(0,-412.00098)"
   id="g72">
</g>
<path
   style="fill:#ffa408;fill-opacity:0.16470589;stroke:none;stroke-width:4.237288;stroke-linecap:round;stroke-linejoin:round;stroke-miterlimit:4;stroke-dasharray:none;stroke-opacity:1"
   d="M 16.377006,44.928392 C 11.727703,42.358872 7.871181,40.20665 7.806956,40.145677 7.6293582,39.97707 24.387228,30.805085 24.872881,30.805085 c 0.450818,0 17.228892,9.193933 17.052933,9.344548 -0.105679,0.09046 -14.642095,8.141245 -16.226774,8.986968 -0.74214,0.39607 -2.100787,-0.217259 -9.322034,-4.208209 z"
   id="path841"
   inkscape:connector-curvature="0" /><path
   style="fill:#ffa408;fill-opacity:0.16470588;stroke:none;stroke-width:4.237288;stroke-linecap:round;stroke-linejoin:round;stroke-miterlimit:4;stroke-dasharray:none;stroke-opacity:1"
   d="m 13.961864,69.306923 -8.7923725,-4.88565 v -10.38154 c 0,-5.709847 0.1516241,-10.317982 0.3369424,-10.240298 1.802996,0.755798 17.1648091,9.517932 17.2987281,9.866919 0.09721,0.253315 0.125514,4.975342 0.06291,10.493395 L 22.75424,74.192572 Z"
   id="path843"
   inkscape:connector-curvature="0" /><path
   style="fill:#ffa408;fill-opacity:0.16470588;stroke:none;stroke-width:4.237288;stroke-linecap:round;stroke-linejoin:round;stroke-miterlimit:4;stroke-dasharray:none;stroke-opacity:1"
   d="M 26.779661,63.864085 V 53.46212 l 1.377119,-0.83852 1.377118,-0.83852 0.121087,4.527219 c 0.127864,4.780597 0.435531,5.636854 2.025414,5.636854 1.860701,0 2.302652,-1.385531 2.302652,-7.218894 v -5.335414 l 5.084746,-2.790896 5.084745,-2.790897 -9.04e-4,10.445169 -9.04e-4,10.445169 -5.613503,3.07266 c -3.087426,1.689964 -6.995917,3.841563 -8.685536,4.781331 l -3.072034,1.708669 z m 6.606761,4.229135 c 0.642974,-0.981301 0.642974,-1.137342 0,-2.118644 -1.156492,-1.76503 -3.640659,-1.089865 -3.640659,0.989485 0,2.297429 2.389572,3.038561 3.640659,1.129159 z"
   id="path847"
   inkscape:connector-curvature="0" /><path
   style="fill:#ffa408;fill-opacity:0.16470588;stroke:none;stroke-width:4.237288;stroke-linecap:round;stroke-linejoin:round;stroke-miterlimit:4;stroke-dasharray:none;stroke-opacity:1"
   d="m 67.033898,44.974244 c -4.544491,-2.54488 -8.213453,-4.77191 -8.153249,-4.948955 0.0602,-0.177045 3.829543,-2.379344 8.376309,-4.893999 l 8.266846,-4.5721 8.149115,4.502972 c 4.482013,2.476634 8.301715,4.648544 8.488227,4.826466 0.256005,0.244215 -16.35553,9.889693 -16.77868,9.74253 -0.04722,-0.01642 -3.804076,-2.112033 -8.348568,-4.656914 z"
   id="path849"
   inkscape:connector-curvature="0" /><path
   style="fill:#ffa408;fill-opacity:0.16470588;stroke:none;stroke-width:4.237288;stroke-linecap:round;stroke-linejoin:round;stroke-miterlimit:4;stroke-dasharray:none;stroke-opacity:1"
   d="m 77.630314,63.710653 0.0032,-10.447941 5.38133,-2.966102 c 2.959731,-1.631356 6.870551,-3.789531 8.690711,-4.795944 l 3.309381,-1.829843 -0.113398,10.494173 -0.113397,10.494173 -8.580509,4.749713 -8.580508,4.749713 z"
   id="path851"
   inkscape:connector-curvature="0" /><path
   style="fill:#ffa408;fill-opacity:0.16470588;stroke:none;stroke-width:4.237288;stroke-linecap:round;stroke-linejoin:round;stroke-miterlimit:4;stroke-dasharray:none;stroke-opacity:1"
   d="m 72.013469,73.457023 -1.164497,-0.702786 -7.57e-4,-5.096395 c -7.97e-4,-5.363378 -0.47534,-6.987514 -2.037496,-6.973387 -1.70297,0.0154 -1.98247,0.678074 -2.20055,5.217344 l -0.211864,4.409908 -5.084746,-2.851826 -5.084745,-2.851825 -0.113398,-10.468617 -0.113398,-10.468616 3.309381,1.829843 c 1.82016,1.006413 5.73098,3.164588 8.690711,4.795944 l 5.38133,2.966102 0.0032,10.487288 c 0.0018,5.768008 -0.04446,10.469855 -0.10272,10.448548 -0.05826,-0.0213 -0.629956,-0.354993 -1.270429,-0.741525 z M 70.480741,56.33415 c 0.711659,-1.329747 -0.175397,-2.859574 -1.658097,-2.859574 -1.441364,0 -2.212475,0.68573 -2.212475,1.967499 0,2.024851 2.905895,2.694591 3.870572,0.892075 z"
   id="path853"
   inkscape:connector-curvature="0" /></svg>