<?xml version="1.0" encoding="UTF-8" standalone="no"?>
<svg
   xmlns:dc="http://purl.org/dc/elements/1.1/"
   xmlns:cc="http://creativecommons.org/ns#"
   xmlns:rdf="http://www.w3.org/1999/02/22-rdf-syntax-ns#"
   xmlns:svg="http://www.w3.org/2000/svg"
   xmlns="http://www.w3.org/2000/svg"
   xmlns:sodipodi="http://sodipodi.sourceforge.net/DTD/sodipodi-0.dtd"
   xmlns:inkscape="http://www.inkscape.org/namespaces/inkscape"
   height="100"
   width="100"
   xml:space="preserve"
   viewBox="0 0 100 100"
   y="0px"
   x="0px"
   id="Capa_1"
   version="1.1"
   sodipodi:docname="cube.svg"
   inkscape:version="0.92.3 (2405546, 2018-03-11)"><sodipodi:namedview
   pagecolor="#ffffff"
   bordercolor="#666666"
   borderopacity="1"
   objecttolerance="10"
   gridtolerance="10"
   guidetolerance="10"
   inkscape:pageopacity="0"
   inkscape:pageshadow="2"
   inkscape:window-width="1366"
   inkscape:window-height="745"
   id="namedview26"
   showgrid="false"
   inkscape:zoom="3.337544"
   inkscape:cx="44.586146"
   inkscape:cy="64.854752"
   inkscape:window-x="-8"
   inkscape:window-y="-8"
   inkscape:window-maximized="1"
   inkscape:current-layer="Capa_1" /><metadata
   id="metadata79"><rdf:RDF><cc:Work
       rdf:about=""><dc:format>image/svg+xml</dc:format><dc:type
         rdf:resource="http://purl.org/dc/dcmitype/StillImage" /><dc:title /></cc:Work></rdf:RDF></metadata><defs
   id="defs77" />






<g
   transform="matrix(0.35047475,0,0,0.35047475,6.8153775,-80.354878)"
   id="g36">
	<g
   id="g34">
		<path
   id="path32"
   d="m 246.343,303.213 c -0.018,-0.154 -0.06,-0.301 -0.088,-0.452 -0.051,-0.282 -0.097,-0.565 -0.172,-0.839 -0.047,-0.172 -0.115,-0.336 -0.171,-0.504 -0.081,-0.245 -0.155,-0.492 -0.254,-0.73 -0.072,-0.173 -0.164,-0.335 -0.246,-0.503 -0.108,-0.223 -0.21,-0.448 -0.334,-0.662 -0.095,-0.163 -0.208,-0.315 -0.312,-0.472 -0.135,-0.205 -0.264,-0.413 -0.414,-0.608 -0.116,-0.151 -0.248,-0.289 -0.373,-0.433 -0.16,-0.185 -0.316,-0.373 -0.49,-0.547 -0.137,-0.136 -0.288,-0.258 -0.432,-0.386 -0.184,-0.163 -0.363,-0.329 -0.56,-0.479 -0.156,-0.119 -0.325,-0.223 -0.489,-0.333 -0.166,-0.112 -0.322,-0.236 -0.496,-0.338 -0.041,-0.024 -0.086,-0.041 -0.127,-0.064 -0.037,-0.021 -0.07,-0.048 -0.108,-0.069 L 128.06,233.126 c -3.013,-1.668 -6.673,-1.668 -9.686,0 L 5.159,295.793 c -0.038,0.021 -0.07,0.048 -0.108,0.069 -0.042,0.024 -0.086,0.04 -0.127,0.064 -0.174,0.103 -0.33,0.226 -0.496,0.338 -0.164,0.11 -0.333,0.214 -0.489,0.333 -0.196,0.15 -0.376,0.316 -0.56,0.479 -0.145,0.128 -0.296,0.25 -0.432,0.386 -0.174,0.174 -0.33,0.362 -0.49,0.547 -0.125,0.144 -0.257,0.282 -0.373,0.433 -0.15,0.195 -0.279,0.403 -0.414,0.608 -0.104,0.158 -0.217,0.309 -0.312,0.472 -0.124,0.214 -0.226,0.44 -0.334,0.662 -0.082,0.168 -0.174,0.33 -0.246,0.503 -0.099,0.237 -0.173,0.484 -0.254,0.73 -0.056,0.169 -0.124,0.332 -0.171,0.504 -0.075,0.275 -0.121,0.558 -0.172,0.839 -0.027,0.151 -0.069,0.298 -0.09,0.451 -0.058,0.439 -0.089,0.883 -0.089,1.331 v 134.79 c 0,3.638 1.975,6.987 5.157,8.749 l 113.216,62.668 c 0.178,0.099 0.365,0.172 0.547,0.259 0.173,0.082 0.342,0.173 0.518,0.245 0.243,0.099 0.492,0.175 0.74,0.254 0.164,0.052 0.324,0.115 0.49,0.159 0.281,0.074 0.566,0.122 0.85,0.171 0.139,0.024 0.275,0.061 0.415,0.079 0.426,0.055 0.854,0.085 1.282,0.085 0.428,0 0.857,-0.03 1.282,-0.085 0.138,-0.018 0.274,-0.055 0.411,-0.078 0.286,-0.049 0.572,-0.097 0.854,-0.171 0.165,-0.043 0.324,-0.106 0.487,-0.158 0.249,-0.08 0.499,-0.155 0.743,-0.255 0.176,-0.072 0.345,-0.163 0.517,-0.245 0.183,-0.087 0.37,-0.16 0.548,-0.259 l 113.217,-62.668 c 3.182,-1.762 5.157,-5.111 5.157,-8.749 v -134.79 c 0,-0.448 -0.031,-0.892 -0.09,-1.33 z M 113.218,485.036 20.002,433.438 V 321.507 l 93.216,51.598 z m 10,-129.256 -92.567,-51.238 92.567,-51.238 92.568,51.238 z m 103.217,77.658 -93.217,51.598 V 373.104 l 16.058,-8.889 v 44.039 c 0,5.522 4.477,10 10,10 5.523,0 10,-4.478 10,-10 v -55.109 l 57.159,-31.639 z" />
	</g>
</g><g
   transform="matrix(0.35047475,0,0,0.35047475,6.8153775,-80.354878)"
   id="g42">
	<g
   id="g40">
		<path
   id="path38"
   d="m 169.082,444.121 c -0.13,-0.642 -0.32,-1.271 -0.57,-1.871 -0.25,-0.601 -0.56,-1.181 -0.92,-1.721 -0.37,-0.55 -0.78,-1.06 -1.24,-1.52 -0.47,-0.47 -0.98,-0.88 -1.52,-1.25 -0.55,-0.36 -1.13,-0.67 -1.73,-0.92 -0.6,-0.25 -1.23,-0.44 -1.87,-0.57 -1.29,-0.26 -2.62,-0.26 -3.91,0 -0.64,0.13 -1.27,0.32 -1.87,0.57 -0.6,0.25 -1.19,0.56 -1.73,0.92 -0.55,0.37 -1.06,0.78 -1.52,1.25 -0.46,0.46 -0.88,0.97 -1.24,1.52 -0.36,0.54 -0.67,1.12 -0.92,1.721 -0.25,0.6 -0.44,1.229 -0.57,1.87 -0.13,0.649 -0.19,1.3 -0.19,1.96 0,0.649 0.06,1.3 0.19,1.949 0.13,0.641 0.32,1.271 0.57,1.87 0.25,0.601 0.56,1.19 0.92,1.73 0.37,0.55 0.78,1.06 1.24,1.52 1.86,1.86 4.44,2.931 7.07,2.931 0.66,0 1.31,-0.07 1.96,-0.2 0.64,-0.13 1.27,-0.32 1.87,-0.57 0.6,-0.25 1.18,-0.56 1.73,-0.92 0.54,-0.36 1.05,-0.78 1.52,-1.24 0.46,-0.46 0.87,-0.97 1.24,-1.52 0.36,-0.54 0.67,-1.13 0.92,-1.73 0.25,-0.6 0.44,-1.23 0.57,-1.87 0.13,-0.649 0.19,-1.3 0.19,-1.949 0,-0.66 -0.06,-1.311 -0.19,-1.96 z" />
	</g>
</g>
<g
   transform="translate(0,-412.00098)"
   id="g44">
</g>
<g
   transform="translate(0,-412.00098)"
   id="g46">
</g>
<g
   transform="translate(0,-412.00098)"
   id="g48">
</g>
<g
   transform="translate(0,-412.00098)"
   id="g50">
</g>
<g
   transform="translate(0,-412.00098)"
   id="g52">
</g>
<g
   transform="translate(0,-412.00098)"
   id="g54">
</g>
<g
   transform="translate(0,-412.00098)"
   id="g56">
</g>
<g
   transform="translate(0,-412.00098)"
   id="g58">
</g>
<g
   transform="translate(0,-412.00098)"
   id="g60">
</g>
<g
   transform="translate(0,-412.00098)"
   id="g62">
</g>
<g
   transform="translate(0,-412.00098)"
   id="g64">
</g>
<g
   transform="translate(0,-412.00098)"
   id="g66">
</g>
<g
   transform="translate(0,-412.00098)"
   id="g68">
</g>
<g
   transform="translate(0,-412.00098)"
   id="g70">
</g>
<g
   transform="translate(0,-412.00098)"
   id="g72">
</g>
<path
   style="fill:#ffa408;fill-opacity:0.16470589;stroke:none;stroke-width:2.99621511;stroke-linecap:round;stroke-linejoin:round;stroke-miterlimit:4;stroke-dasharray:none;stroke-opacity:1"
   d="M 34.08121,35.379667 C 25.386679,30.55614 18.207806,26.54445 18.128158,26.464803 c -0.07965,-0.07965 6.764399,-3.966963 15.208994,-8.638479 8.444595,-4.671515 15.629625,-8.6697236 15.966733,-8.8849081 0.554533,-0.353974 2.138638,0.4528835 16.628994,8.4699151 8.808839,4.873638 16.048525,8.892258 16.088189,8.930266 0.06685,0.06405 -31.561085,17.637856 -31.954509,17.755266 -0.09741,0.02906 -7.290819,-3.893669 -15.985349,-8.717196 z"
   id="path833"
   inkscape:connector-curvature="0" /><path
   style="fill:#ffa408;fill-opacity:0.16470588;stroke:none;stroke-width:2.99621511;stroke-linecap:round;stroke-linejoin:round;stroke-miterlimit:4;stroke-dasharray:none;stroke-opacity:1"
   d="M 30.264238,80.5021 14.234486,71.599035 14.157395,52.203617 c -0.0424,-10.667479 -0.0044,-19.395417 0.08441,-19.395417 0.08882,0 7.370609,3.993016 16.181747,8.873369 l 16.020251,8.87337 v 19.440863 c 0,10.692477 -0.03371,19.433776 -0.07491,19.425113 -0.0412,-0.0087 -7.288293,-4.022131 -16.104655,-8.918815 z"
   id="path835"
   inkscape:connector-curvature="0" /><path
   style="fill:#ffa408;fill-opacity:0.16470588;stroke:none;stroke-width:2.99621511;stroke-linecap:round;stroke-linejoin:round;stroke-miterlimit:4;stroke-dasharray:none;stroke-opacity:1"
   d="M 53.634716,69.956117 V 50.524469 l 2.621688,-1.478906 2.621688,-1.478906 0.149811,8.275995 c 0.120293,6.64536 0.237816,8.408843 0.596465,8.950232 0.51319,0.774674 2.035166,1.572926 2.998993,1.572926 0.972837,0 2.664598,-0.88504 3.081481,-1.612069 0.25783,-0.449645 0.407912,-3.651541 0.513978,-10.9654 l 0.14981,-10.330308 9.587889,-5.315603 c 5.273339,-2.923582 9.689994,-5.319795 9.814789,-5.324917 0.124798,-0.0051 0.192213,8.710812 0.149811,19.368743 l -0.07709,19.378056 -9.138456,5.060092 c -5.026151,2.783049 -12.273247,6.793328 -16.104657,8.911727 l -6.9662,3.851634 z m 10.796182,9.138535 c 2.343947,-1.212101 2.343947,-5.069806 0,-6.281907 -3.223982,-1.667187 -6.616572,1.722779 -4.949796,4.945966 0.852357,1.648275 3.147771,2.267805 4.949796,1.335941 z"
   id="path837"
   inkscape:connector-curvature="0" /></svg>