<?xml version="1.0" encoding="iso-8859-1"?>
<!-- Generator: Adobe Illustrator 19.0.0, SVG Export Plug-In . SVG Version: 6.00 Build 0)  -->
<svg version="1.1" id="Capa_1" xmlns="http://www.w3.org/2000/svg" xmlns:xlink="http://www.w3.org/1999/xlink" x="0px" y="0px"
	 viewBox="0 0 512 512" style="enable-background:new 0 0 512 512;" xml:space="preserve">
<path style="fill:#FCD752;" d="M367.706,118.832c75.26,0,136.253,60.993,136.253,136.253s-60.993,136.253-136.253,136.253
	s-136.253-60.993-136.253-136.253c0-21.079,4.889-40.876,13.465-58.669l-29.495-29.495h-96.179v40.074H79.17v-40.074h-16.03
	l-16.029,16.03v56.105H7.036V118.832H367.706z"/>
<g>
	<path style="fill:#FABE50;" d="M263.512,255.085c0-21.079,4.889-40.876,13.465-58.669l-29.495-29.495h-32.06l29.495,29.495
		c-8.577,17.793-13.465,37.59-13.465,58.669c0,75.26,60.993,136.253,136.253,136.253c5.433,0,10.764-0.405,16.03-1.023
		C316.046,382.37,263.512,324.913,263.512,255.085z"/>
	<rect x="7.036" y="118.833" style="fill:#FABE50;" width="32.06" height="120.22"/>
</g>
<path style="fill:#D8D7DA;" d="M367.706,223.026c17.713,0,32.06,14.347,32.06,32.06s-14.347,32.06-32.06,32.06
	s-32.06-14.347-32.06-32.06C335.646,237.372,349.993,223.026,367.706,223.026z"/>
<g>
	<path style="fill:#231F20;" d="M368.208,112.209H207.912v15.076h160.296c70.974,0,128.715,57.741,128.715,128.715
		c0,10.241-1.205,20.434-3.581,30.293l14.656,3.534c2.655-11.015,4.001-22.395,4.001-33.826
		C512,176.713,447.496,112.209,368.208,112.209z"/>
	<path style="fill:#231F20;" d="M442.22,361.327c-21.734,15.301-47.326,23.388-74.012,23.388
		c-70.974,0-128.715-57.741-128.715-128.714c0-19.251,4.279-37.888,12.718-55.395l2.323-4.82l-20.41-20.411h13.861v-15.077H112.208
		v40.074H87.211v-40.074H60.52l-20.446,20.447v51.688H15.077v-64.596H0v79.672h55.151v-60.521l11.614-11.615h5.369v40.074h55.151
		v-40.074h85.519l23.577,23.577c-7.94,18.134-11.963,37.299-11.963,57.049c0,79.287,64.504,143.791,143.792,143.791
		c29.808,0,58.402-9.037,82.69-26.136c23.741-16.713,41.686-39.849,51.891-66.909l-14.107-5.32
		C479.547,325.647,463.481,346.361,442.22,361.327z"/>
	<polygon style="fill:#231F20;" points="15.077,127.286 183.866,127.286 183.866,112.209 0,112.209 0,143.791 15.077,143.791 	"/>
</g>
<path style="fill:#FFFFFF;" d="M368.208,335.672v-15.077c-35.619,0-64.596-28.977-64.596-64.595s28.978-64.596,64.596-64.596
	s64.596,28.977,64.596,64.596h15.076c0-43.931-35.741-79.672-79.672-79.672s-79.672,35.741-79.672,79.672
	C288.536,299.931,324.277,335.672,368.208,335.672z"/>
<rect x="296.072" y="160.293" style="fill:#231F20;" width="16.029" height="15.077"/>
<rect x="264.02" y="160.293" style="fill:#FFFFFF;" width="16.03" height="15.077"/>
<g>
	<path style="fill:#231F20;" d="M368.208,216.403c-21.835,0-39.598,17.763-39.598,39.597c0,21.835,17.763,39.597,39.598,39.597
		c21.835,0,39.598-17.763,39.598-39.597C407.806,234.165,390.043,216.403,368.208,216.403z M368.208,280.521
		c-13.522,0-24.521-11-24.521-24.52c0-13.521,11-24.52,24.521-24.52s24.521,11,24.521,24.52
		C392.73,269.521,381.73,280.521,368.208,280.521z"/>
	<rect x="384.24" y="320.597" style="fill:#231F20;" width="16.029" height="15.077"/>
	<rect x="400.271" y="304.565" style="fill:#231F20;" width="16.029" height="15.077"/>
	<rect x="416.302" y="288.534" style="fill:#231F20;" width="16.03" height="15.077"/>
</g>
<g>
</g>
<g>
</g>
<g>
</g>
<g>
</g>
<g>
</g>
<g>
</g>
<g>
</g>
<g>
</g>
<g>
</g>
<g>
</g>
<g>
</g>
<g>
</g>
<g>
</g>
<g>
</g>
<g>
</g>
</svg>
