<?xml version="1.0" encoding="UTF-8" standalone="no"?>
<!-- Generator: Adobe Illustrator 19.0.0, SVG Export Plug-In . SVG Version: 6.00 Build 0)  -->

<svg
   xmlns:dc="http://purl.org/dc/elements/1.1/"
   xmlns:cc="http://creativecommons.org/ns#"
   xmlns:rdf="http://www.w3.org/1999/02/22-rdf-syntax-ns#"
   xmlns:svg="http://www.w3.org/2000/svg"
   xmlns="http://www.w3.org/2000/svg"
   xmlns:sodipodi="http://sodipodi.sourceforge.net/DTD/sodipodi-0.dtd"
   xmlns:inkscape="http://www.inkscape.org/namespaces/inkscape"
   version="1.1"
   id="Capa_1"
   x="0px"
   y="0px"
   viewBox="0 0 100 100"
   xml:space="preserve"
   sodipodi:docname="menu-bare.svg"
   width="100"
   height="100"
   inkscape:version="0.92.1 r15371"><metadata
     id="metadata67"><rdf:RDF><cc:Work
         rdf:about=""><dc:format>image/svg+xml</dc:format><dc:type
           rdf:resource="http://purl.org/dc/dcmitype/StillImage" /><dc:title></dc:title></cc:Work></rdf:RDF></metadata><defs
     id="defs65" /><sodipodi:namedview
     pagecolor="#ffffff"
     bordercolor="#666666"
     borderopacity="1"
     objecttolerance="10"
     gridtolerance="10"
     guidetolerance="10"
     inkscape:pageopacity="0"
     inkscape:pageshadow="2"
     inkscape:window-width="1920"
     inkscape:window-height="1057"
     id="namedview63"
     showgrid="false"
     inkscape:zoom="3.7487963"
     inkscape:cx="5.2870112"
     inkscape:cy="68.073967"
     inkscape:window-x="1072"
     inkscape:window-y="266"
     inkscape:window-maximized="1"
     inkscape:current-layer="Capa_1"
     inkscape:pagecheckerboard="true" /><path
     d="M 75.7594,37.884985 H 24.240597 c -1.065377,0 -1.929327,-0.863961 -1.929327,-1.929328 V 11.936696 c 0,-1.065377 0.86395,-1.929327 1.929327,-1.929327 h 51.518616 c 1.065564,0 1.929327,0.86395 1.929327,1.929327 v 24.018961 c 1.88e-4,1.065565 -0.863763,1.929328 -1.92914,1.929328 z M 26.169924,34.026331 H 73.829887 V 13.866024 H 26.169924 Z"
     id="path8"
     inkscape:connector-curvature="0"
     style="stroke-width:0.99999994;fill:#ffffff;fill-opacity:1" /><path
     d="m 39.032353,17.598691 c -0.995333,0 -1.47342,0.127338 -2.202326,1.407255 l -1.52301,2.661883 -1.522812,-2.661499 c -0.729093,-1.280301 -1.207181,-1.407639 -2.202909,-1.407639 -0.699385,0 -1.516063,0.397051 -1.516063,1.516063 v 10.062207 c 0,0.698802 0.785816,1.017149 1.516063,1.017149 0.730247,0 1.516262,-0.318347 1.516262,-1.017149 v -5.545844 l 1.167239,2.138074 c 0.204702,0.392425 0.553714,0.599831 1.008842,0.599831 0.460918,0 0.824986,-0.203933 1.053221,-0.589797 l 1.18943,-2.032156 v 5.429892 c 0,0.698802 0.785816,1.017149 1.515876,1.017149 0.730247,0 1.516251,-0.318347 1.516251,-1.017149 V 19.114557 c 1.98e-4,-1.117649 -0.783113,-1.515866 -1.516064,-1.515866 z"
     id="path10"
     inkscape:connector-curvature="0"
     style="stroke-width:0.99999994;fill:#ffffff;fill-opacity:1" /><path
     d="m 49.176946,20.298008 c 0.589224,0 1.000553,-0.561815 1.000553,-1.366348 0,-0.641882 -0.313126,-1.332969 -1.000553,-1.332969 h -5.920904 c -0.649992,0 -1.349762,0.318148 -1.349762,1.016951 v 10.561131 c 0,0.698804 0.699572,1.01714 1.349762,1.01714 h 5.920904 c 0.687427,0 1.000553,-0.691088 1.000553,-1.33297 0,-0.804534 -0.411329,-1.366545 -1.000553,-1.366545 h -4.238539 v -2.389663 h 2.275833 c 0.656939,0 1.000553,-0.60369 1.000553,-1.200037 0,-0.714816 -0.420781,-1.233425 -1.000553,-1.233425 h -2.275833 v -2.373067 z"
     id="path12"
     inkscape:connector-curvature="0"
     style="stroke-width:0.99999994;fill:#ffffff;fill-opacity:1" /><path
     d="m 58.290507,17.598691 c -0.920861,0 -1.516064,0.392809 -1.516064,1.000543 v 4.76583 l -2.281426,-4.3516 c -0.67314,-1.292842 -1.112451,-1.414971 -2.106828,-1.414971 -0.754559,0 -1.515866,0.314676 -1.515866,1.016952 v 10.561131 c 0,0.698803 0.785806,1.017149 1.515866,1.017149 0.730247,0 1.516261,-0.318346 1.516261,-1.017149 V 24.37507 l 2.749292,5.006407 c 0.39126,0.720212 1.081381,0.812436 1.638765,0.812436 0.730247,0 1.516261,-0.318336 1.516261,-1.01714 V 18.599234 c -1.98e-4,-0.607922 -0.595203,-1.000543 -1.516261,-1.000543 z"
     id="path14"
     inkscape:connector-curvature="0"
     style="stroke-width:0.99999994;fill:#ffffff;fill-opacity:1" /><path
     d="m 68.418515,17.598691 c -0.921069,0 -1.516262,0.392809 -1.516262,1.000543 v 7.550808 c 0,0.971615 -0.450688,1.444107 -1.377735,1.444107 -0.927234,0 -1.377921,-0.472492 -1.377921,-1.444107 v -7.550808 c 0,-0.691077 -0.761505,-1.000543 -1.515877,-1.000543 -0.921057,0 -1.51625,0.392809 -1.51625,1.000543 v 7.550808 c 0,2.672116 1.566225,4.14381 4.410048,4.14381 2.843834,0 4.41006,-1.471694 4.41006,-4.14381 v -7.550808 c 0,-0.691275 -0.761318,-1.000543 -1.516063,-1.000543 z"
     id="path16"
     inkscape:connector-curvature="0"
     style="stroke-width:0.99999994;fill:#ffffff;fill-opacity:1" /><path
     d="M 83.570283,0.60923566 H 21.928298 c -4.095768,0 -7.427911,3.33213144 -7.427911,7.42789944 V 91.962852 c 0,4.09557 3.332143,7.427909 7.427911,7.427909 h 61.641985 c 1.065377,0 1.929327,-0.863949 1.929327,-1.929326 V 2.5385625 c 0,-1.0655746 -0.86395,-1.92932684 -1.929327,-1.92932684 z M 18.359041,8.0371351 c 0,-1.9681023 1.601143,-3.5692457 3.569257,-3.5692457 H 81.640956 V 82.134474 H 18.359041 Z m 3.569257,87.4949729 c -1.968114,0 -3.569257,-1.601154 -3.569257,-3.569256 v -5.969725 h 63.281915 v 2.786332 H 33.759311 c -1.065377,0 -1.929327,0.863959 -1.929327,1.929326 0,1.065377 0.86395,1.929327 1.929327,1.929327 h 47.881645 v 2.893996 z"
     id="path24"
     inkscape:connector-curvature="0"
     style="stroke-width:0.99999994;fill:#ffffff;fill-opacity:1" /><g
     id="g32"
     transform="matrix(0.19293268,0,0,0.19293268,0.60923494,0.60923574)"
     style="stroke-width:5.18315554;fill:#ffffff;fill-opacity:1" /><g
     id="g34"
     transform="matrix(0.19293268,0,0,0.19293268,0.60923494,0.60923574)"
     style="stroke-width:5.18315554;fill:#ffffff;fill-opacity:1" /><g
     id="g36"
     transform="matrix(0.19293268,0,0,0.19293268,0.60923494,0.60923574)"
     style="stroke-width:5.18315554;fill:#ffffff;fill-opacity:1" /><g
     id="g38"
     transform="matrix(0.19293268,0,0,0.19293268,0.60923494,0.60923574)"
     style="stroke-width:5.18315554;fill:#ffffff;fill-opacity:1" /><g
     id="g40"
     transform="matrix(0.19293268,0,0,0.19293268,0.60923494,0.60923574)"
     style="stroke-width:5.18315554;fill:#ffffff;fill-opacity:1" /><g
     id="g42"
     transform="matrix(0.19293268,0,0,0.19293268,0.60923494,0.60923574)"
     style="stroke-width:5.18315554;fill:#ffffff;fill-opacity:1" /><g
     id="g44"
     transform="matrix(0.19293268,0,0,0.19293268,0.60923494,0.60923574)"
     style="stroke-width:5.18315554;fill:#ffffff;fill-opacity:1" /><g
     id="g46"
     transform="matrix(0.19293268,0,0,0.19293268,0.60923494,0.60923574)"
     style="stroke-width:5.18315554;fill:#ffffff;fill-opacity:1" /><g
     id="g48"
     transform="matrix(0.19293268,0,0,0.19293268,0.60923494,0.60923574)"
     style="stroke-width:5.18315554;fill:#ffffff;fill-opacity:1" /><g
     id="g50"
     transform="matrix(0.19293268,0,0,0.19293268,0.60923494,0.60923574)"
     style="stroke-width:5.18315554;fill:#ffffff;fill-opacity:1" /><g
     id="g52"
     transform="matrix(0.19293268,0,0,0.19293268,0.60923494,0.60923574)"
     style="stroke-width:5.18315554;fill:#ffffff;fill-opacity:1" /><g
     id="g54"
     transform="matrix(0.19293268,0,0,0.19293268,0.60923494,0.60923574)"
     style="stroke-width:5.18315554;fill:#ffffff;fill-opacity:1" /><g
     id="g56"
     transform="matrix(0.19293268,0,0,0.19293268,0.60923494,0.60923574)"
     style="stroke-width:5.18315554;fill:#ffffff;fill-opacity:1" /><g
     id="g58"
     transform="matrix(0.19293268,0,0,0.19293268,0.60923494,0.60923574)"
     style="stroke-width:5.18315554;fill:#ffffff;fill-opacity:1" /><g
     id="g60"
     transform="matrix(0.19293268,0,0,0.19293268,0.60923494,0.60923574)"
     style="stroke-width:5.18315554;fill:#ffffff;fill-opacity:1" /></svg>