<?xml version="1.0" encoding="UTF-8" standalone="no"?>
<!-- Generator: Adobe Illustrator 19.0.0, SVG Export Plug-In . SVG Version: 6.00 Build 0)  -->

<svg
   xmlns:dc="http://purl.org/dc/elements/1.1/"
   xmlns:cc="http://creativecommons.org/ns#"
   xmlns:rdf="http://www.w3.org/1999/02/22-rdf-syntax-ns#"
   xmlns:svg="http://www.w3.org/2000/svg"
   xmlns="http://www.w3.org/2000/svg"
   xmlns:sodipodi="http://sodipodi.sourceforge.net/DTD/sodipodi-0.dtd"
   xmlns:inkscape="http://www.inkscape.org/namespaces/inkscape"
   version="1.1"
   id="Capa_1"
   x="0px"
   y="0px"
   viewBox="0 0 100 100"
   xml:space="preserve"
   sodipodi:docname="orders.svg"
   width="100"
   height="100"
   inkscape:version="0.92.1 r15371"><metadata
     id="metadata59"><rdf:RDF><cc:Work
         rdf:about=""><dc:format>image/svg+xml</dc:format><dc:type
           rdf:resource="http://purl.org/dc/dcmitype/StillImage" /><dc:title></dc:title></cc:Work></rdf:RDF></metadata><defs
     id="defs57" /><sodipodi:namedview
     pagecolor="#ffffff"
     bordercolor="#666666"
     borderopacity="1"
     objecttolerance="10"
     gridtolerance="10"
     guidetolerance="10"
     inkscape:pageopacity="0"
     inkscape:pageshadow="2"
     inkscape:window-width="1920"
     inkscape:window-height="1057"
     id="namedview55"
     showgrid="false"
     inkscape:zoom="4.2277174"
     inkscape:cx="22.044963"
     inkscape:cy="79.187468"
     inkscape:window-x="1912"
     inkscape:window-y="-8"
     inkscape:window-maximized="1"
     inkscape:current-layer="Capa_1" /><path
     style="fill:#f0e6de;stroke-width:1"
     d="M 84.745923,19.113542 H 69.302968 V 2.5123507 H 7.5311327 V 59.651239 c 0,3.198665 2.5925173,5.791182 5.7911823,5.791182 H 30.69567 v 32.044158 l 7.72138,-7.721384 7.721386,7.721384 7.72138,-7.721384 7.721389,7.721384 7.721382,-7.721384 7.721372,7.721384 7.721392,-7.721384 7.721387,7.721384 V 26.834931 c 5.36e-4,-4.264244 -3.456765,-7.721389 -7.720815,-7.721389 z"
     id="path2"
     inkscape:connector-curvature="0" /><path
     style="fill:#ffc478;stroke-width:1"
     d="m 30.69567,24.904536 v 40.53769 H 13.322315 c 3.198664,0 5.79118,-2.592516 5.79118,-5.79118 v -34.74651 c 0,-3.198664 2.592523,-5.791187 5.791188,-5.791187 3.198658,0 5.790987,2.592523 5.790987,5.791187 z"
     id="path4"
     inkscape:connector-curvature="0" /><path
     d="m 61.581396,40.347491 c -1.06558,0 -1.930397,0.864821 -1.930397,1.930394 0,1.065579 0.864817,1.930393 1.930397,1.930393 1.065569,0 1.930388,-0.864814 1.930388,-1.930393 0,-1.065573 -0.864819,-1.930394 -1.930388,-1.930394 z"
     id="path6"
     inkscape:connector-curvature="0"
     style="stroke-width:1" /><path
     d="m 40.347444,30.695717 c 0,1.066155 0.864238,1.930393 1.930393,1.930393 h 38.607299 c 1.06616,0 1.930397,-0.864238 1.930397,-1.930393 0,-1.066162 -0.864237,-1.930395 -1.930397,-1.930395 H 42.277837 c -1.066155,0 -1.930393,0.864233 -1.930393,1.930395 z"
     id="path8"
     inkscape:connector-curvature="0"
     style="stroke-width:1" /><path
     d="m 53.86001,44.208278 c 1.066154,0 1.930391,-0.864232 1.930391,-1.930393 0,-1.066155 -0.864237,-1.930394 -1.930391,-1.930394 H 42.277837 c -1.066155,0 -1.930393,0.864239 -1.930393,1.930394 0,1.066161 0.864238,1.930393 1.930393,1.930393 z"
     id="path10"
     inkscape:connector-curvature="0"
     style="stroke-width:1" /><path
     d="M 80.885136,40.347491 H 69.302968 c -1.06616,0 -1.930389,0.864239 -1.930389,1.930394 0,1.066161 0.864229,1.930393 1.930389,1.930393 h 11.582168 c 1.06616,0 1.930397,-0.864232 1.930397,-1.930393 0,-1.066155 -0.864237,-1.930394 -1.930397,-1.930394 z"
     id="path12"
     inkscape:connector-curvature="0"
     style="stroke-width:1" /><path
     d="m 53.86001,63.512026 h -1.930392 v -7.72138 h 2.903316 v 1.930395 c 0,1.066154 0.86423,1.930393 1.930389,1.930393 1.066161,0 1.911089,-0.864239 1.911089,-1.930393 v -1.930395 c 0,-1.031025 -0.382412,-2.000469 -1.111718,-2.729771 -0.729296,-0.729303 -1.698746,-1.131016 -2.72976,-1.131016 h -2.903316 v -1.930395 c 0,-1.066159 -0.86424,-1.930392 -1.930394,-1.930392 -1.066156,0 -1.930394,0.864233 -1.930394,1.930392 v 1.930395 h -1.930394 c -3.200016,0 -5.791181,2.591552 -5.791181,5.791182 v 3.860788 c 0,3.199821 2.591553,5.79118 5.791181,5.79118 h 1.930394 v 7.721386 h -2.887873 c -1.065767,0 -1.930394,-0.864433 -1.930394,-1.9304 0,-1.066153 -0.864234,-1.930393 -1.930393,-1.930393 -1.066155,0 -1.930394,0.86424 -1.930394,1.930393 0,3.19963 2.59117,5.791188 5.791181,5.791188 h 2.887873 v 1.930391 c 0,1.066156 0.864238,1.930395 1.930394,1.930395 1.066154,0 1.930394,-0.864239 1.930394,-1.930395 v -1.930391 h 1.930392 c 3.200015,0 5.791177,-2.591558 5.791177,-5.791188 v -3.860787 c 0,-3.200012 -2.591551,-5.791182 -5.791177,-5.791182 z m -7.721381,0 c -1.065966,0 -1.930393,-0.864425 -1.930393,-1.930392 v -3.860788 c 0,-1.065961 0.864622,-1.930395 1.930393,-1.930395 h 1.930394 v 7.721382 h -1.930394 z m 9.651772,9.651781 c 0,1.06596 -0.864618,1.930393 -1.930391,1.930393 h -1.930392 v -7.721386 h 1.930392 c 1.065773,0 1.930391,0.864433 1.930391,1.930394 z"
     id="path14"
     inkscape:connector-curvature="0"
     style="stroke-width:1" /><path
     d="M 80.885136,51.929665 H 69.302968 c -1.06616,0 -1.930389,0.864239 -1.930389,1.930394 0,1.066154 0.864229,1.930392 1.930389,1.930392 h 11.582168 c 1.06616,0 1.930397,-0.864238 1.930397,-1.930392 0,-1.066155 -0.864237,-1.930394 -1.930397,-1.930394 z"
     id="path16"
     inkscape:connector-curvature="0"
     style="stroke-width:1" /><path
     d="M 80.885136,63.512026 H 69.302968 c -1.06616,0 -1.930389,0.86424 -1.930389,1.930395 0,1.06616 0.864229,1.930393 1.930389,1.930393 h 11.582168 c 1.06616,0 1.930397,-0.864233 1.930397,-1.930393 0,-1.066348 -0.864237,-1.930395 -1.930397,-1.930395 z"
     id="path18"
     inkscape:connector-curvature="0"
     style="stroke-width:1" /><path
     d="M 80.885136,75.0942 H 69.302968 c -1.06616,0 -1.930389,0.864234 -1.930389,1.930394 0,1.066156 0.864229,1.930394 1.930389,1.930394 h 11.582168 c 1.06616,0 1.930397,-0.864238 1.930397,-1.930394 0,-1.06616 -0.864237,-1.930394 -1.930397,-1.930394 z"
     id="path20"
     inkscape:connector-curvature="0"
     style="stroke-width:1" /><path
     d="M 5.6007386,2.5123507 V 59.651239 c 0,4.25768 3.4639009,7.721382 7.7213824,7.721382 h 15.443154 v 30.113758 c 0,1.730027 2.089842,2.570331 3.295374,1.364983 l 6.356594,-6.356591 6.356595,6.356591 c 0.753821,0.753823 1.976144,0.753823 2.730159,0 l 6.35659,-6.356591 6.356595,6.356591 c 0.753823,0.753823 1.976146,0.753823 2.730158,0 l 6.356599,-6.356591 6.356589,6.356591 c 0.753821,0.753823 1.976145,0.753823 2.730157,0 l 6.356599,-6.356591 6.356592,6.356591 c 0.0046,0.0046 0.0091,0.0081 0.01352,0.01215 1.198781,1.176578 3.274141,0.358857 3.281478,-1.368649 0,-0.0027 3.91e-4,-0.0055 3.91e-4,-0.0081 V 26.834975 c 0,-5.322101 -4.329879,-9.651782 -9.651785,-9.651782 H 71.233946 V 2.5123507 c 0,-1.0661597 -0.864238,-1.93039392 -1.930397,-1.93039392 H 7.5317141 c -1.066736,0 -1.9309755,0.86423422 -1.9309755,1.93039392 z M 20.004954,63.512026 C 20.664184,62.375412 21.0437,61.057147 21.0437,59.651239 V 24.904536 c 0,-2.128841 1.731948,-3.860788 3.860788,-3.860788 2.128835,0 3.860787,1.731947 3.860787,3.860788 V 63.511833 H 20.004954 Z M 90.536921,26.834931 v 65.990903 l -4.426205,-4.426201 c -0.753823,-0.753819 -1.976137,-0.753819 -2.730159,0 l -6.356598,6.356597 -6.356587,-6.356597 c -0.753823,-0.753819 -1.976147,-0.753819 -2.730159,0 l -6.356589,6.356597 -6.356597,-6.356597 c -0.753819,-0.753819 -1.976145,-0.753819 -2.730155,0 l -6.356594,6.356597 -6.356596,-6.356597 c -0.753822,-0.753819 -1.976143,-0.753819 -2.730159,0 l -4.426195,4.426201 V 24.904536 c 0,-1.405907 -0.379517,-2.724173 -1.038746,-3.860788 H 84.74419 c 3.194997,1.89e-4 5.792731,2.597923 5.792731,5.791183 z M 9.4615256,4.4427453 H 67.372579 V 17.18315 H 24.904488 c -4.257681,0 -7.721386,3.4639 -7.721386,7.721386 v 34.746703 c 0,2.128841 -1.731948,3.860787 -3.860787,3.860787 -2.128841,0 -3.8607894,-1.731946 -3.8607894,-3.860787 0,0 0,-55.2084937 0,-55.2084937 z"
     id="path22"
     inkscape:connector-curvature="0"
     style="stroke-width:1" /><g
     id="g24"
     transform="translate(0,-412)" /><g
     id="g26"
     transform="translate(0,-412)" /><g
     id="g28"
     transform="translate(0,-412)" /><g
     id="g30"
     transform="translate(0,-412)" /><g
     id="g32"
     transform="translate(0,-412)" /><g
     id="g34"
     transform="translate(0,-412)" /><g
     id="g36"
     transform="translate(0,-412)" /><g
     id="g38"
     transform="translate(0,-412)" /><g
     id="g40"
     transform="translate(0,-412)" /><g
     id="g42"
     transform="translate(0,-412)" /><g
     id="g44"
     transform="translate(0,-412)" /><g
     id="g46"
     transform="translate(0,-412)" /><g
     id="g48"
     transform="translate(0,-412)" /><g
     id="g50"
     transform="translate(0,-412)" /><g
     id="g52"
     transform="translate(0,-412)" /></svg>