<?xml version="1.0" encoding="UTF-8" standalone="no"?>
<!-- Generator: Adobe Illustrator 19.0.0, SVG Export Plug-In . SVG Version: 6.00 Build 0)  -->

<svg
   xmlns:dc="http://purl.org/dc/elements/1.1/"
   xmlns:cc="http://creativecommons.org/ns#"
   xmlns:rdf="http://www.w3.org/1999/02/22-rdf-syntax-ns#"
   xmlns:svg="http://www.w3.org/2000/svg"
   xmlns="http://www.w3.org/2000/svg"
   xmlns:sodipodi="http://sodipodi.sourceforge.net/DTD/sodipodi-0.dtd"
   xmlns:inkscape="http://www.inkscape.org/namespaces/inkscape"
   version="1.1"
   id="Capa_1"
   x="0px"
   y="0px"
   viewBox="0 0 90 90"
   xml:space="preserve"
   sodipodi:docname="orders-bare.svg"
   width="100"
   height="100"
   inkscape:version="0.92.3 (2405546, 2018-03-11)"><metadata
     id="metadata59"><rdf:RDF><cc:Work
         rdf:about=""><dc:format>image/svg+xml</dc:format><dc:type
           rdf:resource="http://purl.org/dc/dcmitype/StillImage" /><dc:title></dc:title></cc:Work></rdf:RDF></metadata><defs
     id="defs57" /><sodipodi:namedview
     pagecolor="#ffffff"
     bordercolor="#666666"
     borderopacity="1"
     objecttolerance="10"
     gridtolerance="10"
     guidetolerance="10"
     inkscape:pageopacity="0"
     inkscape:pageshadow="2"
     inkscape:window-width="1366"
     inkscape:window-height="745"
     id="namedview55"
     showgrid="false"
     inkscape:zoom="2.9894476"
     inkscape:cx="16.193062"
     inkscape:cy="61.111113"
     inkscape:window-x="-8"
     inkscape:window-y="190"
     inkscape:window-maximized="1"
     inkscape:current-layer="Capa_1"
     inkscape:pagecheckerboard="true" /><path
     d="m 6.0147181,3.612191 v 50.019598 c 0,3.727188 3.0323121,6.759326 6.7593269,6.759326 H 26.29304 v 26.361696 c 0,1.514472 1.829454,2.250077 2.884783,1.194912 l 5.564586,-5.564584 5.564587,5.564584 c 0.659897,0.659899 1.729924,0.659899 2.389991,0 l 5.564582,-5.564584 5.564588,5.564584 c 0.659899,0.659899 1.729926,0.659899 2.38999,0 l 5.564591,-5.564584 5.564582,5.564584 c 0.659898,0.659899 1.729925,0.659899 2.389989,0 l 5.564591,-5.564584 5.564585,5.564584 c 0.0041,0.0041 0.008,0.0071 0.01183,0.01062 1.049418,1.029981 2.866196,0.314145 2.872619,-1.19812 0,-0.0023 3.42e-4,-0.0049 3.42e-4,-0.0071 V 24.904307 c 0,-4.658986 -3.790393,-8.449206 -8.449209,-8.449206 H 63.470273 V 3.612191 c 0,-0.9333206 -0.756557,-1.6898749 -1.689877,-1.6898749 H 7.7051015 c -0.9338246,0 -1.6903834,0.7565543 -1.6903834,1.6898749 z M 18.624222,57.011535 c 0.577092,-0.994997 0.909321,-2.14901 0.909321,-3.379746 V 23.214394 c 0,-1.863595 1.516155,-3.379748 3.37975,-3.379748 1.863589,0 3.379747,1.516153 3.379747,3.379748 V 57.011366 H 18.624222 Z M 80.36817,24.904269 v 57.768684 l -3.874717,-3.874714 c -0.659899,-0.659896 -1.729918,-0.659896 -2.389992,0 l -5.564589,5.56459 -5.564581,-5.56459 c -0.659898,-0.659896 -1.729926,-0.659896 -2.38999,0 l -5.564582,5.56459 -5.56459,-5.56459 c -0.659895,-0.659896 -1.729924,-0.659896 -2.389987,0 l -5.564586,5.56459 -5.564588,-5.56459 c -0.659899,-0.659896 -1.729923,-0.659896 -2.389992,0 l -3.874707,3.874714 V 23.214394 c 0,-1.230737 -0.332231,-2.384751 -0.909323,-3.379748 h 46.535246 c 2.796911,1.65e-4 5.070978,2.274232 5.070978,5.069623 z M 9.3944656,5.3020648 H 60.090018 V 16.455063 H 22.913293 c -3.727191,0 -6.759331,3.032312 -6.759331,6.759331 v 30.417395 c 0,1.863593 -1.516154,3.379746 -3.379747,3.379746 -1.863595,0 -3.3797494,-1.516153 -3.3797494,-3.379746 0,0 0,-48.3297242 0,-48.3297242 z"
     id="path22"
     inkscape:connector-curvature="0"
     style="fill:#ffffff;fill-opacity:1;stroke-width:0.87540376" /><g
     id="g24"
     transform="matrix(0.87540375,0,0,0.87540375,1.1118104,-359.25348)"
     style="fill:#ffffff;fill-opacity:1" /><g
     id="g26"
     transform="matrix(0.87540375,0,0,0.87540375,1.1118104,-359.25348)"
     style="fill:#ffffff;fill-opacity:1" /><g
     id="g28"
     transform="matrix(0.87540375,0,0,0.87540375,1.1118104,-359.25348)"
     style="fill:#ffffff;fill-opacity:1" /><g
     id="g30"
     transform="matrix(0.87540375,0,0,0.87540375,1.1118104,-359.25348)"
     style="fill:#ffffff;fill-opacity:1" /><g
     id="g32"
     transform="matrix(0.87540375,0,0,0.87540375,1.1118104,-359.25348)"
     style="fill:#ffffff;fill-opacity:1" /><g
     id="g34"
     transform="matrix(0.87540375,0,0,0.87540375,1.1118104,-359.25348)"
     style="fill:#ffffff;fill-opacity:1" /><g
     id="g36"
     transform="matrix(0.87540375,0,0,0.87540375,1.1118104,-359.25348)"
     style="fill:#ffffff;fill-opacity:1" /><g
     id="g38"
     transform="matrix(0.87540375,0,0,0.87540375,1.1118104,-359.25348)"
     style="fill:#ffffff;fill-opacity:1" /><g
     id="g40"
     transform="matrix(0.87540375,0,0,0.87540375,1.1118104,-359.25348)"
     style="fill:#ffffff;fill-opacity:1" /><g
     id="g42"
     transform="matrix(0.87540375,0,0,0.87540375,1.1118104,-359.25348)"
     style="fill:#ffffff;fill-opacity:1" /><g
     id="g44"
     transform="matrix(0.87540375,0,0,0.87540375,1.1118104,-359.25348)"
     style="fill:#ffffff;fill-opacity:1" /><g
     id="g46"
     transform="matrix(0.87540375,0,0,0.87540375,1.1118104,-359.25348)"
     style="fill:#ffffff;fill-opacity:1" /><g
     id="g48"
     transform="matrix(0.87540375,0,0,0.87540375,1.1118104,-359.25348)"
     style="fill:#ffffff;fill-opacity:1" /><g
     id="g50"
     transform="matrix(0.87540375,0,0,0.87540375,1.1118104,-359.25348)"
     style="fill:#ffffff;fill-opacity:1" /><g
     id="g52"
     transform="matrix(0.87540375,0,0,0.87540375,1.1118104,-359.25348)"
     style="fill:#ffffff;fill-opacity:1" /></svg>