<?xml version="1.0" encoding="UTF-8" standalone="no"?>
<!-- Generator: Adobe Illustrator 19.0.0, SVG Export Plug-In . SVG Version: 6.00 Build 0)  -->

<svg
   xmlns:dc="http://purl.org/dc/elements/1.1/"
   xmlns:cc="http://creativecommons.org/ns#"
   xmlns:rdf="http://www.w3.org/1999/02/22-rdf-syntax-ns#"
   xmlns:svg="http://www.w3.org/2000/svg"
   xmlns="http://www.w3.org/2000/svg"
   xmlns:sodipodi="http://sodipodi.sourceforge.net/DTD/sodipodi-0.dtd"
   xmlns:inkscape="http://www.inkscape.org/namespaces/inkscape"
   version="1.1"
   id="Capa_1"
   x="0px"
   y="0px"
   viewBox="0 0 512 512"
   style="enable-background:new 0 0 512 512;"
   xml:space="preserve"
   sodipodi:docname="table.svg"
   inkscape:version="0.92.3 (2405546, 2018-03-11)"><metadata
   id="metadata61"><rdf:RDF><cc:Work
       rdf:about=""><dc:format>image/svg+xml</dc:format><dc:type
         rdf:resource="http://purl.org/dc/dcmitype/StillImage" /></cc:Work></rdf:RDF></metadata><defs
   id="defs59">
	
</defs><sodipodi:namedview
   pagecolor="#ffffff"
   bordercolor="#666666"
   borderopacity="1"
   objecttolerance="10"
   gridtolerance="10"
   guidetolerance="10"
   inkscape:pageopacity="0"
   inkscape:pageshadow="2"
   inkscape:window-width="1366"
   inkscape:window-height="745"
   id="namedview57"
   showgrid="false"
   inkscape:zoom="0.921875"
   inkscape:cx="116.68707"
   inkscape:cy="313.34063"
   inkscape:window-x="-8"
   inkscape:window-y="-8"
   inkscape:window-maximized="1"
   inkscape:current-layer="Capa_1" />

<g
   id="g12">
	<g
   id="g10">
		
	</g>
</g>
<g
   id="g18">
	<g
   id="g16">
		
	</g>
</g>
<g
   id="g72"
   transform="matrix(1.5958463,0,0,1.5958463,-152.53665,-219.49038)"><g
     id="g6">
	<g
   id="g4">
		<path
   inkscape:connector-curvature="0"
   id="path2"
   d="m 186.569,206.88 c -1.859,-1.86 -4.439,-2.92 -7.069,-2.92 -2.63,0 -5.21,1.06 -7.07,2.92 -1.861,1.87 -2.93,4.44 -2.93,7.08 0,2.63 1.07,5.2 2.93,7.07 1.86,1.86 4.44,2.93 7.07,2.93 2.63,0 5.21,-1.07 7.069,-2.93 1.861,-1.87 2.931,-4.44 2.931,-7.07 0,-2.64 -1.071,-5.221 -2.931,-7.08 z" />
	</g>
</g><g
     id="g22">
		<path
   inkscape:label="path20"
   d="m 378,155.955 h -20 c -82.01568,0 -114.34169,0 -224,0 -18.748,0 -34,15.252 -34,34 0,18.748 15.252,34 34,34 h 5.5 c 5.522,0 10,-4.477 10,-10 0,-5.523 -4.478,-10 -10,-10 H 134 c -7.72,0 -14,-6.28 -14,-14 0,-7.72 6.28,-14 14,-14 h 114 16 114 c 7.72,0 14,6.28 14,14 0,7.72 -6.28,14 -14,14 H 276 236 216.5 c -5.522,0 -10,4.477 -10,10 0,5.523 4.478,10 10,10 h 9.5 v 159.621 c -18.304,7.454 -31.246,25.429 -31.246,46.379 0,5.523 4.478,10 10,10 H 307.5 c 5.522,0 10,-4.477 10,-10 0,-21.047 -13.062,-39.089 -31.5,-46.48 v -159.52 h 92 c 18.748,0 34,-15.252 34,-34 0,-18.748 -15.252,-34 -34,-34 z m -132,68 h 20 v 155.667 h -20 z m 49.79,195.999 h -79.326 c 4.13,-11.676 15.279,-20.063 28.353,-20.063 h 22.621 c 13.073,0 24.222,8.387 28.352,20.063 z"
   id="path20"
   inkscape:connector-curvature="0"
   sodipodi:nodetypes="sccssssssssccsssccsssccssssccssscccccccssc" />
	</g></g>















</svg>