<svg width="18" height="18" viewBox="0 0 18 18" fill="none" xmlns="http://www.w3.org/2000/svg">
<path fill-rule="evenodd" clip-rule="evenodd" d="M17.9323 6.71168C17.8564 6.48479 17.7198 6.28304 17.5373 6.12834C17.3549 5.97363 17.1335 5.8719 16.8973 5.8342L12.21 5.1157L10.1775 0.751484C10.0733 0.527019 9.90717 0.33703 9.69856 0.203888C9.48995 0.0707467 9.24761 1.98008e-06 9.00014 1.98008e-06C8.75266 1.98008e-06 8.51032 0.0707467 8.30171 0.203888C8.0931 0.33703 7.92696 0.527019 7.82273 0.751484L5.79026 5.11419L1.10297 5.83269C0.86645 5.87057 0.644821 5.97258 0.462217 6.1276C0.279614 6.28263 0.143046 6.48474 0.0672762 6.71198C-0.00849329 6.93922 -0.0205356 7.1829 0.0324877 7.4165C0.085511 7.65009 0.201564 7.86467 0.368014 8.03692L3.80283 11.5739L3.00791 16.4811C2.9666 16.7226 2.9944 16.9709 3.08811 17.1973C3.18182 17.4238 3.3376 17.6191 3.53752 17.7607C3.73744 17.9024 3.97334 17.9847 4.218 17.9981C4.46266 18.0114 4.70619 17.9554 4.92036 17.8364L9.00014 15.5669L13.0799 17.8364C13.2732 17.9419 13.4897 17.9981 13.71 17.9998C13.8991 17.9995 14.0859 17.958 14.2574 17.8782C14.4289 17.7984 14.5809 17.6822 14.703 17.5376C14.825 17.3931 14.9142 17.2237 14.9642 17.0413C15.0141 16.8588 15.0237 16.6677 14.9924 16.4811L14.1974 11.5739L17.6323 8.03692C17.7988 7.86465 17.9148 7.64998 17.9677 7.41629C18.0206 7.18261 18.0084 6.93888 17.9323 6.71168ZM13.155 10.6237C13.0148 10.7657 12.9103 10.9391 12.8503 11.1295C12.7903 11.3199 12.7765 11.5218 12.8099 11.7186L13.5824 16.5059L9.61507 14.2934C9.42703 14.1886 9.21539 14.1336 9.00014 14.1336C8.78489 14.1336 8.57325 14.1886 8.38521 14.2934L4.41785 16.5059L5.19034 11.7186C5.2238 11.5218 5.20995 11.3199 5.14997 11.1295C5.08998 10.9391 4.98552 10.7657 4.84529 10.6237L1.50798 7.17368L6.06774 6.4717C6.27306 6.4387 6.46723 6.35597 6.63324 6.23074C6.79925 6.1055 6.93209 5.94156 7.02022 5.7532L9.00014 1.49773L10.9801 5.75396C11.0683 5.94218 11.2012 6.10596 11.3672 6.23106C11.5332 6.35616 11.7273 6.43878 11.9325 6.4717L16.4923 7.17443L13.155 10.6237Z" fill="#FFCD44" fill-opacity="0.5"/>
</svg>
