<svg width="18" height="18" viewBox="0 0 18 18" fill="none" xmlns="http://www.w3.org/2000/svg">
<path fill-rule="evenodd" clip-rule="evenodd" d="M17.9323 6.71168C17.8564 6.48479 17.7198 6.28304 17.5373 6.12834C17.3549 5.97363 17.1335 5.8719 16.8973 5.8342L12.21 5.1157L10.1775 0.751482C10.0733 0.527017 9.90718 0.337028 9.69857 0.203886C9.48996 0.0707448 9.24762 0 9.00015 0C8.75267 0 8.51033 0.0707448 8.30172 0.203886C8.09311 0.337028 7.92697 0.527017 7.82274 0.751482L5.79027 5.11419L1.10298 5.83269C0.866461 5.87057 0.644832 5.97258 0.462228 6.1276C0.279625 6.28263 0.143057 6.48474 0.0672869 6.71198C-0.00848255 6.93922 -0.0205249 7.1829 0.0324984 7.4165C0.0855218 7.65009 0.201575 7.86467 0.368025 8.03692L3.80284 11.5739L3.00792 16.4811C2.96661 16.7226 2.99441 16.9709 3.08812 17.1973C3.18183 17.4238 3.33761 17.6191 3.53753 17.7607C3.73745 17.9024 3.97335 17.9847 4.21801 17.9981C4.46267 18.0114 4.7062 17.9554 4.92037 17.8364L9.00015 15.5669L13.0799 17.8364C13.2732 17.9419 13.4897 17.9981 13.71 17.9998C13.8991 17.9995 14.0859 17.958 14.2574 17.8782C14.4289 17.7984 14.5809 17.6822 14.703 17.5376C14.825 17.3931 14.9142 17.2237 14.9642 17.0413C15.0141 16.8588 15.0237 16.6677 14.9924 16.4811L14.1974 11.5739L17.6323 8.03692C17.7988 7.86465 17.9148 7.64998 17.9677 7.41629C18.0206 7.18261 18.0084 6.93888 17.9323 6.71168Z" fill="#FFCD44"/>
</svg>
