<?xml version="1.0" encoding="UTF-8" standalone="no"?>
<svg
   xmlns:dc="http://purl.org/dc/elements/1.1/"
   xmlns:cc="http://creativecommons.org/ns#"
   xmlns:rdf="http://www.w3.org/1999/02/22-rdf-syntax-ns#"
   xmlns:svg="http://www.w3.org/2000/svg"
   xmlns="http://www.w3.org/2000/svg"
   xmlns:sodipodi="http://sodipodi.sourceforge.net/DTD/sodipodi-0.dtd"
   xmlns:inkscape="http://www.inkscape.org/namespaces/inkscape"
   width="100"
   height="100"
   viewBox="0 0 100 100"
   version="1.1"
   id="svg7"
   sodipodi:docname="info.svg"
   inkscape:version="0.92.3 (2405546, 2018-03-11)">
  <metadata
     id="metadata11">
    <rdf:RDF>
      <cc:Work
         rdf:about="">
        <dc:format>image/svg+xml</dc:format>
        <dc:type
           rdf:resource="http://purl.org/dc/dcmitype/StillImage" />
        <dc:title></dc:title>
      </cc:Work>
    </rdf:RDF>
  </metadata>
  <sodipodi:namedview
     pagecolor="#ffffff"
     bordercolor="#666666"
     borderopacity="1"
     objecttolerance="10"
     gridtolerance="10"
     guidetolerance="10"
     inkscape:pageopacity="0"
     inkscape:pageshadow="2"
     inkscape:window-width="1366"
     inkscape:window-height="745"
     id="namedview9"
     showgrid="false"
     inkscape:zoom="1.7383042"
     inkscape:cx="-25.754024"
     inkscape:cy="-60.245623"
     inkscape:window-x="1358"
     inkscape:window-y="53"
     inkscape:window-maximized="1"
     inkscape:current-layer="svg7" />
  <defs
     id="defs4">
    <style
       id="style2">
      .cls-1 {
        fill: #101010;
        fill-rule: evenodd;
      }
    </style>
  </defs>
  <path
     id="info"
     class="cls-1"
     d="M 50,100 A 50,50 0 1 1 100,50 50,50 0 0 1 50,100 Z M 50,8.3333333 A 41.666667,41.666667 0 1 0 91.666667,50 41.666667,41.666667 0 0 0 50,8.3333333 Z M 50,75 A 4.1666667,4.1666667 0 0 1 45.8625,70.833333 V 45.875 a 4.1375,4.1375 0 1 1 8.270833,0 V 70.833333 A 4.1416667,4.1416667 0 0 1 50,75 Z M 50,33.333333 A 4.1333333,4.1333333 0 1 1 54.129167,29.2 4.1416667,4.1416667 0 0 1 50,33.333333 Z m -4.1375,-4.166666 c 0,0 0,0 0,0 a 0.17916667,0.17916667 0 0 1 0,0.02083 z m 8.270833,0 v 0.04167 a 0.17916667,0.17916667 0 0 1 0,-0.02083 c 0,0 0,-0.02083 0,-0.02083 z"
     inkscape:connector-curvature="0"
     style="fill:#fcd9b2;fill-rule:evenodd;stroke-width:4.16666651;fill-opacity:1" />
</svg>
