<?xml version="1.0" encoding="UTF-8" standalone="no"?>
<!-- Generator: Adobe Illustrator 19.0.0, SVG Export Plug-In . SVG Version: 6.00 Build 0)  -->

<svg
   xmlns:dc="http://purl.org/dc/elements/1.1/"
   xmlns:cc="http://creativecommons.org/ns#"
   xmlns:rdf="http://www.w3.org/1999/02/22-rdf-syntax-ns#"
   xmlns:svg="http://www.w3.org/2000/svg"
   xmlns="http://www.w3.org/2000/svg"
   xmlns:sodipodi="http://sodipodi.sourceforge.net/DTD/sodipodi-0.dtd"
   xmlns:inkscape="http://www.inkscape.org/namespaces/inkscape"
   version="1.1"
   id="Layer_1"
   x="0px"
   y="0px"
   viewBox="0 0 100 100"
   xml:space="preserve"
   sodipodi:docname="cart.svg"
   width="100"
   height="100"
   inkscape:version="0.92.3 (2405546, 2018-03-11)"><metadata
   id="metadata67"><rdf:RDF><cc:Work
       rdf:about=""><dc:format>image/svg+xml</dc:format><dc:type
         rdf:resource="http://purl.org/dc/dcmitype/StillImage" /><dc:title></dc:title></cc:Work></rdf:RDF></metadata><defs
   id="defs65" /><sodipodi:namedview
   pagecolor="#ffffff"
   bordercolor="#666666"
   borderopacity="1"
   objecttolerance="10"
   gridtolerance="10"
   guidetolerance="10"
   inkscape:pageopacity="0"
   inkscape:pageshadow="2"
   inkscape:window-width="1366"
   inkscape:window-height="745"
   id="namedview63"
   showgrid="false"
   inkscape:zoom="3.6875072"
   inkscape:cx="60.952427"
   inkscape:cy="58.607351"
   inkscape:window-x="-8"
   inkscape:window-y="-8"
   inkscape:window-maximized="1"
   inkscape:current-layer="g907" />



















<g
   id="g907"
   transform="translate(4.490372e-4,15.37982)"><g
     transform="matrix(0.19531264,0,0,0.19531264,-3.6207468e-4,-15.379854)"
     style="fill:#e9dbcc;fill-opacity:1"
     id="g6">
	
</g><g
     transform="matrix(0.19531264,0,0,0.19531264,-3.6207468e-4,-15.379854)"
     style="fill:#e9dbcc;fill-opacity:1"
     id="g12">
	
</g><g
     transform="matrix(0.19531264,0,0,0.19531264,-3.6207468e-4,-15.379854)"
     style="fill:#e9dbcc;fill-opacity:1"
     id="g24">
	
</g><g
     transform="matrix(0.19531264,0,0,0.19531264,-3.6207468e-4,-15.379854)"
     style="fill:#e9dbcc;fill-opacity:1"
     id="g30">
	<g
   style="fill:#e9dbcc;fill-opacity:1"
   id="g28"
   transform="matrix(1,0,0,1.0802397,0,39.080849)">
		<path
   style="fill:#e9dbcc;fill-opacity:1"
   inkscape:connector-curvature="0"
   id="path26"
   d="m 506.341,109.744 c -4.794,-5.884 -11.898,-9.258 -19.489,-9.258 H 95.278 L 87.37,62.097 C 85.719,54.089 80.257,47.365 72.756,44.108 L 17.579,20.158 C 11.209,17.391 3.806,20.314 1.043,26.682 -1.723,33.052 1.2,40.456 7.567,43.219 l 55.178,23.951 60.826,295.261 c 2.396,11.628 12.752,20.068 24.625,20.068 h 301.166 c 6.943,0 12.571,-5.628 12.571,-12.571 0,-6.943 -5.628,-12.571 -12.571,-12.571 H 148.197 l -7.399,-35.916 H 451.69 c 11.872,0 22.229,-8.44 24.624,-20.068 l 35.163,-170.675 c 1.531,-7.432 -0.341,-15.071 -5.136,-20.954 z M 451.69,296.301 H 135.619 l -35.161,-170.674 386.393,0.001 z" />
	</g>
</g><g
     transform="translate(0,-411.99899)"
     style="fill:#e9dbcc;fill-opacity:1"
     id="g32">
</g><g
     transform="translate(0,-411.99899)"
     style="fill:#e9dbcc;fill-opacity:1"
     id="g34">
</g><g
     transform="translate(0,-411.99899)"
     style="fill:#e9dbcc;fill-opacity:1"
     id="g36">
</g><g
     transform="translate(0,-411.99899)"
     style="fill:#e9dbcc;fill-opacity:1"
     id="g38">
</g><g
     transform="translate(0,-411.99899)"
     style="fill:#e9dbcc;fill-opacity:1"
     id="g40">
</g><g
     transform="translate(0,-411.99899)"
     style="fill:#e9dbcc;fill-opacity:1"
     id="g42">
</g><g
     transform="translate(0,-411.99899)"
     style="fill:#e9dbcc;fill-opacity:1"
     id="g44">
</g><g
     transform="translate(0,-411.99899)"
     style="fill:#e9dbcc;fill-opacity:1"
     id="g46">
</g><g
     transform="translate(0,-411.99899)"
     style="fill:#e9dbcc;fill-opacity:1"
     id="g48">
</g><g
     transform="translate(0,-411.99899)"
     style="fill:#e9dbcc;fill-opacity:1"
     id="g50">
</g><g
     transform="translate(0,-411.99899)"
     style="fill:#e9dbcc;fill-opacity:1"
     id="g52">
</g><g
     transform="translate(0,-411.99899)"
     style="fill:#e9dbcc;fill-opacity:1"
     id="g54">
</g><g
     transform="translate(0,-411.99899)"
     style="fill:#e9dbcc;fill-opacity:1"
     id="g56">
</g><g
     transform="translate(0,-411.99899)"
     style="fill:#e9dbcc;fill-opacity:1"
     id="g58">
</g><g
     transform="translate(0,-411.99899)"
     style="fill:#e9dbcc;fill-opacity:1"
     id="g60">
</g></g>
</svg>