<?xml version="1.0" encoding="UTF-8" standalone="no"?>
<svg
   xmlns:dc="http://purl.org/dc/elements/1.1/"
   xmlns:cc="http://creativecommons.org/ns#"
   xmlns:rdf="http://www.w3.org/1999/02/22-rdf-syntax-ns#"
   xmlns:svg="http://www.w3.org/2000/svg"
   xmlns="http://www.w3.org/2000/svg"
   xmlns:sodipodi="http://sodipodi.sourceforge.net/DTD/sodipodi-0.dtd"
   xmlns:inkscape="http://www.inkscape.org/namespaces/inkscape"
   version="1.1"
   viewBox="0 0 100 100"
   enable-background="new 0 0 512 512"
   id="svg10"
   sodipodi:docname="chart.svg"
   width="100"
   height="100"
   inkscape:version="0.92.3 (2405546, 2018-03-11)">
  <metadata
     id="metadata16">
    <rdf:RDF>
      <cc:Work
         rdf:about="">
        <dc:format>image/svg+xml</dc:format>
        <dc:type
           rdf:resource="http://purl.org/dc/dcmitype/StillImage" />
        <dc:title></dc:title>
      </cc:Work>
    </rdf:RDF>
  </metadata>
  <defs
     id="defs14" />
  <sodipodi:namedview
     pagecolor="#ffffff"
     bordercolor="#666666"
     borderopacity="1"
     objecttolerance="10"
     gridtolerance="10"
     guidetolerance="10"
     inkscape:pageopacity="0"
     inkscape:pageshadow="2"
     inkscape:window-width="1366"
     inkscape:window-height="745"
     id="namedview12"
     showgrid="false"
     inkscape:zoom="1.84375"
     inkscape:cx="111.17822"
     inkscape:cy="123.05431"
     inkscape:window-x="-8"
     inkscape:window-y="-8"
     inkscape:window-maximized="1"
     inkscape:current-layer="svg10" />
  <g
     id="g8"
     transform="matrix(0.20408163,0,0,0.20408163,-2.2448973,-2.2346932)"
     style="fill:#e9dbcc;fill-opacity:1">
    <g
       id="g6"
       style="fill:#e9dbcc;fill-opacity:1">
      <path
         d="M 480.5,460.2 52,460 52.2,31.4 C 52.2,20.1 42.9,11.1 31.7,11 20.4,11 11.2,20.1 11.2,31.4 l -0.2,449 c 0,5.4 2.2,10.6 6,14.4 3.6,3.6 8.3,5.7 13.4,5.9 0.4,0 0.7,0 1.1,0 l 449,0.2 c 11.3,0 20.5,-9.1 20.5,-20.4 0,-11.2 -9.2,-20.3 -20.5,-20.3 z"
         id="path2"
         inkscape:connector-curvature="0"
         style="fill:#e9dbcc;fill-opacity:1" />
      <path
         d="m 118.6,401.9 112.7,-94 143.6,-7.8 c 7.6,-0.4 14.3,-5 17.5,-11.8 l 51.4,-110.5 11,24.1 c 8.1,16 23,11.9 27.2,10.1 10.4,-4.4 14.8,-16.8 10.1,-27 l -31.8,-69.4 c -6.9,-14.3 -22.1,-13 -27.4,-10 l -68.3,32.2 c -10.2,4.8 -14.6,17 -9.8,27.2 4.8,10.2 17.1,14.5 27.3,9.7 l 23,-10.9 -44.7,96.2 -138.2,7.5 c -4.4,0.2 -8.6,1.9 -12,4.7 L 92.3,370.6 c -8.7,7.2 -9.7,20 -2.6,28.8 7,8.4 20.7,9.8 28.9,2.5 z"
         id="path4"
         inkscape:connector-curvature="0"
         style="fill:#e9dbcc;fill-opacity:1" />
    </g>
  </g>
</svg>
