<?xml version="1.0" encoding="UTF-8" standalone="no"?>
<svg
   xmlns:dc="http://purl.org/dc/elements/1.1/"
   xmlns:cc="http://creativecommons.org/ns#"
   xmlns:rdf="http://www.w3.org/1999/02/22-rdf-syntax-ns#"
   xmlns:svg="http://www.w3.org/2000/svg"
   xmlns="http://www.w3.org/2000/svg"
   xmlns:sodipodi="http://sodipodi.sourceforge.net/DTD/sodipodi-0.dtd"
   xmlns:inkscape="http://www.inkscape.org/namespaces/inkscape"
   width="100"
   height="100"
   viewBox="0 0 99.999997 100"
   version="1.1"
   id="svg7"
   sodipodi:docname="gear.svg"
   inkscape:version="0.92.3 (2405546, 2018-03-11)">
  <metadata
     id="metadata11">
    <rdf:RDF>
      <cc:Work
         rdf:about="">
        <dc:format>image/svg+xml</dc:format>
        <dc:type
           rdf:resource="http://purl.org/dc/dcmitype/StillImage" />
        <dc:title></dc:title>
      </cc:Work>
    </rdf:RDF>
  </metadata>
  <sodipodi:namedview
     pagecolor="#ffffff"
     bordercolor="#666666"
     borderopacity="1"
     objecttolerance="10"
     gridtolerance="10"
     guidetolerance="10"
     inkscape:pageopacity="0"
     inkscape:pageshadow="2"
     inkscape:window-width="1366"
     inkscape:window-height="745"
     id="namedview9"
     showgrid="false"
     inkscape:zoom="2.4583333"
     inkscape:cx="10.129175"
     inkscape:cy="22.351279"
     inkscape:window-x="1358"
     inkscape:window-y="53"
     inkscape:window-maximized="1"
     inkscape:current-layer="svg7" />
  <defs
     id="defs4">
    <style
       id="style2">
      .cls-1 {
        fill-rule: evenodd;
      }
    </style>
  </defs>
  <path
     id="gear"
     class="cls-1"
     d="m 93.55658,74.558559 a 6.1122983,6.1122983 0 0 1 -7.666173,2.65847 q -0.172904,-0.07251 -0.345808,-0.145026 l -0.422653,-0.177254 a 6.7206115,6.7206115 0 0 0 -8.644147,9.084219 6.1872958,6.1872958 0 0 1 -2.62576,7.984711 49.335872,49.335872 0 0 1 -10.584785,4.23116 6.1289644,6.1289644 0 0 1 -3.962448,-0.247619 6.220628,6.220628 0 0 1 -3.419479,-3.58921 7.1622636,7.1622636 0 0 0 -3.963348,-4.016096 6.283126,6.283126 0 0 0 -2.320892,-0.498943 6.8081086,6.8081086 0 0 0 -6.356097,4.382602 6.149797,6.149797 0 0 1 -7.473089,3.706321 49.815023,49.815023 0 0 1 -10.362957,-4.377685 6.0956322,6.0956322 0 0 1 -2.46374,-8.022763 6.8164417,6.8164417 0 0 0 -1.249816,-7.68535 6.2497938,6.2497938 0 0 0 -2.014474,-1.337311 7.1914294,7.1914294 0 0 0 -5.640817,-0.01625 A 6.1622967,6.1622967 0 0 1 6.0208051,73.852271 49.385871,49.385871 0 0 1 1.8575654,63.417959 6.0789661,6.0789661 0 0 1 5.6790257,56.029585 6.8289413,6.8289413 0 0 0 10.169399,49.739521 6.6664467,6.6664467 0 0 0 6.2094492,43.56068 L 5.9789105,43.464 A 6.5497838,6.5497838 0 0 1 2.049363,35.919883 47.185943,47.185943 0 0 1 6.446879,25.434218 a 6.0498003,6.0498003 0 0 1 7.858288,-2.5779 7.212262,7.212262 0 0 0 7.851809,-1.161933 6.7664434,6.7664434 0 0 0 1.362239,-7.665207 6.1831293,6.1831293 0 0 1 2.624147,-7.9808676 50.110846,50.110846 0 0 1 10.547975,-4.2511168 6.274793,6.274793 0 0 1 4.00087,0.2637335 6.1997954,6.1997954 0 0 1 3.414646,3.6007377 7.1997624,7.1997624 0 0 0 3.969793,4.0007253 6.3664565,6.3664565 0 0 0 2.312834,0.5181549 6.8164417,6.8164417 0 0 0 6.360932,-4.3941287 6.1456306,6.1456306 0 0 1 7.469866,-3.6986367 50.040015,50.040015 0 0 1 10.362958,4.3776816 6.0997987,6.0997987 0 0 1 2.465354,8.0189208 6.7664434,6.7664434 0 0 0 1.246591,7.693034 6.3414574,6.3414574 0 0 0 2.016086,1.333468 7.2039289,7.2039289 0 0 0 5.639205,0.02009 6.1331309,6.1331309 0 0 1 7.984091,2.616463 48.944218,48.944218 0 0 1 4.204886,10.442743 6.1039652,6.1039652 0 0 1 -3.837573,7.426796 6.716445,6.716445 0 0 0 -0.258241,12.574021 6.5414507,6.5414507 0 0 1 3.899182,7.508791 49.452534,49.452534 0 0 1 -4.386236,10.458768 z M 89.692092,62.442296 a 13.399557,13.399557 0 0 1 0.170532,-24.538604 40.077844,40.077844 0 0 0 -2.876011,-7.14746 13.966206,13.966206 0 0 1 -10.249152,-0.232033 12.753746,12.753746 0 0 1 -4.196892,-2.812826 13.44539,13.44539 0 0 1 -2.82055,-14.49775 41.790288,41.790288 0 0 0 -7.108274,-2.981094 12.587085,12.587085 0 0 1 -12.304369,7.038636 12.149599,12.149599 0 0 1 -4.898496,-0.170299 13.966206,13.966206 0 0 1 -7.324708,-7.097495 40.415333,40.415333 0 0 0 -7.270912,2.901044 13.441223,13.441223 0 0 1 -3.0782,14.450134 13.749546,13.749546 0 0 1 -14.464409,2.816461 44.694358,44.694358 0 0 0 -3.067859,7.20743 13.378725,13.378725 0 0 1 -0.173753,24.546289 45.206841,45.206841 0 0 0 2.874398,7.151303 14.107868,14.107868 0 0 1 10.249152,0.232031 12.812078,12.812078 0 0 1 4.233706,2.832783 13.416224,13.416224 0 0 1 2.823772,14.490066 41.411133,41.411133 0 0 0 7.108275,2.981094 13.52872,13.52872 0 0 1 12.307983,-7.909114 12.916241,12.916241 0 0 1 4.856456,1.024663 13.995371,13.995371 0 0 1 7.361521,7.117451 43.927717,43.927717 0 0 0 7.270913,-2.901044 13.362059,13.362059 0 0 1 3.078199,-14.450135 13.557886,13.557886 0 0 1 14.477299,-2.847198 40.740322,40.740322 0 0 0 3.027825,-7.219702 z m -46.125497,2.898358 a 16.691116,16.691116 0 1 1 21.786094,-8.962801 16.666116,16.666116 0 0 1 -21.786094,8.962801 z m 9.655521,-23.023123 a 8.3330583,8.3330583 0 1 0 4.50024,10.923539 8.3330583,8.3330583 0 0 0 -4.498629,-10.927381 z"
     inkscape:connector-curvature="0"
     style="fill-rule:evenodd;stroke-width:4.16652918;fill:#e9dbcc;fill-opacity:1" />
</svg>
