<?xml version="1.0" encoding="UTF-8" standalone="no"?>
<svg
   xmlns:dc="http://purl.org/dc/elements/1.1/"
   xmlns:cc="http://creativecommons.org/ns#"
   xmlns:rdf="http://www.w3.org/1999/02/22-rdf-syntax-ns#"
   xmlns:svg="http://www.w3.org/2000/svg"
   xmlns="http://www.w3.org/2000/svg"
   xmlns:sodipodi="http://sodipodi.sourceforge.net/DTD/sodipodi-0.dtd"
   xmlns:inkscape="http://www.inkscape.org/namespaces/inkscape"
   width="100"
   height="100"
   viewBox="0 0 99.999995 100"
   version="1.1"
   id="svg7"
   sodipodi:docname="user.svg"
   inkscape:version="0.92.3 (2405546, 2018-03-11)">
  <metadata
     id="metadata11">
    <rdf:RDF>
      <cc:Work
         rdf:about="">
        <dc:format>image/svg+xml</dc:format>
        <dc:type
           rdf:resource="http://purl.org/dc/dcmitype/StillImage" />
        <dc:title></dc:title>
      </cc:Work>
    </rdf:RDF>
  </metadata>
  <sodipodi:namedview
     pagecolor="#ffffff"
     bordercolor="#666666"
     borderopacity="1"
     objecttolerance="10"
     gridtolerance="10"
     guidetolerance="10"
     inkscape:pageopacity="0"
     inkscape:pageshadow="2"
     inkscape:window-width="1366"
     inkscape:window-height="745"
     id="namedview9"
     showgrid="false"
     inkscape:zoom="2.4583333"
     inkscape:cx="-6.9880269"
     inkscape:cy="19.013178"
     inkscape:window-x="1358"
     inkscape:window-y="53"
     inkscape:window-maximized="1"
     inkscape:current-layer="svg7" />
  <defs
     id="defs4">
    <style
       id="style2">
      .cls-1 {
        fill-rule: evenodd;
      }
    </style>
  </defs>
  <path
     id="user"
     class="cls-1"
     d="M 78.458334,100 C 76.333334,81.8875 68.791667,66.666666 50,66.666666 31.208333,66.666666 23.666667,81.8875 21.541666,100 H 13.249999 C 15.958333,77.395833 26.625,58.333333 50,58.333333 c 23.375001,0 34.041667,19.0625 36.750001,41.666667 z M 50,49.999999 A 25,25 0 1 1 75.000001,25 25,25 0 0 1 50,49.999999 Z M 50,8.3333336 A 16.666667,16.666667 0 1 0 66.666668,25 16.666667,16.666667 0 0 0 50,8.3333336 Z"
     inkscape:connector-curvature="0"
     style="fill-rule:evenodd;stroke-width:4.16666698;fill:#e9dbcc;fill-opacity:1" />
</svg>
