<?xml version="1.0" encoding="UTF-8" standalone="no"?>
<svg
   xmlns:dc="http://purl.org/dc/elements/1.1/"
   xmlns:cc="http://creativecommons.org/ns#"
   xmlns:rdf="http://www.w3.org/1999/02/22-rdf-syntax-ns#"
   xmlns:svg="http://www.w3.org/2000/svg"
   xmlns="http://www.w3.org/2000/svg"
   xmlns:sodipodi="http://sodipodi.sourceforge.net/DTD/sodipodi-0.dtd"
   xmlns:inkscape="http://www.inkscape.org/namespaces/inkscape"
   width="100"
   height="100"
   viewBox="0 0 100 100"
   version="1.1"
   id="svg7"
   sodipodi:docname="write.svg"
   inkscape:version="0.92.3 (2405546, 2018-03-11)">
  <metadata
     id="metadata11">
    <rdf:RDF>
      <cc:Work
         rdf:about="">
        <dc:format>image/svg+xml</dc:format>
        <dc:type
           rdf:resource="http://purl.org/dc/dcmitype/StillImage" />
        <dc:title></dc:title>
      </cc:Work>
    </rdf:RDF>
  </metadata>
  <sodipodi:namedview
     pagecolor="#ffffff"
     bordercolor="#666666"
     borderopacity="1"
     objecttolerance="10"
     gridtolerance="10"
     guidetolerance="10"
     inkscape:pageopacity="0"
     inkscape:pageshadow="2"
     inkscape:window-width="1366"
     inkscape:window-height="745"
     id="namedview9"
     showgrid="false"
     inkscape:zoom="1.7383042"
     inkscape:cx="-12.657715"
     inkscape:cy="-38.100256"
     inkscape:window-x="1358"
     inkscape:window-y="53"
     inkscape:window-maximized="1"
     inkscape:current-layer="svg7" />
  <defs
     id="defs4">
    <style
       id="style2">
      .cls-1 {
        fill-rule: evenodd;
      }
    </style>
  </defs>
  <path
     id="write"
     class="cls-1"
     d="M 91.638355,100 H 8.3616441 A 8.3276711,8.3276711 0 0 1 0.033973,91.672328 V 8.3956176 A 8.3276711,8.3276711 0 0 1 8.3616441,0.06794612 H 61.700378 L 53.372708,8.3956176 H 8.3616441 V 91.672328 H 91.638355 v -44.99857 l 8.327672,-8.327671 V 91.672328 A 8.3276711,8.3276711 0 0 1 91.638355,100 Z M 41.672328,79.180821 20.894789,79.239117 20.853152,58.361645 77.273123,2.4038575 a 8.1694455,8.1694455 0 0 1 11.575463,0 l 8.660778,8.7024155 a 8.2069199,8.2069199 0 0 1 0,11.608775 z M 29.180821,70.853152 H 41.672328 L 29.180821,58.361645 Z M 83.060854,8.2082446 37.508493,54.197809 45.836164,62.52548 91.721633,16.91066 Z"
     inkscape:connector-curvature="0"
     style="fill-rule:evenodd;stroke-width:4.16383553;fill:#e9dbcc;fill-opacity:1" />
</svg>
