<?xml version="1.0" encoding="UTF-8" standalone="no"?>
<svg
   xmlns:dc="http://purl.org/dc/elements/1.1/"
   xmlns:cc="http://creativecommons.org/ns#"
   xmlns:rdf="http://www.w3.org/1999/02/22-rdf-syntax-ns#"
   xmlns:svg="http://www.w3.org/2000/svg"
   xmlns="http://www.w3.org/2000/svg"
   xmlns:sodipodi="http://sodipodi.sourceforge.net/DTD/sodipodi-0.dtd"
   xmlns:inkscape="http://www.inkscape.org/namespaces/inkscape"
   width="100"
   height="100"
   viewBox="0 0 100 100"
   version="1.1"
   id="svg7"
   sodipodi:docname="bell.svg"
   inkscape:version="0.92.3 (2405546, 2018-03-11)">
  <metadata
     id="metadata11">
    <rdf:RDF>
      <cc:Work
         rdf:about="">
        <dc:format>image/svg+xml</dc:format>
        <dc:type
           rdf:resource="http://purl.org/dc/dcmitype/StillImage" />
        <dc:title></dc:title>
      </cc:Work>
    </rdf:RDF>
  </metadata>
  <sodipodi:namedview
     pagecolor="#ffffff"
     bordercolor="#666666"
     borderopacity="1"
     objecttolerance="10"
     gridtolerance="10"
     guidetolerance="10"
     inkscape:pageopacity="0"
     inkscape:pageshadow="2"
     inkscape:window-width="1366"
     inkscape:window-height="745"
     id="namedview9"
     showgrid="false"
     inkscape:zoom="2.4583333"
     inkscape:cx="-42.310397"
     inkscape:cy="0.27506045"
     inkscape:window-x="1358"
     inkscape:window-y="53"
     inkscape:window-maximized="1"
     inkscape:current-layer="svg7" />
  <defs
     id="defs4">
    <style
       id="style2">
      .cls-1 {
        fill-rule: evenodd;
      }
    </style>
  </defs>
  <path
     id="bell"
     class="cls-1"
     d="M 95.833333,75 H 4.1666667 a 4.1666667,4.1666667 0 0 1 0,-8.333333 H 12.5 V 33.333333 A 33.333333,33.333333 0 0 1 45.833333,0 h 8.333334 A 33.333333,33.333333 0 0 1 87.5,33.333333 v 33.333334 h 8.333333 a 4.1666667,4.1666667 0 0 1 0,8.333333 z M 79.166667,37.5 a 29.166667,29.166667 0 0 0 -58.333334,0 v 29.166667 h 58.333334 z m -33.333334,50 a 4.166667,4.166667 0 0 0 8.333334,0 V 83.333333 H 62.5 V 87.5 a 12.5,12.5 0 0 1 -25,0 v -4.166667 h 8.333333 z"
     inkscape:connector-curvature="0"
     style="fill-rule:evenodd;stroke-width:4.16666651;fill:#fcd9b2;fill-opacity:1" />
</svg>
