<?xml version="1.0" encoding="UTF-8" standalone="no"?>
<svg
   xmlns:dc="http://purl.org/dc/elements/1.1/"
   xmlns:cc="http://creativecommons.org/ns#"
   xmlns:rdf="http://www.w3.org/1999/02/22-rdf-syntax-ns#"
   xmlns:svg="http://www.w3.org/2000/svg"
   xmlns="http://www.w3.org/2000/svg"
   xmlns:sodipodi="http://sodipodi.sourceforge.net/DTD/sodipodi-0.dtd"
   xmlns:inkscape="http://www.inkscape.org/namespaces/inkscape"
   width="100"
   height="100"
   viewBox="0 0 100 100"
   version="1.1"
   id="svg7"
   sodipodi:docname="glass.svg"
   inkscape:version="0.92.3 (2405546, 2018-03-11)">
  <metadata
     id="metadata11">
    <rdf:RDF>
      <cc:Work
         rdf:about="">
        <dc:format>image/svg+xml</dc:format>
        <dc:type
           rdf:resource="http://purl.org/dc/dcmitype/StillImage" />
        <dc:title></dc:title>
      </cc:Work>
    </rdf:RDF>
  </metadata>
  <sodipodi:namedview
     pagecolor="#ffffff"
     bordercolor="#666666"
     borderopacity="1"
     objecttolerance="10"
     gridtolerance="10"
     guidetolerance="10"
     inkscape:pageopacity="0"
     inkscape:pageshadow="2"
     inkscape:window-width="1366"
     inkscape:window-height="745"
     id="namedview9"
     showgrid="false"
     inkscape:zoom="1.7383042"
     inkscape:cx="-125.09225"
     inkscape:cy="-30.471846"
     inkscape:window-x="1358"
     inkscape:window-y="53"
     inkscape:window-maximized="1"
     inkscape:current-layer="svg7" />
  <defs
     id="defs4">
    <style
       id="style2">
      .cls-1 {
        fill-rule: evenodd;
      }
    </style>
  </defs>
  <path
     id="glass"
     class="cls-1"
     d="M 54.083333,62.141667 A 1.1208333,1.1208333 0 0 1 54.166666,62.5 v 29.166667 h 12.5 a 4.1666667,4.1666667 0 0 1 0,8.333333 H 33.333333 a 4.1666667,4.1666667 0 0 1 0,-8.333333 h 12.5 V 62.5 a 1.1208333,1.1208333 0 0 1 0.08333,-0.358333 c -18.291667,-3.05 -29.25,-26.170834 -29.25,-45.475 V 0 h 66.666668 v 16.666667 c 0,19.304166 -10.958334,42.425 -29.250001,45.475 z M 25,8.3333333 v 8.3333337 c 0,16.108333 8.875,37.5 24.999999,37.5 C 66.125,54.166667 75,32.775 75,16.666667 V 8.3333333 Z"
     inkscape:connector-curvature="0"
     style="fill-rule:evenodd;stroke-width:4.16666651;fill:#fcd9b2;fill-opacity:1" />
</svg>
