<?xml version="1.0" encoding="UTF-8" standalone="no"?>
<svg
   xmlns:dc="http://purl.org/dc/elements/1.1/"
   xmlns:cc="http://creativecommons.org/ns#"
   xmlns:rdf="http://www.w3.org/1999/02/22-rdf-syntax-ns#"
   xmlns:svg="http://www.w3.org/2000/svg"
   xmlns="http://www.w3.org/2000/svg"
   xmlns:sodipodi="http://sodipodi.sourceforge.net/DTD/sodipodi-0.dtd"
   xmlns:inkscape="http://www.inkscape.org/namespaces/inkscape"
   width="100"
   height="100"
   viewBox="0 0 99.999998 100"
   version="1.1"
   id="svg7"
   sodipodi:docname="users.svg"
   inkscape:version="0.92.3 (2405546, 2018-03-11)">
  <metadata
     id="metadata11">
    <rdf:RDF>
      <cc:Work
         rdf:about="">
        <dc:format>image/svg+xml</dc:format>
        <dc:type
           rdf:resource="http://purl.org/dc/dcmitype/StillImage" />
        <dc:title></dc:title>
      </cc:Work>
    </rdf:RDF>
  </metadata>
  <sodipodi:namedview
     pagecolor="#ffffff"
     bordercolor="#666666"
     borderopacity="1"
     objecttolerance="10"
     gridtolerance="10"
     guidetolerance="10"
     inkscape:pageopacity="0"
     inkscape:pageshadow="2"
     inkscape:window-width="1366"
     inkscape:window-height="745"
     id="namedview9"
     showgrid="false"
     inkscape:zoom="1.6909593"
     inkscape:cx="-56.895756"
     inkscape:cy="-3.7049962"
     inkscape:window-x="1358"
     inkscape:window-y="53"
     inkscape:window-maximized="1"
     inkscape:current-layer="svg7" />
  <defs
     id="defs4">
    <style
       id="style2">
      .cls-1 {
        fill-rule: evenodd;
      }
    </style>
  </defs>
  <path
     id="users"
     class="cls-1"
     d="M 76.860896,56.736275 A 16.840687,16.840687 0 1 1 93.701583,39.895588 16.840687,16.840687 0 0 1 76.860896,56.736275 Z m 0,-26.9451 A 10.104412,10.104412 0 1 0 86.965308,39.895588 10.104412,10.104412 0 0 0 76.860896,29.791175 Z M 48.198046,74.654766 A 19.653082,19.653082 0 0 0 29.706972,63.47255 c -15.1903,0 -21.2866284,12.303806 -23.0043785,26.945099 H 0 C 2.1892893,72.145503 10.811721,56.736275 29.706972,56.736275 A 25.597844,25.597844 0 0 1 52.4419,69.029976 24.011452,24.011452 0 0 0 48.198046,74.654766 Z M 29.706972,50 A 20.208825,20.208825 0 1 1 49.915797,29.791175 20.208825,20.208825 0 0 1 29.706972,50 Z m 0,-33.681374 A 13.47255,13.47255 0 1 0 43.179522,29.791175 13.47255,13.47255 0 0 0 29.706972,16.318626 Z M 76.860896,63.47255 c 14.819805,0 21.488717,12.354328 23.139104,26.945099 H 93.331088 C 92.118558,79.434153 87.73998,70.208824 76.860896,70.208824 c -10.879084,0 -15.257663,9.232065 -16.470192,20.208825 H 53.721792 C 55.372179,75.830246 62.041091,63.47255 76.860896,63.47255 Z"
     inkscape:connector-curvature="0"
     style="fill-rule:evenodd;stroke-width:3.36813736;fill:#fcd9b2;fill-opacity:1" />
</svg>
